<svg version="1.1" xmlns="http://www.w3.org/2000/svg" xmlns:xlink="http://www.w3.org/1999/xlink" width="65.2" height="91.8" viewBox="0,0,65.2,91.8"><g transform="translate(-207.4,-134.1)"><g data-paper-data="{&quot;isPaintingLayer&quot;:true}" fill-rule="nonzero" stroke="none" stroke-width="1" stroke-linecap="butt" stroke-linejoin="miter" stroke-miterlimit="10" stroke-dasharray="" stroke-dashoffset="0" style="mix-blend-mode: normal"><path d="M250.15,225.9l-3.55,-18.3c-0.3,-1.8 0.01667,-3.36667 0.95,-4.7c1.1,-1.43333 2.55,-2.13333 4.35,-2.1c1.86667,-0.03333 3.45,0.66667 4.75,2.1c1.26667,1.33333 1.88333,2.9 1.85,4.7v18.3h-8.35" fill="#6fc4a9"/><path d="M255.2,148.5c4.2,4.2 6.3,9.26667 6.3,15.2v40.4c0,3.63333 -2.1,6.73333 -6.3,9.3c-4.2,2.53333 -9.26667,3.8 -15.2,3.8c-5.93333,0 -11,-1.26667 -15.2,-3.8c-4.2,-2.56667 -6.3,-5.66667 -6.3,-9.3v-40.4c0,-5.93333 2.1,-11 6.3,-15.2c4.2,-4.2 9.26667,-6.3 15.2,-6.3c5.93333,0 11,2.1 15.2,6.3" fill="#6fc4a9"/><path d="M270.7,174.95c0.46667,0.46667 0.71667,1.05 0.75,1.75c0.2,8.36667 -3.65,14.1 -11.55,17.2l-0.3,0.1v-9.2c4.66667,0.13333 6.95,-2.53333 6.85,-8c0,-0.7 0.23333,-1.3 0.7,-1.8c0.46667,-0.5 1.05,-0.75 1.75,-0.75c0.7,0 1.3,0.23333 1.8,0.7M209.3,182.45c0.5,-0.46667 1.1,-0.7 1.8,-0.7c0.7,0 1.28333,0.25 1.75,0.75c0.46667,0.5 0.7,1.1 0.7,1.8c-0.1,5.46667 2.18333,8.13333 6.85,8v9.2l-0.3,-0.1c-7.9,-3.1 -11.75,-8.83333 -11.55,-17.2c0.03333,-0.7 0.28333,-1.28333 0.75,-1.75" fill="#6fc4a9"/><path d="M260.85,156.3c0,-2.6 -0.91667,-4.81667 -2.75,-6.65c-1.83333,-1.86667 -4.05,-2.8 -6.65,-2.8c-2.6,0 -4.81667,0.93333 -6.65,2.8c-1.86667,1.83333 -2.8,4.05 -2.8,6.65c0,2.6 0.93333,4.81667 2.8,6.65c1.83333,1.83333 4.05,2.75 6.65,2.75c2.6,0 4.81667,-0.91667 6.65,-2.75c1.83333,-1.83333 2.75,-4.05 2.75,-6.65M259.55,186.2c-5.43333,5.36667 -11.95,8.05 -19.55,8.05c-7.6,0 -14.08333,-2.68333 -19.45,-8.05c-5.43333,-5.4 -8.15,-11.91667 -8.15,-19.55c0,-7.6 2.71667,-14.08333 8.15,-19.45c5.36667,-5.4 11.85,-8.1 19.45,-8.1c7.6,0 14.11667,2.7 19.55,8.1c5.36667,5.36667 8.05,11.85 8.05,19.45c0,7.63333 -2.68333,14.15 -8.05,19.55" fill-opacity="0.2" fill="#ffffff"/><path d="M260.85,156.3c0,2.6 -0.91667,4.81667 -2.75,6.65c-1.83333,1.83333 -4.05,2.75 -6.65,2.75c-2.6,0 -4.81667,-0.91667 -6.65,-2.75c-1.86667,-1.83333 -2.8,-4.05 -2.8,-6.65c0,-2.6 0.93333,-4.81667 2.8,-6.65c1.83333,-1.86667 4.05,-2.8 6.65,-2.8c2.6,0 4.81667,0.93333 6.65,2.8c1.83333,1.83333 2.75,4.05 2.75,6.65" fill-opacity="0.30196" fill="#ffffff"/><path d="M259.55,186.2c5.36667,-5.4 8.05,-11.91667 8.05,-19.55c0,-7.6 -2.68333,-14.08333 -8.05,-19.45c-5.43333,-5.4 -11.95,-8.1 -19.55,-8.1c-7.6,0 -14.08333,2.7 -19.45,8.1c-5.43333,5.36667 -8.15,11.85 -8.15,19.45c0,7.63333 2.71667,14.15 8.15,19.55c5.36667,5.36667 11.85,8.05 19.45,8.05c7.6,0 14.11667,-2.68333 19.55,-8.05M263.1,143.65c6.33333,6.33333 9.5,14 9.5,23c0,9.03333 -3.16667,16.73333 -9.5,23.1c-6.4,6.33333 -14.1,9.5 -23.1,9.5c-9,0 -16.66667,-3.16667 -23,-9.5c-6.4,-6.36667 -9.6,-14.06667 -9.6,-23.1c0,-9 3.2,-16.66667 9.6,-23c6.33333,-6.36667 14,-9.55 23,-9.55c9,0 16.7,3.18333 23.1,9.55" fill="#ffffff"/><path d="M222.35,197.6c3.8,1.63333 6.33333,4.48333 7.6,8.55c-6.16667,2.03333 -9.55,6.06667 -10.15,12.1c-1.03333,1.1 -2.28333,1.21667 -3.75,0.35c-1.16667,-1.13333 -1.96667,-2.65 -2.4,-4.55c-1.1,-4.9 1.8,-10.38333 8.7,-16.45" fill="#6fc4a9"/><path d="M239.25,209.2c0,1.1 -0.38333,2.03333 -1.15,2.8c-0.76667,0.76667 -1.7,1.15 -2.8,1.15c-1.1,0 -2.03333,-0.38333 -2.8,-1.15c-0.76667,-0.76667 -1.15,-1.7 -1.15,-2.8c0,-1.1 0.38333,-2.03333 1.15,-2.8c0.76667,-0.76667 1.7,-1.15 2.8,-1.15c1.1,0 2.03333,0.38333 2.8,1.15c0.76667,0.76667 1.15,1.7 1.15,2.8M226.45,206.05c0.56667,0 1.05,0.2 1.45,0.6c0.4,0.4 0.6,0.88333 0.6,1.45c0,0.56667 -0.2,1.05 -0.6,1.45c-0.4,0.4 -0.88333,0.6 -1.45,0.6c-0.56667,0 -1.05,-0.2 -1.45,-0.6c-0.4,-0.4 -0.6,-0.88333 -0.6,-1.45c0,-0.56667 0.2,-1.05 0.6,-1.45c0.4,-0.4 0.88333,-0.6 1.45,-0.6M221.55,199.35c0.56667,-0.56667 1.25,-0.85 2.05,-0.85c0.8,0 1.48333,0.28333 2.05,0.85c0.56667,0.56667 0.85,1.25 0.85,2.05c0,0.8 -0.28333,1.48333 -0.85,2.05c-0.56667,0.56667 -1.25,0.85 -2.05,0.85c-0.8,0 -1.48333,-0.28333 -2.05,-0.85c-0.56667,-0.56667 -0.85,-1.25 -0.85,-2.05c0,-0.8 0.28333,-1.48333 0.85,-2.05" fill-opacity="0.50196" fill="#8bcfba"/></g></g></svg>