<svg version="1.1" xmlns="http://www.w3.org/2000/svg" xmlns:xlink="http://www.w3.org/1999/xlink" width="69.05714" height="71.1" viewBox="0,0,69.05714,71.1"><g transform="translate(-205.47143,-154.78333)"><g data-paper-data="{&quot;isPaintingLayer&quot;:true}" fill-rule="nonzero" stroke="none" stroke-width="1" stroke-linecap="butt" stroke-linejoin="miter" stroke-miterlimit="10" stroke-dasharray="" stroke-dashoffset="0" style="mix-blend-mode: normal"><path d="M256.27857,225.88333h-8.35l-2.2,-18.3c-0.13333,-1.8 0.3,-3.36667 1.3,-4.7c1.23333,-1.43333 2.75,-2.13333 4.55,-2.1c1.86667,-0.03333 3.38333,0.66667 4.55,2.1c1.2,1.33333 1.7,2.9 1.5,4.7l-1.35,18.3M222.77857,200.78333c1.76667,-0.03333 3.08333,0.66667 3.95,2.1c0.66667,1.33333 0.68333,2.9 0.05,4.7l-7.05,18.3h-8.35l3.5,-18.3c0.3,-1.8 1.21667,-3.36667 2.75,-4.7c1.53333,-1.43333 3.25,-2.13333 5.15,-2.1" fill="#6fc4a9"/><path d="M263.32857,191.03333l-6.6,24.5c-0.93333,3.53333 -3.76667,6 -8.5,7.4c-4.7,1.33333 -9.91667,1.23333 -15.65,-0.3c-5.73333,-1.53333 -10.3,-4.06667 -13.7,-7.6c-3.4,-3.53333 -4.63333,-7.06667 -3.7,-10.6l6.6,-24.5c1.53333,-5.73333 4.86667,-10.1 10,-13.1c5.16667,-2.96667 10.61667,-3.68333 16.35,-2.15c5.73333,1.53333 10.06667,4.88333 13,10.05c3,5.13333 3.73333,10.56667 2.2,16.3" fill="#6fc4a9"/><path d="M254.27857,195.33333c1.3,0.33333 2.28333,1.1 2.95,2.3c0.73333,1.2 0.91667,2.45 0.55,3.75c-0.33333,1.26667 -1.1,2.23333 -2.3,2.9c-1.2,0.7 -2.45,0.88333 -3.75,0.55c-1.33333,-0.36667 -2.35,-1.16667 -3.05,-2.4c-0.66667,-1.13333 -0.83333,-2.33333 -0.5,-3.6c0.36667,-1.3 1.11667,-2.31667 2.25,-3.05c1.23333,-0.66667 2.51667,-0.81667 3.85,-0.45M233.32857,191.23333c1.23333,-0.7 2.51667,-0.86667 3.85,-0.5c1.3,0.36667 2.28333,1.13333 2.95,2.3c0.73333,1.23333 0.91667,2.5 0.55,3.8c-0.33333,1.26667 -1.1,2.21667 -2.3,2.85c-1.2,0.73333 -2.45,0.91667 -3.75,0.55c-1.33333,-0.36667 -2.35,-1.15 -3.05,-2.35c-0.66667,-1.16667 -0.83333,-2.38333 -0.5,-3.65c0.36667,-1.3 1.11667,-2.3 2.25,-3" fill="#347e67"/><path d="M243.17857,210.38333c-0.46667,0.5 -1.05,0.75 -1.75,0.75c-0.7,0 -1.3,-0.25 -1.8,-0.75c-0.46667,-0.46667 -0.7,-1.05 -0.7,-1.75c0,-0.7 0.23333,-1.3 0.7,-1.8c0.5,-0.46667 1.1,-0.7 1.8,-0.7c0.7,0 1.28333,0.23333 1.75,0.7c0.5,0.5 0.75,1.1 0.75,1.8c0,0.7 -0.25,1.28333 -0.75,1.75" fill="#347e67"/><path d="M256.52857,211.73333l2.4,-8.9l0.3,0.15c6.8,5.06667 9.01667,11.6 6.65,19.6c-0.2,0.66667 -0.58333,1.16667 -1.15,1.5l-1.9,0.2c-0.66667,-0.16667 -1.16667,-0.55 -1.5,-1.15c-0.3,-0.63333 -0.36667,-1.28333 -0.2,-1.95c1.5,-5.23333 -0.03333,-8.38333 -4.6,-9.45M221.47857,193.43333l-2.4,8.9c-4.46667,-1.33333 -7.35,0.65 -8.65,5.95c-0.16667,0.66667 -0.55,1.18333 -1.15,1.55l-1.9,0.25c-0.66667,-0.16667 -1.18333,-0.53333 -1.55,-1.1c-0.33333,-0.6 -0.43333,-1.23333 -0.3,-1.9c1.96667,-8.1 7.18333,-12.63333 15.65,-13.6l0.3,-0.05" fill="#6fc4a9"/><path d="M269.52857,187.33333c0,-7.6 -2.68333,-14.08333 -8.05,-19.45c-5.43333,-5.4 -11.95,-8.1 -19.55,-8.1c-7.6,0 -14.08333,2.7 -19.45,8.1c-5.43333,5.36667 -8.15,11.85 -8.15,19.45c0,7.63333 2.71667,14.15 8.15,19.55c5.36667,5.36667 11.85,8.05 19.45,8.05c7.6,0 14.11667,-2.68333 19.55,-8.05c5.36667,-5.4 8.05,-11.91667 8.05,-19.55M265.02857,164.33333c6.33333,6.33333 9.5,14 9.5,23c0,9.03333 -3.16667,16.73333 -9.5,23.1c-6.4,6.33333 -14.1,9.5 -23.1,9.5c-9,0 -16.66667,-3.16667 -23,-9.5c-6.4,-6.36667 -9.6,-14.06667 -9.6,-23.1c0,-9 3.2,-16.66667 9.6,-23c6.33333,-6.36667 14,-9.55 23,-9.55c9,0 16.7,3.18333 23.1,9.55" fill="#ffffff"/><path d="M253.37857,186.38333c2.6,0 4.81667,-0.91667 6.65,-2.75c1.83333,-1.83333 2.75,-4.05 2.75,-6.65c0,-2.6 -0.91667,-4.81667 -2.75,-6.65c-1.83333,-1.86667 -4.05,-2.8 -6.65,-2.8c-2.6,0 -4.81667,0.93333 -6.65,2.8c-1.86667,1.83333 -2.8,4.05 -2.8,6.65c0,2.6 0.93333,4.81667 2.8,6.65c1.83333,1.83333 4.05,2.75 6.65,2.75M269.52857,187.33333c0,7.63333 -2.68333,14.15 -8.05,19.55c-5.43333,5.36667 -11.95,8.05 -19.55,8.05c-7.6,0 -14.08333,-2.68333 -19.45,-8.05c-5.43333,-5.4 -8.15,-11.91667 -8.15,-19.55c0,-7.6 2.71667,-14.08333 8.15,-19.45c5.36667,-5.4 11.85,-8.1 19.45,-8.1c7.6,0 14.11667,2.7 19.55,8.1c5.36667,5.36667 8.05,11.85 8.05,19.45" fill-opacity="0.2" fill="#ffffff"/><path d="M253.37857,186.38333c-2.6,0 -4.81667,-0.91667 -6.65,-2.75c-1.86667,-1.83333 -2.8,-4.05 -2.8,-6.65c0,-2.6 0.93333,-4.81667 2.8,-6.65c1.83333,-1.86667 4.05,-2.8 6.65,-2.8c2.6,0 4.81667,0.93333 6.65,2.8c1.83333,1.83333 2.75,4.05 2.75,6.65c0,2.6 -0.91667,4.81667 -2.75,6.65c-1.83333,1.83333 -4.05,2.75 -6.65,2.75" fill-opacity="0.30196" fill="#ffffff"/></g></g></svg>