<svg version="1.1" xmlns="http://www.w3.org/2000/svg" xmlns:xlink="http://www.w3.org/1999/xlink" width="65.201" height="91.8" viewBox="0,0,65.201,91.8"><g transform="translate(-207.3995,-134.1)"><g data-paper-data="{&quot;isPaintingLayer&quot;:true}" fill-rule="nonzero" stroke="none" stroke-width="1" stroke-linecap="butt" stroke-linejoin="miter" stroke-miterlimit="10" stroke-dasharray="" stroke-dashoffset="0" style="mix-blend-mode: normal"><g><path d="M258.4995,225.9h-8.35l-3.55,-18.3c-0.3,-1.8 0.017,-3.366 0.95,-4.7c1.1,-1.434 2.55,-2.133 4.35,-2.1c1.867,-0.033 3.45,0.667 4.75,2.1c1.267,1.333 1.884,2.9 1.851,4.7v18.3zM221.4995,207.6c-0.034,-1.8 0.583,-3.366 1.85,-4.7c1.3,-1.434 2.883,-2.133 4.75,-2.1c1.8,-0.033 3.25,0.667 4.35,2.1c0.934,1.333 1.25,2.9 0.95,4.7l-3.55,18.3h-8.35z" fill="#6fc4a9"/><path d="M218.4995,163.7c0,-5.933 2.1,-11 6.3,-15.2c4.2,-4.2 9.267,-6.3 15.2,-6.3c5.933,0 11,2.1 15.199,6.3c4.2,4.2 6.301,9.267 6.301,15.2v40.4c0,3.634 -2.101,6.733 -6.301,9.3c-4.199,2.533 -9.267,3.8 -15.199,3.8c-5.934,0 -11,-1.267 -15.2,-3.8c-4.2,-2.567 -6.3,-5.667 -6.3,-9.3z" fill="#6fc4a9"/><path d="M227.5995,171.65c1,-0.967 2.2,-1.45 3.6,-1.45c1.334,0 2.483,0.483 3.45,1.45c1,1 1.5,2.167 1.5,3.5c0,1.333 -0.5,2.466 -1.5,3.4c-0.967,1 -2.116,1.5 -3.45,1.5c-1.399,0 -2.6,-0.5 -3.6,-1.5c-0.934,-0.934 -1.4,-2.066 -1.4,-3.4c0,-1.334 0.466,-2.5 1.4,-3.5zM248.8995,170.2c1.333,0 2.483,0.483 3.45,1.45c1,1 1.5,2.167 1.5,3.5c0,1.333 -0.5,2.466 -1.5,3.4c-0.967,1 -2.117,1.5 -3.45,1.5c-1.399,0 -2.6,-0.5 -3.6,-1.5c-0.934,-0.934 -1.4,-2.066 -1.4,-3.4c0,-1.334 0.467,-2.5 1.4,-3.5c1,-0.967 2.2,-1.45 3.6,-1.45zM246.3995,182.3c0.233,0.066 0.434,0.233 0.601,0.5v0.8c-0.4,0.9 -1.051,1.717 -1.95,2.45c-1.4,1.1 -3.084,1.65 -5.05,1.65c-2,0 -3.7,-0.55 -5.101,-1.65c-1,-0.733 -1.633,-1.583 -1.899,-2.55c-0.067,-0.267 -0.034,-0.517 0.1,-0.75c0.1,-0.267 0.283,-0.434 0.55,-0.5l0.851,0.1l0.448,0.55c0.2,0.6 0.601,1.133 1.2,1.6c1.033,0.8 2.316,1.2 3.851,1.2c1.466,0 2.732,-0.4 3.8,-1.2l1.3,-1.65c0.066,-0.267 0.233,-0.45 0.5,-0.55c0.266,-0.133 0.532,-0.133 0.799,0z" fill="#347e67"/><path d="M208.5495,204.1c-0.2,-8.366 3.649,-14.1 11.55,-17.2l0.3,-0.1v9.2c-4.667,-0.134 -6.95,2.533 -6.85,8c0,0.7 -0.233,1.3 -0.7,1.8c-0.467,0.5 -1.05,0.75 -1.75,0.75c-0.7,0 -1.3,-0.233 -1.8,-0.7c-0.467,-0.467 -0.717,-1.05 -0.75,-1.75zM270.6995,205.85c-0.5,0.467 -1.1,0.7 -1.8,0.7c-0.7,0 -1.283,-0.25 -1.75,-0.75c-0.467,-0.5 -0.7,-1.1 -0.7,-1.8c0.101,-5.467 -2.183,-8.134 -6.85,-8v-9.2l0.3,0.1c7.9,3.1 11.75,8.833 11.55,17.2c-0.034,0.7 -0.284,1.283 -0.75,1.75z" fill="#6fc4a9"/><path d="M239.9995,139.1c7.6,0 14.116,2.7 19.55,8.1c5.366,5.367 8.05,11.85 8.05,19.45c0,7.633 -2.684,14.15 -8.05,19.55c-5.434,5.367 -11.95,8.05 -19.55,8.05c-7.601,0 -14.084,-2.684 -19.45,-8.05c-5.434,-5.4 -8.15,-11.917 -8.15,-19.55c0,-7.6 2.717,-14.083 8.15,-19.45c5.366,-5.4 11.85,-8.1 19.45,-8.1zM244.7995,149.65c-1.867,1.833 -2.8,4.05 -2.8,6.65c0,2.6 0.933,4.816 2.8,6.65c1.833,1.833 4.05,2.75 6.649,2.75c2.601,0 4.817,-0.917 6.65,-2.75c1.833,-1.833 2.75,-4.05 2.75,-6.65c0,-2.6 -0.917,-4.816 -2.75,-6.65c-1.833,-1.867 -4.05,-2.8 -6.65,-2.8c-2.599,0 -4.816,0.933 -6.649,2.8z" fill="#ffffff" opacity="0.2"/><path d="M259.5495,147.2c-5.434,-5.4 -11.95,-8.1 -19.55,-8.1c-7.601,0 -14.084,2.7 -19.45,8.1c-5.434,5.367 -8.15,11.85 -8.15,19.45c0,7.633 2.717,14.15 8.15,19.55c5.366,5.367 11.85,8.05 19.45,8.05c7.6,0 14.116,-2.684 19.55,-8.05c5.366,-5.4 8.05,-11.917 8.05,-19.55c0,-7.6 -2.684,-14.083 -8.05,-19.45zM207.3995,166.65c0,-9 3.2,-16.667 9.601,-23c6.333,-6.367 14,-9.55 23,-9.55c9,0 16.699,3.184 23.1,9.55c6.333,6.333 9.5,14 9.5,23c0,9.033 -3.167,16.733 -9.5,23.1c-6.4,6.333 -14.1,9.5 -23.1,9.5c-9,0 -16.667,-3.167 -23,-9.5c-6.401,-6.367 -9.601,-14.067 -9.601,-23.1z" fill="#ffffff"/><path d="M241.9995,156.3c0,-2.6 0.933,-4.816 2.8,-6.65c1.833,-1.867 4.05,-2.8 6.649,-2.8c2.601,0 4.817,0.934 6.65,2.8c1.833,1.833 2.75,4.05 2.75,6.65c0,2.6 -0.917,4.816 -2.75,6.65c-1.833,1.834 -4.049,2.75 -6.649,2.75c-2.6,0 -4.816,-0.917 -6.649,-2.75c-1.868,-1.834 -2.801,-4.05 -2.801,-6.65z" fill="#ffffff" opacity="0.302"/><path d="M256.4495,203.45c-0.566,0.567 -1.25,0.85 -2.05,0.85c-0.8,0 -1.483,-0.283 -2.05,-0.85c-0.566,-0.566 -0.85,-1.25 -0.85,-2.05c0,-0.8 0.283,-1.483 0.85,-2.05c0.566,-0.566 1.25,-0.85 2.05,-0.85c0.8,0 1.483,0.283 2.05,0.85c0.567,0.567 0.851,1.25 0.851,2.05c-0.001,0.8 -0.284,1.483 -0.851,2.05zM252.9995,209.55c-0.4,0.4 -0.884,0.6 -1.45,0.6c-0.567,0 -1.05,-0.2 -1.45,-0.6c-0.4,-0.4 -0.6,-0.883 -0.6,-1.45c0,-0.566 0.199,-1.05 0.6,-1.45c0.401,-0.4 0.883,-0.6 1.45,-0.6c0.566,0 1.05,0.2 1.45,0.6c0.399,0.4 0.6,0.883 0.6,1.45c0,0.567 -0.2,1.05 -0.6,1.45zM242.6995,205.25c1.101,0 2.033,0.383 2.801,1.15c0.767,0.767 1.149,1.7 1.149,2.8c0,1.1 -0.383,2.034 -1.149,2.8c-0.768,0.767 -1.7,1.15 -2.801,1.15c-1.1,0 -2.033,-0.383 -2.8,-1.15c-0.767,-0.767 -1.15,-1.7 -1.15,-2.8c0,-1.1 0.383,-2.033 1.149,-2.8c0.766,-0.767 1.701,-1.15 2.801,-1.15z" fill="#8bcfba" opacity="0.502"/></g></g></g></svg>