<svg version="1.1" xmlns="http://www.w3.org/2000/svg" xmlns:xlink="http://www.w3.org/1999/xlink" width="67.13333" height="93.31452" viewBox="0,0,67.13333,93.31452"><g transform="translate(-206.43333,-133.34274)"><g data-paper-data="{&quot;isPaintingLayer&quot;:true}" fill-rule="nonzero" stroke="none" stroke-width="1" stroke-linecap="butt" stroke-linejoin="miter" stroke-miterlimit="10" stroke-dasharray="" stroke-dashoffset="0" style="mix-blend-mode: normal"><path d="M265.13333,217.79274c-0.43333,1.9 -1.23333,3.41667 -2.4,4.55c-1.46667,0.86667 -2.71667,0.75 -3.75,-0.35c-0.6,-6.03333 -3.98333,-10.06667 -10.15,-12.1c1.26667,-4.06667 3.8,-6.91667 7.6,-8.55c6.9,6.06667 9.8,11.55 8.7,16.45M219.78333,226.64274c-1.76667,-0.53333 -2.46667,-1.65 -2.1,-3.35c3.9,-4.36667 4.58333,-9.48333 2.05,-15.35c3.86667,-1.76667 7.68333,-1.76667 11.45,0c0.06667,9.2 -2.11667,15.01667 -6.55,17.45c-1.66667,0.93333 -3.28333,1.35 -4.85,1.25" fill="#6fc4a9"/><path d="M254.23333,147.74274c4.2,4.2 6.3,9.26667 6.3,15.2v40.4c0,3.63333 -2.1,6.73333 -6.3,9.3c-4.2,2.53333 -9.26667,3.8 -15.2,3.8c-5.93333,0 -11,-1.26667 -15.2,-3.8c-4.2,-2.56667 -6.3,-5.66667 -6.3,-9.3v-40.4c0,-5.93333 2.1,-11 6.3,-15.2c4.2,-4.2 9.26667,-6.3 15.2,-6.3c5.93333,0 11,2.1 15.2,6.3" fill="#6fc4a9"/><path d="M257.88333,174.39274c0,1.33333 -0.5,2.46667 -1.5,3.4c-0.96667,1 -2.11667,1.5 -3.45,1.5c-1.4,0 -2.6,-0.5 -3.6,-1.5c-0.93333,-0.93333 -1.4,-2.06667 -1.4,-3.4c0,-1.33333 0.46667,-2.5 1.4,-3.5c1,-0.96667 2.2,-1.45 3.6,-1.45c1.33333,0 2.48333,0.48333 3.45,1.45c1,1 1.5,2.16667 1.5,3.5M235.23333,169.44274c1.33333,0 2.48333,0.48333 3.45,1.45c1,1 1.5,2.16667 1.5,3.5c0,1.33333 -0.5,2.46667 -1.5,3.4c-0.96667,1 -2.11667,1.5 -3.45,1.5c-1.4,0 -2.6,-0.5 -3.6,-1.5c-0.93333,-0.93333 -1.4,-2.06667 -1.4,-3.4c0,-1.33333 0.46667,-2.5 1.4,-3.5c1,-0.96667 2.2,-1.45 3.6,-1.45" fill="#347e67"/><path d="M246.53333,184.94274c0,0.7 -0.25,1.28333 -0.75,1.75c-0.46667,0.5 -1.05,0.75 -1.75,0.75c-0.7,0 -1.3,-0.25 -1.8,-0.75c-0.46667,-0.46667 -0.7,-1.05 -0.7,-1.75c0,-0.7 0.23333,-1.3 0.7,-1.8c0.5,-0.46667 1.1,-0.7 1.8,-0.7c0.7,0 1.28333,0.23333 1.75,0.7c0.5,0.5 0.75,1.1 0.75,1.8" fill="#347e67"/><path d="M272.28333,184.69274c0.6,0.36667 1,0.86667 1.2,1.5c0.16667,0.63333 0.08333,1.26667 -0.25,1.9c-4,7.33333 -10.2,10.36667 -18.6,9.1l-0.3,-0.05l4.6,-8c3.96667,2.46667 7.28333,1.31667 9.95,-3.45c0.36667,-0.63333 0.86667,-1.05 1.5,-1.25c0.66667,-0.16667 1.3,-0.08333 1.9,0.25M219.43333,186.04274v9.2c-4.66667,-0.13333 -6.95,2.53333 -6.85,8c0,0.7 -0.23333,1.3 -0.7,1.8c-0.46667,0.5 -1.05,0.75 -1.75,0.75c-0.7,0 -1.3,-0.23333 -1.8,-0.7c-0.46667,-0.46667 -0.71667,-1.05 -0.75,-1.75c-0.2,-8.36667 3.65,-14.1 11.55,-17.2l0.3,-0.1" fill="#6fc4a9"/><path d="M266.63333,165.89274c0,-7.6 -2.68333,-14.08333 -8.05,-19.45c-5.43333,-5.4 -11.95,-8.1 -19.55,-8.1c-7.6,0 -14.08333,2.7 -19.45,8.1c-5.43333,5.36667 -8.15,11.85 -8.15,19.45c0,7.63333 2.71667,14.15 8.15,19.55c5.36667,5.36667 11.85,8.05 19.45,8.05c7.6,0 14.11667,-2.68333 19.55,-8.05c5.36667,-5.4 8.05,-11.91667 8.05,-19.55M262.13333,142.89274c6.33333,6.33333 9.5,14 9.5,23c0,9.03333 -3.16667,16.73333 -9.5,23.1c-6.4,6.33333 -14.1,9.5 -23.1,9.5c-9,0 -16.66667,-3.16667 -23,-9.5c-6.4,-6.36667 -9.6,-14.06667 -9.6,-23.1c0,-9 3.2,-16.66667 9.6,-23c6.33333,-6.36667 14,-9.55 23,-9.55c9,0 16.7,3.18333 23.1,9.55" fill="#ffffff"/><path d="M266.63333,165.89274c0,7.63333 -2.68333,14.15 -8.05,19.55c-5.43333,5.36667 -11.95,8.05 -19.55,8.05c-7.6,0 -14.08333,-2.68333 -19.45,-8.05c-5.43333,-5.4 -8.15,-11.91667 -8.15,-19.55c0,-7.6 2.71667,-14.08333 8.15,-19.45c5.36667,-5.4 11.85,-8.1 19.45,-8.1c7.6,0 14.11667,2.7 19.55,8.1c5.36667,5.36667 8.05,11.85 8.05,19.45M259.88333,155.54274c0,-2.6 -0.91667,-4.81667 -2.75,-6.65c-1.83333,-1.86667 -4.05,-2.8 -6.65,-2.8c-2.6,0 -4.81667,0.93333 -6.65,2.8c-1.86667,1.83333 -2.8,4.05 -2.8,6.65c0,2.6 0.93333,4.81667 2.8,6.65c1.83333,1.83333 4.05,2.75 6.65,2.75c2.6,0 4.81667,-0.91667 6.65,-2.75c1.83333,-1.83333 2.75,-4.05 2.75,-6.65" fill-opacity="0.2" fill="#ffffff"/><path d="M259.88333,155.54274c0,2.6 -0.91667,4.81667 -2.75,6.65c-1.83333,1.83333 -4.05,2.75 -6.65,2.75c-2.6,0 -4.81667,-0.91667 -6.65,-2.75c-1.86667,-1.83333 -2.8,-4.05 -2.8,-6.65c0,-2.6 0.93333,-4.81667 2.8,-6.65c1.83333,-1.86667 4.05,-2.8 6.65,-2.8c2.6,0 4.81667,0.93333 6.65,2.8c1.83333,1.83333 2.75,4.05 2.75,6.65" fill-opacity="0.30196" fill="#ffffff"/><path d="M237.78333,208.44274c0,-1.1 0.38333,-2.03333 1.15,-2.8c0.76667,-0.76667 1.7,-1.15 2.8,-1.15c1.1,0 2.03333,0.38333 2.8,1.15c0.76667,0.76667 1.15,1.7 1.15,2.8c0,1.1 -0.38333,2.03333 -1.15,2.8c-0.76667,0.76667 -1.7,1.15 -2.8,1.15c-1.1,0 -2.03333,-0.38333 -2.8,-1.15c-0.76667,-0.76667 -1.15,-1.7 -1.15,-2.8M248.53333,207.34274c0,-0.56667 0.2,-1.05 0.6,-1.45c0.4,-0.4 0.88333,-0.6 1.45,-0.6c0.56667,0 1.05,0.2 1.45,0.6c0.4,0.4 0.6,0.88333 0.6,1.45c0,0.56667 -0.2,1.05 -0.6,1.45c-0.4,0.4 -0.88333,0.6 -1.45,0.6c-0.56667,0 -1.05,-0.2 -1.45,-0.6c-0.4,-0.4 -0.6,-0.88333 -0.6,-1.45M255.48333,198.59274c0.56667,0.56667 0.85,1.25 0.85,2.05c0,0.8 -0.28333,1.48333 -0.85,2.05c-0.56667,0.56667 -1.25,0.85 -2.05,0.85c-0.8,0 -1.48333,-0.28333 -2.05,-0.85c-0.56667,-0.56667 -0.85,-1.25 -0.85,-2.05c0,-0.8 0.28333,-1.48333 0.85,-2.05c0.56667,-0.56667 1.25,-0.85 2.05,-0.85c0.8,0 1.48333,0.28333 2.05,0.85" fill-opacity="0.50196" fill="#8bcfba"/></g></g></svg>