<svg version="1.1" xmlns="http://www.w3.org/2000/svg" xmlns:xlink="http://www.w3.org/1999/xlink" width="65.2" height="91.8" viewBox="0,0,65.2,91.8"><g transform="translate(-207.4,-134.1)"><g data-paper-data="{&quot;isPaintingLayer&quot;:true}" fill-rule="nonzero" stroke="none" stroke-width="1" stroke-linecap="butt" stroke-linejoin="miter" stroke-miterlimit="10" stroke-dasharray="" stroke-dashoffset="0" style="mix-blend-mode: normal"><path d="M257.95,207.6l-1.35,18.3h-8.35l-2.2,-18.3c-0.13333,-1.8 0.3,-3.36667 1.3,-4.7c1.23333,-1.43333 2.75,-2.13333 4.55,-2.1c1.86667,-0.03333 3.38333,0.66667 4.55,2.1c1.2,1.33333 1.7,2.9 1.5,4.7M232.05,202.9c0.66667,1.33333 0.68333,2.9 0.05,4.7l-7.05,18.3h-8.35l3.5,-18.3c0.3,-1.8 1.21667,-3.36667 2.75,-4.7c1.53333,-1.43333 3.25,-2.13333 5.15,-2.1c1.76667,-0.03333 3.08333,0.66667 3.95,2.1" fill="#6fc4a9"/><path d="M255.2,148.5c4.2,4.2 6.3,9.26667 6.3,15.2v40.4c0,3.63333 -2.1,6.73333 -6.3,9.3c-4.2,2.53333 -9.26667,3.8 -15.2,3.8c-5.93333,0 -11,-1.26667 -15.2,-3.8c-4.2,-2.56667 -6.3,-5.66667 -6.3,-9.3v-40.4c0,-5.93333 2.1,-11 6.3,-15.2c4.2,-4.2 9.26667,-6.3 15.2,-6.3c5.93333,0 11,2.1 15.2,6.3" fill="#6fc4a9"/><path d="M257.35,171.65c1,1 1.5,2.16667 1.5,3.5c0,1.33333 -0.5,2.46667 -1.5,3.4c-0.96667,1 -2.11667,1.5 -3.45,1.5c-1.4,0 -2.6,-0.5 -3.6,-1.5c-0.93333,-0.93333 -1.4,-2.06667 -1.4,-3.4c0,-1.33333 0.46667,-2.5 1.4,-3.5c1,-0.96667 2.2,-1.45 3.6,-1.45c1.33333,0 2.48333,0.48333 3.45,1.45M252,183.6c-0.4,0.9 -1.05,1.71667 -1.95,2.45c-1.4,1.1 -3.08333,1.65 -5.05,1.65c-2,0 -3.7,-0.55 -5.1,-1.65c-1,-0.73333 -1.63333,-1.58333 -1.9,-2.55c-0.06667,-0.26667 -0.03333,-0.51667 0.1,-0.75c0.1,-0.26667 0.28333,-0.43333 0.55,-0.5l0.85,0.1l0.45,0.55c0.2,0.6 0.6,1.13333 1.2,1.6c1.03333,0.8 2.31667,1.2 3.85,1.2c1.46667,0 2.73333,-0.4 3.8,-1.2c0.6,-0.5 1.03333,-1.05 1.3,-1.65c0.06667,-0.26667 0.23333,-0.45 0.5,-0.55c0.26667,-0.13333 0.53333,-0.13333 0.8,0l0.6,0.5v0.8M241.15,175.15c0,1.33333 -0.5,2.46667 -1.5,3.4c-0.96667,1 -2.11667,1.5 -3.45,1.5c-1.4,0 -2.6,-0.5 -3.6,-1.5c-0.93333,-0.93333 -1.4,-2.06667 -1.4,-3.4c0,-1.33333 0.46667,-2.5 1.4,-3.5c1,-0.96667 2.2,-1.45 3.6,-1.45c1.33333,0 2.48333,0.48333 3.45,1.45c1,1 1.5,2.16667 1.5,3.5" fill="#347e67"/><path d="M256.6,186.8l0.3,0.1c7.9,3.1 11.75,8.83333 11.55,17.2c-0.03333,0.7 -0.28333,1.28333 -0.75,1.75c-0.5,0.46667 -1.1,0.7 -1.8,0.7c-0.7,0 -1.28333,-0.25 -1.75,-0.75c-0.46667,-0.5 -0.7,-1.1 -0.7,-1.8c0.1,-5.46667 -2.18333,-8.13333 -6.85,-8v-9.2M220.4,186.8v9.2c-4.66667,-0.13333 -6.95,2.53333 -6.85,8c0,0.7 -0.23333,1.3 -0.7,1.8c-0.46667,0.5 -1.05,0.75 -1.75,0.75c-0.7,0 -1.3,-0.23333 -1.8,-0.7c-0.46667,-0.46667 -0.71667,-1.05 -0.75,-1.75c-0.2,-8.36667 3.65,-14.1 11.55,-17.2l0.3,-0.1" fill="#6fc4a9"/><path d="M267.6,166.65c0,-7.6 -2.68333,-14.08333 -8.05,-19.45c-5.43333,-5.4 -11.95,-8.1 -19.55,-8.1c-7.6,0 -14.08333,2.7 -19.45,8.1c-5.43333,5.36667 -8.15,11.85 -8.15,19.45c0,7.63333 2.71667,14.15 8.15,19.55c5.36667,5.36667 11.85,8.05 19.45,8.05c7.6,0 14.11667,-2.68333 19.55,-8.05c5.36667,-5.4 8.05,-11.91667 8.05,-19.55M263.1,143.65c6.33333,6.33333 9.5,14 9.5,23c0,9.03333 -3.16667,16.73333 -9.5,23.1c-6.4,6.33333 -14.1,9.5 -23.1,9.5c-9,0 -16.66667,-3.16667 -23,-9.5c-6.4,-6.36667 -9.6,-14.06667 -9.6,-23.1c0,-9 3.2,-16.66667 9.6,-23c6.33333,-6.36667 14,-9.55 23,-9.55c9,0 16.7,3.18333 23.1,9.55" fill="#ffffff"/><path d="M267.6,166.65c0,7.63333 -2.68333,14.15 -8.05,19.55c-5.43333,5.36667 -11.95,8.05 -19.55,8.05c-7.6,0 -14.08333,-2.68333 -19.45,-8.05c-5.43333,-5.4 -8.15,-11.91667 -8.15,-19.55c0,-7.6 2.71667,-14.08333 8.15,-19.45c5.36667,-5.4 11.85,-8.1 19.45,-8.1c7.6,0 14.11667,2.7 19.55,8.1c5.36667,5.36667 8.05,11.85 8.05,19.45M260.85,156.3c0,-2.6 -0.91667,-4.81667 -2.75,-6.65c-1.83333,-1.86667 -4.05,-2.8 -6.65,-2.8c-2.6,0 -4.81667,0.93333 -6.65,2.8c-1.86667,1.83333 -2.8,4.05 -2.8,6.65c0,2.6 0.93333,4.81667 2.8,6.65c1.83333,1.83333 4.05,2.75 6.65,2.75c2.6,0 4.81667,-0.91667 6.65,-2.75c1.83333,-1.83333 2.75,-4.05 2.75,-6.65" fill-opacity="0.2" fill="#ffffff"/><path d="M260.85,156.3c0,2.6 -0.91667,4.81667 -2.75,6.65c-1.83333,1.83333 -4.05,2.75 -6.65,2.75c-2.6,0 -4.81667,-0.91667 -6.65,-2.75c-1.86667,-1.83333 -2.8,-4.05 -2.8,-6.65c0,-2.6 0.93333,-4.81667 2.8,-6.65c1.83333,-1.86667 4.05,-2.8 6.65,-2.8c2.6,0 4.81667,0.93333 6.65,2.8c1.83333,1.83333 2.75,4.05 2.75,6.65" fill-opacity="0.30196" fill="#ffffff"/><path d="M256.45,199.35c0.56667,0.56667 0.85,1.25 0.85,2.05c0,0.8 -0.28333,1.48333 -0.85,2.05c-0.56667,0.56667 -1.25,0.85 -2.05,0.85c-0.8,0 -1.48333,-0.28333 -2.05,-0.85c-0.56667,-0.56667 -0.85,-1.25 -0.85,-2.05c0,-0.8 0.28333,-1.48333 0.85,-2.05c0.56667,-0.56667 1.25,-0.85 2.05,-0.85c0.8,0 1.48333,0.28333 2.05,0.85M251.55,206.05c0.56667,0 1.05,0.2 1.45,0.6c0.4,0.4 0.6,0.88333 0.6,1.45c0,0.56667 -0.2,1.05 -0.6,1.45c-0.4,0.4 -0.88333,0.6 -1.45,0.6c-0.56667,0 -1.05,-0.2 -1.45,-0.6c-0.4,-0.4 -0.6,-0.88333 -0.6,-1.45c0,-0.56667 0.2,-1.05 0.6,-1.45c0.4,-0.4 0.88333,-0.6 1.45,-0.6M239.9,212c-0.76667,-0.76667 -1.15,-1.7 -1.15,-2.8c0,-1.1 0.38333,-2.03333 1.15,-2.8c0.76667,-0.76667 1.7,-1.15 2.8,-1.15c1.1,0 2.03333,0.38333 2.8,1.15c0.76667,0.76667 1.15,1.7 1.15,2.8c0,1.1 -0.38333,2.03333 -1.15,2.8c-0.76667,0.76667 -1.7,1.15 -2.8,1.15c-1.1,0 -2.03333,-0.38333 -2.8,-1.15" fill-opacity="0.50196" fill="#8bcfba"/></g></g></svg>