<svg version="1.1" xmlns="http://www.w3.org/2000/svg" xmlns:xlink="http://www.w3.org/1999/xlink" width="69.14047" height="96.42656" viewBox="0,0,69.14047,96.42656"><g transform="translate(-205.42976,-131.78672)"><g data-paper-data="{&quot;isPaintingLayer&quot;:true}" fill-rule="nonzero" stroke="none" stroke-width="1" stroke-linecap="butt" stroke-linejoin="miter" stroke-miterlimit="10" stroke-dasharray="" stroke-dashoffset="0" style="mix-blend-mode: normal"><path d="M255.0631,146.18672c4.2,4.2 6.3,9.26667 6.3,15.2v40.4c0,3.63333 -2.1,6.73333 -6.3,9.3c-4.2,2.53333 -9.26667,3.8 -15.2,3.8c-5.93333,0 -11,-1.26667 -15.2,-3.8c-4.2,-2.56667 -6.3,-5.66667 -6.3,-9.3v-40.4c0,-5.93333 2.1,-11 6.3,-15.2c4.2,-4.2 9.26667,-6.3 15.2,-6.3c5.93333,0 11,2.1 15.2,6.3" fill="#6fc4a9"/><path d="M241.0131,172.83672c0,1.33333 -0.5,2.46667 -1.5,3.4c-0.96667,1 -2.11667,1.5 -3.45,1.5c-1.4,0 -2.6,-0.5 -3.6,-1.5c-0.93333,-0.93333 -1.4,-2.06667 -1.4,-3.4c0,-1.33333 0.46667,-2.5 1.4,-3.5c1,-0.96667 2.2,-1.45 3.6,-1.45c1.33333,0 2.48333,0.48333 3.45,1.45c1,1 1.5,2.16667 1.5,3.5M238.5131,179.93672l0.85,0.1l0.45,0.55c0.2,0.6 0.6,1.13333 1.2,1.6c1.03333,0.8 2.31667,1.2 3.85,1.2c1.46667,0 2.73333,-0.4 3.8,-1.2l1.3,-1.65c0.06667,-0.26667 0.23333,-0.45 0.5,-0.55c0.26667,-0.13333 0.53333,-0.13333 0.8,0l0.6,0.5v0.8c-0.4,0.9 -1.05,1.71667 -1.95,2.45c-1.4,1.1 -3.08333,1.65 -5.05,1.65c-2,0 -3.7,-0.55 -5.1,-1.65c-1,-0.73333 -1.63333,-1.58333 -1.9,-2.55c-0.06667,-0.26667 -0.03333,-0.51667 0.1,-0.75c0.1,-0.26667 0.28333,-0.43333 0.55,-0.5M258.7131,172.83672c0,1.33333 -0.5,2.46667 -1.5,3.4c-0.96667,1 -2.11667,1.5 -3.45,1.5c-1.4,0 -2.6,-0.5 -3.6,-1.5c-0.93333,-0.93333 -1.4,-2.06667 -1.4,-3.4c0,-1.33333 0.46667,-2.5 1.4,-3.5c1,-0.96667 2.2,-1.45 3.6,-1.45c1.33333,0 2.48333,0.48333 3.45,1.45c1,1 1.5,2.16667 1.5,3.5" fill="#347e67"/><path d="M205.5131,191.03672c0.16667,-0.63333 0.53333,-1.13333 1.1,-1.5c7.13333,-4.33333 14.03333,-3.86667 20.7,1.4l0.2,0.2l-7.9,4.6c-2.23333,-4.1 -5.7,-4.73333 -10.4,-1.9l-1.9,0.25c-0.66667,-0.13333 -1.18333,-0.5 -1.55,-1.1c-0.33333,-0.63333 -0.41667,-1.28333 -0.25,-1.95M274.2131,192.93672c-0.36667,0.6 -0.9,0.98333 -1.6,1.15l-1.85,-0.25c-4.66667,-2.83333 -8.11667,-2.2 -10.35,1.9l-7.9,-4.6l0.2,-0.25c6.63333,-5.26667 13.5,-5.73333 20.6,-1.4c0.6,0.36667 1,0.88333 1.2,1.55c0.13333,0.63333 0.03333,1.26667 -0.3,1.9" fill="#6fc4a9"/><path d="M260.7131,153.98672c0,-2.6 -0.91667,-4.81667 -2.75,-6.65c-1.83333,-1.86667 -4.05,-2.8 -6.65,-2.8c-2.6,0 -4.81667,0.93333 -6.65,2.8c-1.86667,1.83333 -2.8,4.05 -2.8,6.65c0,2.6 0.93333,4.81667 2.8,6.65c1.83333,1.83333 4.05,2.75 6.65,2.75c2.6,0 4.81667,-0.91667 6.65,-2.75c1.83333,-1.83333 2.75,-4.05 2.75,-6.65M259.4131,144.88672c5.36667,5.36667 8.05,11.85 8.05,19.45c0,7.63333 -2.68333,14.15 -8.05,19.55c-5.43333,5.36667 -11.95,8.05 -19.55,8.05c-7.6,0 -14.08333,-2.68333 -19.45,-8.05c-5.43333,-5.4 -8.15,-11.91667 -8.15,-19.55c0,-7.6 2.71667,-14.08333 8.15,-19.45c5.36667,-5.4 11.85,-8.1 19.45,-8.1c7.6,0 14.11667,2.7 19.55,8.1" fill-opacity="0.2" fill="#ffffff"/><path d="M260.7131,153.98672c0,2.6 -0.91667,4.81667 -2.75,6.65c-1.83333,1.83333 -4.05,2.75 -6.65,2.75c-2.6,0 -4.81667,-0.91667 -6.65,-2.75c-1.86667,-1.83333 -2.8,-4.05 -2.8,-6.65c0,-2.6 0.93333,-4.81667 2.8,-6.65c1.83333,-1.86667 4.05,-2.8 6.65,-2.8c2.6,0 4.81667,0.93333 6.65,2.8c1.83333,1.83333 2.75,4.05 2.75,6.65" fill-opacity="0.30196" fill="#ffffff"/><path d="M259.4131,144.88672c-5.43333,-5.4 -11.95,-8.1 -19.55,-8.1c-7.6,0 -14.08333,2.7 -19.45,8.1c-5.43333,5.36667 -8.15,11.85 -8.15,19.45c0,7.63333 2.71667,14.15 8.15,19.55c5.36667,5.36667 11.85,8.05 19.45,8.05c7.6,0 14.11667,-2.68333 19.55,-8.05c5.36667,-5.4 8.05,-11.91667 8.05,-19.55c0,-7.6 -2.68333,-14.08333 -8.05,-19.45M262.9631,141.33672c6.33333,6.33333 9.5,14 9.5,23c0,9.03333 -3.16667,16.73333 -9.5,23.1c-6.4,6.33333 -14.1,9.5 -23.1,9.5c-9,0 -16.66667,-3.16667 -23,-9.5c-6.4,-6.36667 -9.6,-14.06667 -9.6,-23.1c0,-9 3.2,-16.66667 9.6,-23c6.33333,-6.36667 14,-9.55 23,-9.55c9,0 16.7,3.18333 23.1,9.55" fill="#ffffff"/><path d="M220.2631,222.73672c-1.56667,-0.63333 -2.21667,-1.7 -1.95,-3.2c4.43333,-4.16667 5.56667,-9.31667 3.4,-15.45c4,-1.43333 7.78333,-1.15 11.35,0.85c-0.56667,9.16667 -3.13333,14.8 -7.7,16.9c-1.76667,0.83333 -3.46667,1.13333 -5.1,0.9" fill="#6fc4a9"/><path d="M242.9631,228.13672c-1.56667,-0.63333 -2.21667,-1.7 -1.95,-3.2c4.43333,-4.16667 5.56667,-9.31667 3.4,-15.45c4,-1.43333 7.78333,-1.15 11.35,0.85c-0.56667,9.16667 -3.13333,14.8 -7.7,16.9c-1.76667,0.83333 -3.46667,1.13333 -5.1,0.9" fill="#6fc4a9"/><path d="M256.2631,196.18672c0.8,0 1.48333,0.28333 2.05,0.85c0.56667,0.56667 0.85,1.25 0.85,2.05c0,0.8 -0.28333,1.48333 -0.85,2.05c-0.56667,0.56667 -1.25,0.85 -2.05,0.85c-0.8,0 -1.48333,-0.28333 -2.05,-0.85c-0.56667,-0.56667 -0.85,-1.25 -0.85,-2.05c0,-0.8 0.28333,-1.48333 0.85,-2.05c0.56667,-0.56667 1.25,-0.85 2.05,-0.85M253.4131,203.73672c0.56667,0 1.05,0.2 1.45,0.6c0.4,0.4 0.6,0.88333 0.6,1.45c0,0.56667 -0.2,1.05 -0.6,1.45c-0.4,0.4 -0.88333,0.6 -1.45,0.6c-0.56667,0 -1.05,-0.2 -1.45,-0.6c-0.4,-0.4 -0.6,-0.88333 -0.6,-1.45c0,-0.56667 0.2,-1.05 0.6,-1.45c0.4,-0.4 0.88333,-0.6 1.45,-0.6M247.3631,209.68672c-0.76667,0.76667 -1.7,1.15 -2.8,1.15c-1.1,0 -2.03333,-0.38333 -2.8,-1.15c-0.76667,-0.76667 -1.15,-1.7 -1.15,-2.8c0,-1.1 0.38333,-2.03333 1.15,-2.8c0.76667,-0.76667 1.7,-1.15 2.8,-1.15c1.1,0 2.03333,0.38333 2.8,1.15c0.76667,0.76667 1.15,1.7 1.15,2.8c0,1.1 -0.38333,2.03333 -1.15,2.8" fill-opacity="0.50196" fill="#8bcfba"/></g></g></svg>