<svg version="1.1" xmlns="http://www.w3.org/2000/svg" xmlns:xlink="http://www.w3.org/1999/xlink" width="66.95588" height="92.8" viewBox="0,0,66.95588,92.8"><g transform="translate(-206.52206,-133.6)"><g data-paper-data="{&quot;isPaintingLayer&quot;:true}" fill-rule="nonzero" stroke="none" stroke-width="1" stroke-linecap="butt" stroke-linejoin="miter" stroke-miterlimit="10" stroke-dasharray="" stroke-dashoffset="0" style="mix-blend-mode: normal"><path d="M247.32794,215.55c0.4,-4.26667 2.3,-7.56667 5.7,-9.9c8,4.53333 11.96667,9.31667 11.9,14.35c-0.03333,1.93333 -0.5,3.55 -1.4,4.85l-3.95,0.1c-1.8,-5.53333 -5.88333,-8.66667 -12.25,-9.4" fill="#6fc4a9"/><path d="M219.17794,223.05c4.93333,-3.56667 6.75,-8.5 5.45,-14.8c4.13333,-0.93333 7.86667,-0.18333 11.2,2.25c-1.8,9 -5.1,14.25 -9.9,15.75l-5.15,0.15c-1.46667,-0.8 -2,-1.91667 -1.6,-3.35" fill="#6fc4a9"/><path d="M256.27794,186.45h0.3c8.43333,0.96667 13.63333,5.51667 15.6,13.65c0.16667,0.7 0.06667,1.31667 -0.3,1.85c-0.33333,0.6 -0.85,1 -1.55,1.2c-0.66667,0.16667 -1.28333,0.06667 -1.85,-0.3c-0.6,-0.36667 -0.98333,-0.88333 -1.15,-1.55c-1.33333,-5.3 -4.23333,-7.28333 -8.7,-5.95l-2.35,-8.9M222.47794,186.45l-2.35,8.9c-4.46667,-1.33333 -7.36667,0.65 -8.7,5.95c-0.16667,0.66667 -0.53333,1.18333 -1.1,1.55c-0.6,0.36667 -1.23333,0.46667 -1.9,0.3c-0.66667,-0.2 -1.18333,-0.6 -1.55,-1.2c-0.36667,-0.53333 -0.45,-1.16667 -0.25,-1.9c1.96667,-8.1 7.16667,-12.63333 15.6,-13.6h0.25" fill="#6fc4a9"/><path d="M256.07794,148c4.2,4.2 6.3,9.26667 6.3,15.2v40.4c0,3.63333 -2.1,6.73333 -6.3,9.3c-4.2,2.53333 -9.26667,3.8 -15.2,3.8c-5.93333,0 -11,-1.26667 -15.2,-3.8c-4.2,-2.56667 -6.3,-5.66667 -6.3,-9.3v-40.4c0,-5.93333 2.1,-11 6.3,-15.2c4.2,-4.2 9.26667,-6.3 15.2,-6.3c5.93333,0 11,2.1 15.2,6.3" fill="#6fc4a9"/><path d="M259.72794,174.65c0,1.33333 -0.5,2.46667 -1.5,3.4c-0.96667,1 -2.11667,1.5 -3.45,1.5c-1.4,0 -2.6,-0.5 -3.6,-1.5c-0.93333,-0.93333 -1.4,-2.06667 -1.4,-3.4c0,-1.33333 0.46667,-2.5 1.4,-3.5c1,-0.96667 2.2,-1.45 3.6,-1.45c1.33333,0 2.48333,0.48333 3.45,1.45c1,1 1.5,2.16667 1.5,3.5M245.87794,185.2c1.46667,0 2.73333,-0.4 3.8,-1.2c0.6,-0.5 1.03333,-1.05 1.3,-1.65l0.5,-0.55c0.26667,-0.13333 0.53333,-0.13333 0.8,0l0.6,0.5v0.8c-0.4,0.9 -1.05,1.71667 -1.95,2.45c-1.4,1.1 -3.08333,1.65 -5.05,1.65c-2,0 -3.7,-0.55 -5.1,-1.65c-1,-0.73333 -1.63333,-1.58333 -1.9,-2.55c-0.06667,-0.26667 -0.03333,-0.51667 0.1,-0.75c0.1,-0.26667 0.28333,-0.43333 0.55,-0.5l0.85,0.1l0.45,0.55c0.2,0.6 0.6,1.13333 1.2,1.6c1.03333,0.8 2.31667,1.2 3.85,1.2M237.07794,169.7c1.33333,0 2.48333,0.48333 3.45,1.45c1,1 1.5,2.16667 1.5,3.5c0,1.33333 -0.5,2.46667 -1.5,3.4c-0.96667,1 -2.11667,1.5 -3.45,1.5c-1.4,0 -2.6,-0.5 -3.6,-1.5c-0.93333,-0.93333 -1.4,-2.06667 -1.4,-3.4c0,-1.33333 0.46667,-2.5 1.4,-3.5c1,-0.96667 2.2,-1.45 3.6,-1.45" fill="#347e67"/><path d="M253.22794,198.85c0.56667,-0.56667 1.25,-0.85 2.05,-0.85c0.8,0 1.48333,0.28333 2.05,0.85c0.56667,0.56667 0.85,1.25 0.85,2.05c0,0.8 -0.28333,1.48333 -0.85,2.05c-0.56667,0.56667 -1.25,0.85 -2.05,0.85c-0.8,0 -1.48333,-0.28333 -2.05,-0.85c-0.56667,-0.56667 -0.85,-1.25 -0.85,-2.05c0,-0.8 0.28333,-1.48333 0.85,-2.05M243.57794,212.65c-1.1,0 -2.03333,-0.38333 -2.8,-1.15c-0.76667,-0.76667 -1.15,-1.7 -1.15,-2.8c0,-1.1 0.38333,-2.03333 1.15,-2.8c0.76667,-0.76667 1.7,-1.15 2.8,-1.15c1.1,0 2.03333,0.38333 2.8,1.15c0.76667,0.76667 1.15,1.7 1.15,2.8c0,1.1 -0.38333,2.03333 -1.15,2.8c-0.76667,0.76667 -1.7,1.15 -2.8,1.15M250.37794,207.6c0,-0.56667 0.2,-1.05 0.6,-1.45c0.4,-0.4 0.88333,-0.6 1.45,-0.6c0.56667,0 1.05,0.2 1.45,0.6c0.4,0.4 0.6,0.88333 0.6,1.45c0,0.56667 -0.2,1.05 -0.6,1.45c-0.4,0.4 -0.88333,0.6 -1.45,0.6c-0.56667,0 -1.05,-0.2 -1.45,-0.6c-0.4,-0.4 -0.6,-0.88333 -0.6,-1.45" fill-opacity="0.50196" fill="#8bcfba"/><path d="M258.97794,149.15c-1.83333,-1.86667 -4.05,-2.8 -6.65,-2.8c-2.6,0 -4.81667,0.93333 -6.65,2.8c-1.86667,1.83333 -2.8,4.05 -2.8,6.65c0,2.6 0.93333,4.81667 2.8,6.65c1.83333,1.83333 4.05,2.75 6.65,2.75c2.6,0 4.81667,-0.91667 6.65,-2.75c1.83333,-1.83333 2.75,-4.05 2.75,-6.65c0,-2.6 -0.91667,-4.81667 -2.75,-6.65M260.42794,185.7c-5.43333,5.36667 -11.95,8.05 -19.55,8.05c-7.6,0 -14.08333,-2.68333 -19.45,-8.05c-5.43333,-5.4 -8.15,-11.91667 -8.15,-19.55c0,-7.6 2.71667,-14.08333 8.15,-19.45c5.36667,-5.4 11.85,-8.1 19.45,-8.1c7.6,0 14.11667,2.7 19.55,8.1c5.36667,5.36667 8.05,11.85 8.05,19.45c0,7.63333 -2.68333,14.15 -8.05,19.55" fill-opacity="0.2" fill="#ffffff"/><path d="M258.97794,149.15c1.83333,1.83333 2.75,4.05 2.75,6.65c0,2.6 -0.91667,4.81667 -2.75,6.65c-1.83333,1.83333 -4.05,2.75 -6.65,2.75c-2.6,0 -4.81667,-0.91667 -6.65,-2.75c-1.86667,-1.83333 -2.8,-4.05 -2.8,-6.65c0,-2.6 0.93333,-4.81667 2.8,-6.65c1.83333,-1.86667 4.05,-2.8 6.65,-2.8c2.6,0 4.81667,0.93333 6.65,2.8" fill-opacity="0.30196" fill="#ffffff"/><path d="M273.47794,166.15c0,9.03333 -3.16667,16.73333 -9.5,23.1c-6.4,6.33333 -14.1,9.5 -23.1,9.5c-9,0 -16.66667,-3.16667 -23,-9.5c-6.4,-6.36667 -9.6,-14.06667 -9.6,-23.1c0,-9 3.2,-16.66667 9.6,-23c6.33333,-6.36667 14,-9.55 23,-9.55c9,0 16.7,3.18333 23.1,9.55c6.33333,6.33333 9.5,14 9.5,23M260.42794,185.7c5.36667,-5.4 8.05,-11.91667 8.05,-19.55c0,-7.6 -2.68333,-14.08333 -8.05,-19.45c-5.43333,-5.4 -11.95,-8.1 -19.55,-8.1c-7.6,0 -14.08333,2.7 -19.45,8.1c-5.43333,5.36667 -8.15,11.85 -8.15,19.45c0,7.63333 2.71667,14.15 8.15,19.55c5.36667,5.36667 11.85,8.05 19.45,8.05c7.6,0 14.11667,-2.68333 19.55,-8.05" fill="#ffffff"/></g></g></svg>