<svg version="1.1" xmlns="http://www.w3.org/2000/svg" xmlns:xlink="http://www.w3.org/1999/xlink" width="69.94199" height="95.63413" viewBox="0,0,69.94199,95.63413"><g transform="translate(-205.029,-132.18294)"><g data-paper-data="{&quot;isPaintingLayer&quot;:true}" fill-rule="nonzero" stroke="none" stroke-width="1" stroke-linecap="butt" stroke-linejoin="miter" stroke-miterlimit="10" stroke-dasharray="" stroke-dashoffset="0" style="mix-blend-mode: normal"><path d="M226.38489,211.53294c2.5,-3.46667 5.8,-5.38333 9.9,-5.75c4.66667,7.93333 5.7,14.08333 3.1,18.45c-1,1.63333 -2.2,2.78333 -3.6,3.45c-1.8,0.43333 -2.95,-0.18333 -3.45,-1.85c1.16667,-5.7 -0.81667,-10.46667 -5.95,-14.3" fill="#6fc4a9"/><path d="M243.93489,226.53294c-1.63333,-0.4 -2.43333,-1.36667 -2.4,-2.9c3.86667,-4.66667 4.33333,-9.9 1.4,-15.7c3.8,-1.93333 7.6,-2.18333 11.4,-0.75c0.6,9.2 -1.21667,15.15 -5.45,17.85c-1.63333,1.06667 -3.28333,1.56667 -4.95,1.5" fill="#6fc4a9"/><path d="M255.78489,185.48294l0.25,-0.05c8.4,-1.26667 14.6,1.78333 18.6,9.15c0.36667,0.6 0.43333,1.21667 0.2,1.85c-0.16667,0.66667 -0.56667,1.18333 -1.2,1.55l-1.85,0.2c-0.66667,-0.16667 -1.16667,-0.56667 -1.5,-1.2c-2.7,-4.76667 -6.01667,-5.93333 -9.95,-3.5l-4.55,-8M224.23489,185.48294l-4.6,8c-3.93333,-2.43333 -7.25,-1.26667 -9.95,3.5c-0.33333,0.6 -0.81667,1 -1.45,1.2l-1.9,-0.2c-0.6,-0.36667 -1,-0.88333 -1.2,-1.55c-0.2,-0.63333 -0.11667,-1.26667 0.25,-1.9c4,-7.33333 10.2,-10.36667 18.6,-9.1l0.25,0.05" fill="#6fc4a9"/><path d="M256.68489,146.58294c4.2,4.2 6.3,9.26667 6.3,15.2v40.4c0,3.63333 -2.1,6.73333 -6.3,9.3c-4.2,2.53333 -9.26667,3.8 -15.2,3.8c-5.93333,0 -11,-1.26667 -15.2,-3.8c-4.2,-2.56667 -6.3,-5.66667 -6.3,-9.3v-40.4c0,-5.93333 2.1,-11 6.3,-15.2c4.2,-4.2 9.26667,-6.3 15.2,-6.3c5.93333,0 11,2.1 15.2,6.3" fill="#6fc4a9"/><path d="M250.38489,173.23294c0,-1.33333 0.46667,-2.5 1.4,-3.5c1,-0.96667 2.2,-1.45 3.6,-1.45c1.33333,0 2.48333,0.48333 3.45,1.45c1,1 1.5,2.16667 1.5,3.5c0,1.33333 -0.5,2.46667 -1.5,3.4c-0.96667,1 -2.11667,1.5 -3.45,1.5c-1.4,0 -2.6,-0.5 -3.6,-1.5c-0.93333,-0.93333 -1.4,-2.06667 -1.4,-3.4M242.63489,173.23294c0,1.33333 -0.5,2.46667 -1.5,3.4c-0.96667,1 -2.11667,1.5 -3.45,1.5c-1.4,0 -2.6,-0.5 -3.6,-1.5c-0.93333,-0.93333 -1.4,-2.06667 -1.4,-3.4c0,-1.33333 0.46667,-2.5 1.4,-3.5c1,-0.96667 2.2,-1.45 3.6,-1.45c1.33333,0 2.48333,0.48333 3.45,1.45c1,1 1.5,2.16667 1.5,3.5M239.58489,180.83294c0.1,-0.26667 0.28333,-0.43333 0.55,-0.5l0.85,0.1l0.45,0.55c0.2,0.6 0.6,1.13333 1.2,1.6c1.03333,0.8 2.31667,1.2 3.85,1.2c1.46667,0 2.73333,-0.4 3.8,-1.2c0.6,-0.5 1.03333,-1.05 1.3,-1.65c0.06667,-0.26667 0.23333,-0.45 0.5,-0.55c0.26667,-0.13333 0.53333,-0.13333 0.8,0c0.23333,0.06667 0.43333,0.23333 0.6,0.5v0.8c-0.4,0.9 -1.05,1.71667 -1.95,2.45c-1.4,1.1 -3.08333,1.65 -5.05,1.65c-2,0 -3.7,-0.55 -5.1,-1.65c-1,-0.73333 -1.63333,-1.58333 -1.9,-2.55c-0.06667,-0.26667 -0.03333,-0.51667 0.1,-0.75" fill="#347e67"/><path d="M252.98489,199.48294c0,-0.8 0.28333,-1.48333 0.85,-2.05c0.56667,-0.56667 1.25,-0.85 2.05,-0.85c0.8,0 1.48333,0.28333 2.05,0.85c0.56667,0.56667 0.85,1.25 0.85,2.05c0,0.8 -0.28333,1.48333 -0.85,2.05c-0.56667,0.56667 -1.25,0.85 -2.05,0.85c-0.8,0 -1.48333,-0.28333 -2.05,-0.85c-0.56667,-0.56667 -0.85,-1.25 -0.85,-2.05M241.38489,204.48294c0.76667,-0.76667 1.7,-1.15 2.8,-1.15c1.1,0 2.03333,0.38333 2.8,1.15c0.76667,0.76667 1.15,1.7 1.15,2.8c0,1.1 -0.38333,2.03333 -1.15,2.8c-0.76667,0.76667 -1.7,1.15 -2.8,1.15c-1.1,0 -2.03333,-0.38333 -2.8,-1.15c-0.76667,-0.76667 -1.15,-1.7 -1.15,-2.8c0,-1.1 0.38333,-2.03333 1.15,-2.8M254.48489,204.73294c0.4,0.4 0.6,0.88333 0.6,1.45c0,0.56667 -0.2,1.05 -0.6,1.45c-0.4,0.4 -0.88333,0.6 -1.45,0.6c-0.56667,0 -1.05,-0.2 -1.45,-0.6c-0.4,-0.4 -0.6,-0.88333 -0.6,-1.45c0,-0.56667 0.2,-1.05 0.6,-1.45c0.4,-0.4 0.88333,-0.6 1.45,-0.6c0.56667,0 1.05,0.2 1.45,0.6" fill-opacity="0.50196" fill="#8bcfba"/><path d="M264.58489,141.73294c6.33333,6.33333 9.5,14 9.5,23c0,9.03333 -3.16667,16.73333 -9.5,23.1c-6.4,6.33333 -14.1,9.5 -23.1,9.5c-9,0 -16.66667,-3.16667 -23,-9.5c-6.4,-6.36667 -9.6,-14.06667 -9.6,-23.1c0,-9 3.2,-16.66667 9.6,-23c6.33333,-6.36667 14,-9.55 23,-9.55c9,0 16.7,3.18333 23.1,9.55M269.08489,164.73294c0,-7.6 -2.68333,-14.08333 -8.05,-19.45c-5.43333,-5.4 -11.95,-8.1 -19.55,-8.1c-7.6,0 -14.08333,2.7 -19.45,8.1c-5.43333,5.36667 -8.15,11.85 -8.15,19.45c0,7.63333 2.71667,14.15 8.15,19.55c5.36667,5.36667 11.85,8.05 19.45,8.05c7.6,0 14.11667,-2.68333 19.55,-8.05c5.36667,-5.4 8.05,-11.91667 8.05,-19.55" fill="#ffffff"/><path d="M269.08489,164.73294c0,7.63333 -2.68333,14.15 -8.05,19.55c-5.43333,5.36667 -11.95,8.05 -19.55,8.05c-7.6,0 -14.08333,-2.68333 -19.45,-8.05c-5.43333,-5.4 -8.15,-11.91667 -8.15,-19.55c0,-7.6 2.71667,-14.08333 8.15,-19.45c5.36667,-5.4 11.85,-8.1 19.45,-8.1c7.6,0 14.11667,2.7 19.55,8.1c5.36667,5.36667 8.05,11.85 8.05,19.45M259.58489,161.03294c1.83333,-1.83333 2.75,-4.05 2.75,-6.65c0,-2.6 -0.91667,-4.81667 -2.75,-6.65c-1.83333,-1.86667 -4.05,-2.8 -6.65,-2.8c-2.6,0 -4.81667,0.93333 -6.65,2.8c-1.86667,1.83333 -2.8,4.05 -2.8,6.65c0,2.6 0.93333,4.81667 2.8,6.65c1.83333,1.83333 4.05,2.75 6.65,2.75c2.6,0 4.81667,-0.91667 6.65,-2.75" fill-opacity="0.2" fill="#ffffff"/><path d="M259.58489,161.03294c-1.83333,1.83333 -4.05,2.75 -6.65,2.75c-2.6,0 -4.81667,-0.91667 -6.65,-2.75c-1.86667,-1.83333 -2.8,-4.05 -2.8,-6.65c0,-2.6 0.93333,-4.81667 2.8,-6.65c1.83333,-1.86667 4.05,-2.8 6.65,-2.8c2.6,0 4.81667,0.93333 6.65,2.8c1.83333,1.83333 2.75,4.05 2.75,6.65c0,2.6 -0.91667,4.81667 -2.75,6.65" fill-opacity="0.30196" fill="#ffffff"/></g></g></svg>