<svg version="1.1" xmlns="http://www.w3.org/2000/svg" xmlns:xlink="http://www.w3.org/1999/xlink" width="22.26001" height="21.73305" viewBox="0,0,22.26001,21.73305"><g transform="translate(-228.87,-169.13347)"><g data-paper-data="{&quot;isPaintingLayer&quot;:true}" fill-rule="nonzero" stroke="none" stroke-width="1" stroke-linecap="butt" stroke-linejoin="miter" stroke-miterlimit="10" stroke-dasharray="" stroke-dashoffset="0" style="mix-blend-mode: normal"><path d="M242.40308,170.58798c0.19674,0.37943 0.29511,0.794 0.29511,1.24369c0,0.74481 -0.26701,1.3772 -0.80102,1.89716c-0.39349,0.40754 -0.85021,0.66049 -1.37017,0.75886l-0.52699,0.04216c-0.63239,0 -1.18748,-0.18972 -1.66529,-0.56915l-0.25295,-0.23188c-0.51996,-0.51996 -0.77994,-1.15235 -0.77994,-1.89716v-0.14756c0.04216,-0.6886 0.30214,-1.27883 0.77994,-1.77068c0.53402,-0.51996 1.17343,-0.77994 1.91824,-0.77994c0.74481,0 1.3772,0.25998 1.89716,0.77994l0.50591,0.67455M238.73523,170.16639c-0.33727,0.32322 -0.49888,0.73076 -0.48483,1.22262v0.02108c0,0.50591 0.16161,0.93453 0.48483,1.28585l0.02108,0.02108c0.35133,0.32322 0.77994,0.48483 1.28585,0.48483h0.06324c0.46375,0.01405 0.86426,-0.14053 1.20154,-0.46375v-0.02108c0.33727,-0.35133 0.51294,-0.76589 0.52699,-1.24369v-0.06324l-0.14756,-0.69563l-0.37943,-0.54807c-0.36538,-0.35133 -0.78697,-0.53402 -1.26477,-0.54807h-0.02108c-0.49186,0.01405 -0.92047,0.19674 -1.28585,0.54807M244.91155,172.59054c0.29511,-0.19674 0.64644,-0.29511 1.05398,-0.29511c0.54807,0.01405 1.01885,0.2108 1.41233,0.59023c0.37943,0.39349 0.57617,0.86426 0.59023,1.41233c0,0.39349 -0.09134,0.75184 -0.27403,1.07506l-0.29511,0.35835c-0.40754,0.39349 -0.88534,0.5832 -1.43341,0.56915l-0.77994,-0.14756l-0.63239,-0.42159c-0.2389,-0.2389 -0.40754,-0.51294 -0.50591,-0.8221l-0.08432,-0.61131c-0.01405,-0.54807 0.18269,-1.02587 0.59023,-1.43341l0.35835,-0.27403M248.51615,177.56532c0.70265,0.01405 1.31396,0.27403 1.83392,0.77994c0.51996,0.53402 0.77994,1.17343 0.77994,1.91824c0,0.74481 -0.25998,1.3772 -0.77994,1.89716l-0.80102,0.56915l-1.11722,0.23188c-0.74481,0 -1.3772,-0.26701 -1.89716,-0.80102c-0.42159,-0.40754 -0.67455,-0.87832 -0.75886,-1.41233l-0.04216,-0.48483c0,-0.60428 0.17566,-1.1383 0.52699,-1.60205l0.27403,-0.31619c0.39349,-0.39349 0.85724,-0.63941 1.39125,-0.73778l0.50591,-0.04216h0.08432M247.42002,185.2172c0.19674,0.28106 0.29511,0.61833 0.29511,1.01182c-0.01405,0.4778 -0.18972,0.88534 -0.52699,1.22262c-0.33727,0.33727 -0.74481,0.51294 -1.22262,0.52699c-0.50591,0 -0.92047,-0.16864 -1.24369,-0.50591c-0.35133,-0.35133 -0.51996,-0.76589 -0.50591,-1.24369l0.02108,-0.29511c0.05621,-0.37943 0.21782,-0.69563 0.48483,-0.94858c0.19674,-0.2108 0.42862,-0.35133 0.69563,-0.42159l0.54807,-0.08432c0.4778,-0.01405 0.89237,0.15458 1.24369,0.50591l0.2108,0.23188M242.15012,188.33698l0.02108,0.35835c0,0.60428 -0.21782,1.11019 -0.65347,1.51773c-0.40754,0.43564 -0.91345,0.65347 -1.51773,0.65347c-0.60428,0 -1.11722,-0.21782 -1.53881,-0.65347c-0.28106,-0.26701 -0.46375,-0.5832 -0.54807,-0.94858l-0.08432,-0.56915c0,-0.60428 0.2108,-1.11722 0.63239,-1.53881c0.2108,-0.2108 0.44267,-0.36538 0.69563,-0.46375l0.84318,-0.16864c0.60428,0 1.11019,0.2108 1.51773,0.63239l0.06324,0.06324c0.30917,0.32322 0.49888,0.69563 0.56915,1.11722M235.99489,188.84289c-0.56212,0.42159 -1.20856,0.62536 -1.93932,0.61131c-0.91345,0 -1.68637,-0.30917 -2.31875,-0.9275c-0.61833,-0.63239 -0.9275,-1.4053 -0.9275,-2.31875c0,-0.2389 0.02108,-0.47078 0.06324,-0.69563c0.11242,-0.59023 0.39349,-1.11722 0.84318,-1.58097c0.29511,-0.29511 0.61833,-0.51996 0.96966,-0.67455c0.42159,-0.19674 0.87832,-0.29511 1.37017,-0.29511c0.71671,0.01405 1.35612,0.23188 1.91824,0.65347l0.35835,0.31619c0.43564,0.43564 0.72373,0.93453 0.86426,1.49665l0.1054,0.77994c0,0.91345 -0.32322,1.69339 -0.96966,2.33983l-0.33727,0.29511M230.24017,182.60334l-0.56915,-0.44267c-0.53402,-0.51996 -0.80102,-1.15235 -0.80102,-1.89716c0,-0.74481 0.26701,-1.38423 0.80102,-1.91824l0.63239,-0.46375c0.37943,-0.2108 0.80102,-0.31619 1.26477,-0.31619c0.40754,0 0.77994,0.07729 1.11722,0.23188c0.29511,0.12648 0.56212,0.30917 0.80102,0.54807c0.2389,0.2389 0.42159,0.50591 0.54807,0.80102l0.16864,0.46375l0.06324,0.65347l-0.04216,0.52699l-0.23188,0.67455l-0.50591,0.69563l-0.80102,0.56915l-1.11722,0.23188c-0.49186,0 -0.93453,-0.11945 -1.32801,-0.35835M232.28489,175.22549c-0.14053,-0.26701 -0.20377,-0.56915 -0.18972,-0.90642c0,-0.54807 0.18972,-1.01182 0.56915,-1.39125c0.37943,-0.37943 0.84318,-0.56915 1.39125,-0.56915c0.36538,-0.01405 0.69563,0.07027 0.99074,0.25295l0.40051,0.29511c0.37943,0.39349 0.56915,0.86426 0.56915,1.41233l-0.1054,0.63239c-0.09837,0.28106 -0.25295,0.53402 -0.46375,0.75886l-0.73778,0.46375l-0.65347,0.1054c-0.54807,0 -1.01885,-0.18972 -1.41233,-0.56915l-0.35835,-0.48483M232.89619,173.30725c-0.26701,0.25295 -0.39349,0.57617 -0.37943,0.96966c0,0.35133 0.09134,0.65347 0.27403,0.90642l0.1054,0.12648h0.02108c0.28106,0.26701 0.61833,0.40051 1.01182,0.40051h0.04216l0.25295,-0.02108c0.25295,-0.04216 0.48483,-0.16161 0.69563,-0.35835v-0.02108c0.22485,-0.2389 0.35835,-0.50591 0.40051,-0.80102l0.02108,-0.18972v-0.04216c-0.01405,-0.36538 -0.15458,-0.6886 -0.42159,-0.96966l-0.04216,-0.04216c-0.26701,-0.25295 -0.5832,-0.38646 -0.94858,-0.40051h-0.02108c-0.39349,0.01405 -0.73076,0.15458 -1.01182,0.42159v0.02108M244.91155,173.79208c-0.22485,0.22485 -0.33025,0.49888 -0.31619,0.8221v0.02108c0,0.33727 0.1054,0.62536 0.31619,0.86426h0.02108c0.14053,0.12648 0.30214,0.22485 0.48483,0.29511l0.37943,0.04216h0.04216c0.30917,0 0.57617,-0.1054 0.80102,-0.31619v-0.02108l0.25295,-0.35835l0.1054,-0.46375v-0.04216c-0.01405,-0.32322 -0.1335,-0.60428 -0.35835,-0.84318c-0.2389,-0.2389 -0.51996,-0.35835 -0.84318,-0.35835h-0.02108c-0.32322,0 -0.61131,0.11945 -0.86426,0.35835M232.11625,185.13289c-0.26701,0.25295 -0.43564,0.5551 -0.50591,0.90642c-0.04216,0.16864 -0.06324,0.3443 -0.06324,0.52699v0.02108c0,0.59023 0.18972,1.09614 0.56915,1.51773l0.02108,0.02108c0.42159,0.37943 0.9275,0.56915 1.51773,0.56915h0.06324c0.54807,0.01405 1.01885,-0.16864 1.41233,-0.54807v-0.02108l0.27403,-0.31619c0.22485,-0.35133 0.3443,-0.73778 0.35835,-1.15938v-0.06324l-0.02108,-0.33727c-0.07027,-0.33727 -0.2108,-0.63941 -0.42159,-0.90642l-0.18972,-0.2108c-0.42159,-0.42159 -0.91345,-0.63941 -1.47557,-0.65347h-0.02108c-0.35133,0.01405 -0.66752,0.09134 -0.94858,0.23188c-0.2108,0.09837 -0.40051,0.23188 -0.56915,0.40051v0.02108M230.57744,178.97765c-0.33727,0.32322 -0.49888,0.73076 -0.48483,1.22262v0.02108c0,0.50591 0.16161,0.93453 0.48483,1.28585l0.02108,0.02108l0.12648,0.1054c0.32322,0.25295 0.70968,0.37943 1.15938,0.37943h0.06324l0.73778,-0.14756l0.46375,-0.31619v-0.02108l0.06324,-0.06324c0.22485,-0.25295 0.37241,-0.54104 0.44267,-0.86426l0.02108,-0.31619v-0.06324l-0.04216,-0.33727c-0.05621,-0.26701 -0.16864,-0.51294 -0.33727,-0.73778l-0.14756,-0.16864l-0.46375,-0.33727c-0.25295,-0.12648 -0.51996,-0.19674 -0.80102,-0.2108h-0.02108c-0.4497,0.01405 -0.85021,0.17566 -1.20154,0.48483l-0.08432,0.06324M246.78763,178.66146l-0.08432,0.1054c-0.29511,0.30917 -0.43564,0.70265 -0.42159,1.18046v0.02108l0.06324,0.50591c0.07027,0.32322 0.21782,0.61131 0.44267,0.86426l0.02108,0.02108c0.37943,0.33727 0.83616,0.50591 1.37017,0.50591h0.06324c0.37943,0.01405 0.71671,-0.07729 1.01182,-0.27403l0.25295,-0.2108v-0.02108c0.36538,-0.37943 0.5551,-0.8221 0.56915,-1.32801v-0.06324c-0.01405,-0.50591 -0.20377,-0.94155 -0.56915,-1.30693c-0.36538,-0.36538 -0.77994,-0.56212 -1.24369,-0.59023h-0.08432h-0.02108c-0.53402,0.01405 -0.99074,0.20377 -1.37017,0.56915v0.02108M239.30438,187.66244l-0.02108,0.02108c-0.2108,0.2108 -0.32322,0.48483 -0.33727,0.8221v0.04216c0,0.37943 0.11945,0.70265 0.35835,0.96966h0.02108c0.26701,0.2389 0.57617,0.35835 0.9275,0.35835h0.04216c0.33727,0 0.63239,-0.11945 0.88534,-0.35835c0.25295,-0.26701 0.37943,-0.57617 0.37943,-0.9275v-0.04216c0,-0.33727 -0.12648,-0.63239 -0.37943,-0.88534c-0.26701,-0.26701 -0.57617,-0.40754 -0.9275,-0.42159c-0.36538,0.01405 -0.68157,0.14756 -0.94858,0.40051v0.02108M245.90229,185.47015c-0.28106,0 -0.51294,0.09837 -0.69563,0.29511c-0.2108,0.19674 -0.31619,0.43564 -0.31619,0.71671c0,0.26701 0.09837,0.49888 0.29511,0.69563l0.04216,0.02108c0.18269,0.19674 0.40754,0.29511 0.67455,0.29511c0.28106,0 0.52699,-0.09837 0.73778,-0.29511c0.18269,-0.19674 0.27403,-0.43564 0.27403,-0.71671c0,-0.26701 -0.09134,-0.49888 -0.27403,-0.69563l-0.02108,-0.04216c-0.2108,-0.18269 -0.4497,-0.27403 -0.71671,-0.27403" fill="#e76916"/><path d="M238.73523,170.16639c0.36538,-0.35133 0.794,-0.53402 1.28585,-0.54807h0.02108c0.4778,0.01405 0.89939,0.19674 1.26477,0.54807l0.37943,0.54807l0.14756,0.69563v0.06324c-0.01405,0.4778 -0.18972,0.89237 -0.52699,1.24369v0.02108c-0.33727,0.32322 -0.73778,0.4778 -1.20154,0.46375h-0.06324c-0.50591,0 -0.93453,-0.16161 -1.28585,-0.48483l-0.02108,-0.02108c-0.32322,-0.35133 -0.48483,-0.77994 -0.48483,-1.28585v-0.02108c-0.01405,-0.49186 0.14756,-0.89939 0.48483,-1.22262M244.91154,173.79208c0.25295,-0.2389 0.54104,-0.35835 0.86426,-0.35835h0.02108c0.32322,0 0.60428,0.11945 0.84318,0.35835c0.22485,0.2389 0.3443,0.51996 0.35835,0.84318v0.04216l-0.1054,0.46375l-0.25295,0.35835v0.02108c-0.22485,0.2108 -0.49186,0.31619 -0.80102,0.31619h-0.04216l-0.37943,-0.04216c-0.18269,-0.07027 -0.3443,-0.16864 -0.48483,-0.29511h-0.02108c-0.2108,-0.2389 -0.31619,-0.52699 -0.31619,-0.86426v-0.02108c-0.01405,-0.32322 0.09134,-0.59725 0.31619,-0.8221M232.89618,173.30725v-0.02108c0.28106,-0.26701 0.61833,-0.40754 1.01182,-0.42159h0.02108c0.36538,0.01405 0.68157,0.14756 0.94858,0.40051l0.04216,0.04216c0.26701,0.28106 0.40754,0.60428 0.42159,0.96966v0.04216l-0.02108,0.18972c-0.04216,0.29511 -0.17566,0.56212 -0.40051,0.80102v0.02108c-0.2108,0.19674 -0.44267,0.31619 -0.69563,0.35835l-0.25295,0.02108h-0.04216c-0.39349,0 -0.73076,-0.1335 -1.01182,-0.40051h-0.02108l-0.1054,-0.12648c-0.18269,-0.25295 -0.27403,-0.5551 -0.27403,-0.90642c-0.01405,-0.39349 0.11242,-0.71671 0.37943,-0.96966M230.57743,178.97765l0.08432,-0.06324c0.35133,-0.30917 0.75184,-0.47078 1.20154,-0.48483h0.02108c0.28106,0.01405 0.54807,0.08432 0.80102,0.2108l0.46375,0.33727l0.14756,0.16864c0.16864,0.22485 0.28106,0.47078 0.33727,0.73778l0.04216,0.33727v0.06324l-0.02108,0.31619c-0.07027,0.32322 -0.21782,0.61131 -0.44267,0.86426l-0.06324,0.06324v0.02108l-0.46375,0.31619l-0.73778,0.14756h-0.06324c-0.4497,0 -0.83616,-0.12648 -1.15938,-0.37943l-0.12648,-0.1054l-0.02108,-0.02108c-0.32322,-0.35133 -0.48483,-0.77994 -0.48483,-1.28585v-0.02108c-0.01405,-0.49186 0.14756,-0.89939 0.48483,-1.22262M232.11624,185.13289v-0.02108c0.16864,-0.16864 0.35835,-0.30214 0.56915,-0.40051c0.28106,-0.14053 0.59725,-0.21782 0.94858,-0.23188h0.02108c0.56212,0.01405 1.05398,0.23188 1.47557,0.65347l0.18972,0.2108c0.2108,0.26701 0.35133,0.56915 0.42159,0.90642l0.02108,0.33727v0.06324c-0.01405,0.42159 -0.1335,0.80805 -0.35835,1.15938l-0.27403,0.31619v0.02108c-0.39349,0.37943 -0.86426,0.56212 -1.41233,0.54807h-0.06324c-0.59023,0 -1.09614,-0.18972 -1.51773,-0.56915l-0.02108,-0.02108c-0.37943,-0.42159 -0.56915,-0.9275 -0.56915,-1.51773v-0.02108c0,-0.18269 0.02108,-0.35835 0.06324,-0.52699c0.07027,-0.35133 0.2389,-0.65347 0.50591,-0.90642M239.30437,187.66244v-0.02108c0.26701,-0.25295 0.5832,-0.38646 0.94858,-0.40051c0.35133,0.01405 0.66049,0.15458 0.9275,0.42159c0.25295,0.25295 0.37943,0.54807 0.37943,0.88534v0.04216c0,0.35133 -0.12648,0.66049 -0.37943,0.9275c-0.25295,0.2389 -0.54807,0.35835 -0.88534,0.35835h-0.04216c-0.35133,0 -0.66049,-0.11945 -0.9275,-0.35835h-0.02108c-0.2389,-0.26701 -0.35835,-0.59023 -0.35835,-0.96966v-0.04216c0.01405,-0.33727 0.12648,-0.61131 0.33727,-0.8221l0.02108,-0.02108M246.78762,178.66146v-0.02108c0.37943,-0.36538 0.83616,-0.5551 1.37017,-0.56915h0.02108h0.08432c0.46375,0.02811 0.87832,0.22485 1.24369,0.59023c0.36538,0.36538 0.5551,0.80102 0.56915,1.30693v0.06324c-0.01405,0.50591 -0.20377,0.94858 -0.56915,1.32801v0.02108l-0.25295,0.2108c-0.29511,0.19674 -0.63239,0.28809 -1.01182,0.27403h-0.06324c-0.53402,0 -0.99074,-0.16864 -1.37017,-0.50591l-0.02108,-0.02108c-0.22485,-0.25295 -0.37241,-0.54104 -0.44267,-0.86426l-0.06324,-0.50591v-0.02108c-0.01405,-0.4778 0.12648,-0.87129 0.42159,-1.18046l0.08432,-0.1054M245.90228,185.47016c0.26701,0 0.50591,0.09134 0.71671,0.27403l0.02108,0.04216c0.18269,0.19674 0.27403,0.42862 0.27403,0.69563c0,0.28106 -0.09134,0.51996 -0.27403,0.71671c-0.2108,0.19674 -0.45672,0.29511 -0.73778,0.29511c-0.26701,0 -0.49186,-0.09837 -0.67455,-0.29511l-0.04216,-0.02108c-0.19674,-0.19674 -0.29511,-0.42862 -0.29511,-0.69563c0,-0.28106 0.1054,-0.51996 0.31619,-0.71671c0.18269,-0.19674 0.41456,-0.29511 0.69563,-0.29511" fill="#ff7419"/><path d="M242.40308,170.58798l0.90642,0.14756c0.63239,0.22485 1.09614,0.63239 1.39125,1.22262l0.2108,0.63239l-0.35835,0.27403c-0.40754,0.40754 -0.60428,0.88534 -0.59023,1.43341l0.08432,0.61131c0.09837,0.30917 0.26701,0.5832 0.50591,0.8221l0.63239,0.42159l0.77994,0.14756c0.54807,0.01405 1.02587,-0.17566 1.43341,-0.56915l0.29511,-0.35835c0.32322,0.16864 0.57617,0.43564 0.75886,0.80102c0.19674,0.4497 0.21782,0.91345 0.06324,1.39125h-0.08432l-0.50591,0.04216c-0.53402,0.09837 -0.99777,0.3443 -1.39125,0.73778l-0.27403,0.31619c-0.35133,0.46375 -0.52699,0.99777 -0.52699,1.60205l0.04216,0.48483c0.08432,0.53402 0.33727,1.00479 0.75886,1.41233c0.51996,0.53402 1.15235,0.80102 1.89716,0.80102l1.11722,-0.23188l-0.14756,0.88534c-0.22485,0.63239 -0.64644,1.08911 -1.26477,1.37017l-0.71671,0.23188l-0.2108,-0.23188c-0.35133,-0.35133 -0.76589,-0.51996 -1.24369,-0.50591l-0.54807,0.08432c-0.26701,0.07027 -0.49888,0.2108 -0.69563,0.42159c-0.26701,0.25295 -0.42862,0.56915 -0.48483,0.94858l-0.02108,0.29511c-0.01405,0.4778 0.15458,0.89237 0.50591,1.24369l-0.06324,0.18972c-0.15458,0.39349 -0.42159,0.68157 -0.80102,0.86426l-1.22262,0.06324l-0.48483,-0.25295c-0.07027,-0.42159 -0.25998,-0.794 -0.56915,-1.11722l-0.06324,-0.06324c-0.40754,-0.42159 -0.91345,-0.63239 -1.51773,-0.63239l-0.84318,0.16864c-0.25295,0.09837 -0.48483,0.25295 -0.69563,0.46375c-0.42159,0.42159 -0.63239,0.93453 -0.63239,1.53881l0.08432,0.56915l-1.24369,-0.02108c-0.26701,-0.09837 -0.49186,-0.23188 -0.67455,-0.40051l0.33727,-0.29511c0.64644,-0.64644 0.96966,-1.42638 0.96966,-2.33983l-0.1054,-0.77994c-0.14053,-0.56212 -0.42862,-1.06101 -0.86426,-1.49665l-0.35835,-0.31619c-0.56212,-0.42159 -1.20154,-0.63941 -1.91824,-0.65347c-0.49186,0 -0.94858,0.09837 -1.37017,0.29511c-0.35133,0.15458 -0.67455,0.37943 -0.96966,0.67455c-0.4497,0.46375 -0.73076,0.99074 -0.84318,1.58097l-0.52699,-0.77994c-0.29511,-0.70265 -0.33025,-1.41233 -0.1054,-2.12904c0.39349,0.2389 0.83616,0.35835 1.32801,0.35835l1.11722,-0.23188l0.80102,-0.56915l0.50591,-0.69563l0.23188,-0.67455l0.04216,-0.52699l-0.06324,-0.65347l-0.16864,-0.46375c-0.12648,-0.29511 -0.30917,-0.56212 -0.54807,-0.80102c-0.2389,-0.2389 -0.50591,-0.42159 -0.80102,-0.54807c-0.33727,-0.15458 -0.70968,-0.23188 -1.11722,-0.23188c-0.46375,0 -0.88534,0.1054 -1.26477,0.31619c-0.04216,-0.35133 0,-0.70968 0.12648,-1.07506c0.22485,-0.64644 0.65347,-1.11019 1.28585,-1.39125c0.18269,-0.08432 0.37241,-0.14756 0.56915,-0.18972l0.35835,0.48483c0.39349,0.37943 0.86426,0.56915 1.41233,0.56915l0.65347,-0.1054l0.73778,-0.46375c0.2108,-0.22485 0.36538,-0.4778 0.46375,-0.75886l0.1054,-0.63239c0,-0.54807 -0.18972,-1.01885 -0.56915,-1.41233l-0.40051,-0.29511c0.18269,-0.40754 0.47078,-0.70968 0.86426,-0.90642l1.37017,-0.04216l0.02108,0.02108v0.14756c0,0.74481 0.25998,1.3772 0.77994,1.89716l0.25295,0.23188c0.4778,0.37943 1.0329,0.56915 1.66529,0.56915l0.52699,-0.04216c0.51996,-0.09837 0.97669,-0.35133 1.37017,-0.75886c0.53402,-0.51996 0.80102,-1.15235 0.80102,-1.89716c0,-0.4497 -0.09837,-0.86426 -0.29511,-1.24369" fill-opacity="0.01176" fill="#000000"/></g></g></svg>