<svg version="1.1" xmlns="http://www.w3.org/2000/svg" xmlns:xlink="http://www.w3.org/1999/xlink" width="26.45484" height="26.43377" viewBox="0,0,26.45484,26.43377"><g transform="translate(-226.77258,-166.78312)"><g data-paper-data="{&quot;isPaintingLayer&quot;:true}" fill-rule="nonzero" stroke="none" stroke-width="1" stroke-linecap="butt" stroke-linejoin="miter" stroke-miterlimit="10" stroke-dasharray="" stroke-dashoffset="0" style="mix-blend-mode: normal"><path d="M230.65122,182.4874c-2.58576,-0.67455 -3.87864,-1.50368 -3.87864,-2.48739c0,-0.98371 1.29288,-1.81284 3.87864,-2.48739l1.26477,-0.33727c-0.67455,-2.13606 -0.49888,-3.71703 0.52699,-4.7429c1.02587,-1.02587 2.59279,-1.20154 4.70074,-0.52699l0.33727,-1.22262c0.6886,-2.59981 1.52476,-3.89972 2.50847,-3.89972c0.98371,0 1.81987,1.29991 2.50847,3.89972l0.29511,1.22262c2.12201,-0.66049 3.69595,-0.4778 4.72182,0.54807c1.02587,1.02587 1.20856,2.59981 0.54807,4.72182l1.24369,0.31619c2.59981,0.6886 3.90675,1.51773 3.9208,2.48739c-0.01405,0.99777 -1.31396,1.83392 -3.89972,2.50847l-1.28585,0.31619c0.6886,2.12201 0.51294,3.68892 -0.52699,4.70074c-0.99777,1.02587 -2.57171,1.20856 -4.72182,0.54807l-0.29511,1.26477c-0.66049,2.57171 -1.49665,3.87161 -2.50847,3.89972c-0.98371,-0.02811 -1.8269,-1.33504 -2.52955,-3.9208l-0.27403,-1.24369c-2.13606,0.67455 -3.71703,0.49888 -4.7429,-0.52699c-1.03993,-1.01182 -1.21559,-2.57873 -0.52699,-4.70074l-1.26477,-0.33727M233.77099,176.41649l0.50591,0.8221c-1.44746,0.75886 -2.16417,1.67934 -2.15012,2.76142c-0.01405,1.02587 0.70968,1.93229 2.1712,2.71926l-0.48483,0.8221c-0.98371,1.71447 -1.22262,2.82466 -0.71671,3.33057c0.51996,0.51996 1.63718,0.28809 3.35165,-0.69563l0.80102,-0.50591c0.77292,1.44746 1.69339,2.18525 2.76142,2.21335c1.06803,0 1.98148,-0.74481 2.74034,-2.23443l0.77994,0.52699c1.75663,0.99777 2.8879,1.22964 3.39381,0.69563c0.51996,-0.49186 0.28106,-1.60205 -0.71671,-3.33057l-0.52699,-0.8221c1.48962,-0.75886 2.23443,-1.67231 2.23443,-2.74034c-0.01405,-1.08208 -0.75184,-2.00256 -2.21335,-2.76142l0.50591,-0.80102c0.99777,-1.72852 1.23667,-2.85277 0.71671,-3.37273c-0.51996,-0.49186 -1.64421,-0.25295 -3.37273,0.71671c-0.26701,0.15458 -0.54104,0.32322 -0.8221,0.50591c-0.75886,-1.47557 -1.67231,-2.21335 -2.74034,-2.21335c-1.06803,0 -1.98851,0.73778 -2.76142,2.21335l-0.8221,-0.48483c-1.70042,-0.99777 -2.80358,-1.24369 -3.30949,-0.73778c-0.51996,0.51996 -0.29511,1.64421 0.67455,3.37273" fill="#ff7419"/><path d="M233.77099,176.41648c-0.96966,-1.72852 -1.19451,-2.85277 -0.67455,-3.37273c0.50591,-0.50591 1.60907,-0.25998 3.30949,0.73778l0.8221,0.48483c0.77292,-1.47557 1.69339,-2.21335 2.76142,-2.21335c1.06803,0 1.98148,0.73778 2.74034,2.21335c0.28106,-0.18269 0.5551,-0.35133 0.8221,-0.50591c1.72852,-0.96966 2.85277,-1.20856 3.37273,-0.71671c0.51996,0.51996 0.28106,1.64421 -0.71671,3.37273l-0.50591,0.80102c1.46152,0.75886 2.1993,1.67934 2.21335,2.76142c0,1.06803 -0.74481,1.98148 -2.23443,2.74034l0.52699,0.8221c0.99777,1.72852 1.23667,2.83872 0.71671,3.33057c-0.50591,0.53402 -1.63718,0.30214 -3.39381,-0.69563l-0.77994,-0.52699c-0.75886,1.48962 -1.67231,2.23443 -2.74034,2.23443c-1.06803,-0.02811 -1.98851,-0.76589 -2.76142,-2.21335l-0.80102,0.50591c-1.71447,0.98371 -2.83169,1.21559 -3.35165,0.69563c-0.50591,-0.50591 -0.26701,-1.6161 0.71671,-3.33057l0.48483,-0.8221c-1.46152,-0.78697 -2.18525,-1.69339 -2.1712,-2.71926c-0.01405,-1.08208 0.70265,-2.00256 2.15012,-2.76142l-0.50591,-0.8221" fill="#e76916"/><path d="M233.01213,188.64263c-2.40307,1.95337 -3.76622,2.76845 -4.08944,2.44523c-0.32322,-0.32322 0.48483,-1.69339 2.42415,-4.11052l1.28585,-1.53881c-0.28106,-0.89939 -0.22485,-2.00959 0.16864,-3.33057c0.18269,-0.71671 0.45672,-1.41233 0.8221,-2.08688c-0.37943,-0.6886 -0.66049,-1.3772 -0.84318,-2.0658c-0.37943,-1.33504 -0.41456,-2.45226 -0.1054,-3.35165l-1.32801,-1.58097c-1.93932,-2.38902 -2.74737,-3.74514 -2.42415,-4.06836c0.32322,-0.32322 1.67934,0.47078 4.06836,2.38199l1.62313,1.32801l3.28841,0.12648c0.71671,0.2389 1.41233,0.51294 2.08688,0.8221c0.6886,-0.35133 1.4053,-0.63239 2.15012,-0.84318l3.26733,-0.1054c0.51996,-0.46375 1.04695,-0.90642 1.58097,-1.32801c2.38902,-1.91121 3.74514,-2.70521 4.06836,-2.38199c0.32322,0.32322 -0.4778,1.68637 -2.40307,4.08944l-1.30693,1.51773c0.29511,0.91345 0.25998,2.01661 -0.1054,3.30949c-0.19674,0.73076 -0.49186,1.44746 -0.88534,2.15012c0.40754,0.6886 0.69563,1.38423 0.86426,2.08688c0.37943,1.33504 0.42862,2.4382 0.14756,3.30949l1.30693,1.60205c1.91121,2.38902 2.70521,3.74514 2.38199,4.06836c-0.32322,0.32322 -1.68637,-0.49186 -4.08944,-2.44523l-1.51773,-1.30693c-0.91345,0.32322 -2.02364,0.30917 -3.33057,-0.04216c-0.73076,-0.22485 -1.44044,-0.52699 -2.12904,-0.90642c-0.66049,0.35133 -1.36315,0.63239 -2.10796,0.84318l-3.30949,0.14756l-1.55989,1.26477M244.87993,174.24528l-0.23188,0.14756l-0.29511,-0.08432l-2.42415,0.1054c-0.59023,0.16864 -1.15235,0.40754 -1.68637,0.71671l-0.25295,0.04216l-0.23188,-0.02108c-0.54807,-0.29511 -1.09614,-0.51996 -1.64421,-0.67455l-2.44523,-0.12648l-0.27403,0.02108l-0.25295,-0.12648l-1.32801,-1.11722c-1.74258,-1.3772 -2.649,-2.05877 -2.71926,-2.04472c-0.02811,0.11242 0.65347,1.01885 2.04472,2.71926l0.02108,0.02108l1.09614,1.34909l0.1054,0.18972l-0.02108,0.27403c-0.22485,0.67455 -0.18269,1.50368 0.12648,2.48739c0.15458,0.54807 0.36538,1.09614 0.63239,1.64421l0.06324,0.23188l-0.06324,0.27403c-0.28106,0.53402 -0.49186,1.06803 -0.63239,1.60205l0.02108,0.02108c-0.30917,0.98371 -0.35835,1.81987 -0.14756,2.50847l-0.02108,0.23188l-0.1054,0.27403l-1.07506,1.28585c-1.39125,1.72852 -2.07282,2.649 -2.04472,2.76142l2.71926,-2.08688l1.30693,-1.09614c0.07027,-0.07027 0.14756,-0.1054 0.23188,-0.1054h0.25295l2.52955,-0.12648c0.51996,-0.15458 1.05398,-0.36538 1.60205,-0.63239c0.07027,-0.07027 0.15458,-0.09837 0.25295,-0.08432c0.09837,-0.01405 0.18269,0.01405 0.25295,0.08432c0.53402,0.28106 1.10316,0.51294 1.70745,0.69563l-0.02108,-0.02108l2.44523,0.08432h0.25295l0.23188,0.1054l1.32801,1.11722c1.70042,1.36315 2.61387,2.05174 2.74034,2.0658c0,-0.14053 -0.68157,-1.06101 -2.04472,-2.76142l-1.11722,-1.28585l-0.08432,-0.25295v-0.25295c0.2108,-0.66049 0.17566,-1.4826 -0.1054,-2.46631c-0.16864,-0.56212 -0.39349,-1.12424 -0.67455,-1.68637l-0.06324,-0.23188c0,-0.08432 0.02108,-0.17566 0.06324,-0.27403c0.29511,-0.51996 0.51996,-1.08208 0.67455,-1.68637c0.28106,-0.95561 0.31619,-1.77771 0.1054,-2.46631c-0.07027,-0.07027 -0.07027,-0.14053 0,-0.2108l0.08432,-0.25295l1.09614,-1.30693l2.0658,-2.74034c-0.09837,-0.01405 -1.01182,0.67455 -2.74034,2.0658l-1.30693,1.09614" fill="#ffcc00"/><path d="M244.87993,174.24528l1.30693,-1.09614c1.72852,-1.39125 2.64197,-2.07985 2.74034,-2.0658l-2.0658,2.74034l-1.09614,1.30693l-0.08432,0.25295c-0.07027,0.07027 -0.07027,0.14053 0,0.2108c0.2108,0.6886 0.17566,1.5107 -0.1054,2.46631c-0.15458,0.60428 -0.37943,1.1664 -0.67455,1.68637c-0.04216,0.09837 -0.06324,0.18972 -0.06324,0.27403l0.06324,0.23188c0.28106,0.56212 0.50591,1.12424 0.67455,1.68637c0.28106,0.98371 0.31619,1.80582 0.1054,2.46631v0.25295l0.08432,0.25295l1.11722,1.28585c1.36315,1.70042 2.04472,2.62089 2.04472,2.76142c-0.12648,-0.01405 -1.03993,-0.70265 -2.74034,-2.0658l-1.32801,-1.11722l-0.23188,-0.1054h-0.25295l-2.44523,-0.08432l0.02108,0.02108c-0.60428,-0.18269 -1.17343,-0.41456 -1.70745,-0.69563c-0.07027,-0.07027 -0.15458,-0.09837 -0.25295,-0.08432c-0.09837,-0.01405 -0.18269,0.01405 -0.25295,0.08432c-0.54807,0.26701 -1.08208,0.4778 -1.60205,0.63239l-2.52955,0.12648h-0.25295c-0.08432,0 -0.16161,0.03513 -0.23188,0.1054l-1.30693,1.09614l-2.71926,2.08688c-0.02811,-0.11242 0.65347,-1.0329 2.04472,-2.76142l1.07506,-1.28585l0.1054,-0.27403l0.02108,-0.23188c-0.2108,-0.6886 -0.16161,-1.52476 0.14756,-2.50847l-0.02108,-0.02108c0.14053,-0.53402 0.35133,-1.06803 0.63239,-1.60205l0.06324,-0.27403l-0.06324,-0.23188c-0.26701,-0.54807 -0.4778,-1.09614 -0.63239,-1.64421c-0.30917,-0.98371 -0.35133,-1.81284 -0.12648,-2.48739l0.02108,-0.27403l-0.1054,-0.18972l-1.09614,-1.34909l-0.02108,-0.02108c-1.39125,-1.70042 -2.07282,-2.60684 -2.04472,-2.71926c0.07027,-0.01405 0.97669,0.66752 2.71926,2.04472l1.32801,1.11722l0.25295,0.12648l0.27403,-0.02108l2.44523,0.12648c0.54807,0.15458 1.09614,0.37943 1.64421,0.67455l0.23188,0.02108l0.25295,-0.04216c0.53402,-0.30917 1.09614,-0.54807 1.68637,-0.71671l2.42415,-0.1054l0.29511,0.08432l0.23188,-0.14756" fill="#f0c000"/><path d="M244.43725,179.32546c0.19674,0 0.35835,0.06324 0.48483,0.18972l0.02108,0.02108c0.11242,0.14053 0.16864,0.29511 0.16864,0.46375v0.04216c0,0.16864 -0.06324,0.31619 -0.18972,0.44267l-0.02108,0.02108c-0.12648,0.12648 -0.26701,0.19674 -0.42159,0.2108l-0.02108,0.02108l-2.40307,0.16864l3.0987,3.68892l0.1054,0.27403l-0.12648,0.29511c-0.08432,0.08432 -0.18269,0.12648 -0.29511,0.12648c-0.09837,0.01405 -0.19674,-0.01405 -0.29511,-0.08432l-3.66785,-3.11978l-0.18972,2.38199l0.02108,0.02108c-0.02811,0.19674 -0.11945,0.35835 -0.27403,0.48483l-0.44267,0.18972l-0.02108,-0.02108c-0.18269,0.01405 -0.33025,-0.03513 -0.44267,-0.14756l-0.04216,-0.04216c-0.12648,-0.12648 -0.19674,-0.26701 -0.2108,-0.42159l-0.02108,-0.02108l-0.16864,-2.40307l-3.68892,3.0987l-0.29511,0.08432l-0.29511,-0.12648l-0.12648,-0.29511c0,-0.11242 0.03513,-0.20377 0.1054,-0.27403l3.11978,-3.66785l-2.40307,-0.16864l-0.02108,-0.02108c-0.18269,-0.04216 -0.32322,-0.11242 -0.42159,-0.2108l-0.04216,-0.04216c-0.11242,-0.11242 -0.16864,-0.26701 -0.16864,-0.46375c0,-0.19674 0.05621,-0.35133 0.16864,-0.46375l0.04216,-0.04216c0.12648,-0.12648 0.28106,-0.19674 0.46375,-0.2108l2.38199,-0.18972l-3.11978,-3.66785c-0.07027,-0.09837 -0.09837,-0.19674 -0.08432,-0.29511c0,-0.11242 0.04216,-0.2108 0.12648,-0.29511c0.08432,-0.08432 0.18269,-0.12648 0.29511,-0.12648l0.27403,0.1054l3.68892,3.0987l0.18972,-2.38199c0.01405,-0.18269 0.08432,-0.33727 0.2108,-0.46375l0.02108,-0.02108c0.14053,-0.14053 0.30214,-0.20377 0.48483,-0.18972c0.18269,0.01405 0.33727,0.07027 0.46375,0.16864l0.25295,0.50591l0.18972,2.38199l3.64677,-3.0987c0.08432,-0.08432 0.17566,-0.11945 0.27403,-0.1054l0.31619,0.1054c0.08432,0.08432 0.11945,0.18972 0.1054,0.31619l-0.08432,0.29511l-3.07762,3.66785l2.36091,0.2108" fill="#ffffff"/></g></g></svg>