<svg version="1.1" xmlns="http://www.w3.org/2000/svg" xmlns:xlink="http://www.w3.org/1999/xlink" width="25.04605" height="25.04605" viewBox="0,0,25.04605,25.04605"><g transform="translate(-227.47697,-167.47697)"><g data-paper-data="{&quot;isPaintingLayer&quot;:true}" fill="#ffffff" fill-rule="nonzero" stroke="none" stroke-width="1" stroke-linecap="butt" stroke-linejoin="miter" stroke-miterlimit="10" stroke-dasharray="" stroke-dashoffset="0" style="mix-blend-mode: normal"><path d="M244.764,176.35323l-1.51773,1.72852l0.31619,0.69563l5.0591,0.2108c2.65603,0.19674 3.95593,0.53402 3.89972,1.01182c0.04216,0.46375 -1.25775,0.80102 -3.89972,1.01182l-5.0591,0.2108l-0.31619,0.69563l1.51773,1.68637c1.26477,1.43341 1.72852,2.28362 1.39125,2.55063c-0.2389,0.30917 -1.08911,-0.15458 -2.55063,-1.39125l-1.66529,-1.51773l-0.71671,0.31619l-0.2108,5.0591c-0.19674,2.65603 -0.53402,3.95593 -1.01182,3.89972c-0.46375,0.04216 -0.80102,-1.25775 -1.01182,-3.89972c-0.11242,-1.48962 -0.18269,-3.17599 -0.2108,-5.0591c-0.25295,-0.08432 -0.48483,-0.18972 -0.69563,-0.31619l-1.70745,1.49665c-1.43341,1.26477 -2.27659,1.73555 -2.52955,1.41233c-0.32322,-0.25295 0.14053,-1.10316 1.39125,-2.55063l1.51773,-1.68637l-0.31619,-0.67455l-5.0591,-0.23188c-2.65603,-0.2108 -3.95593,-0.54807 -3.89972,-1.01182c-0.05621,-0.4778 1.24369,-0.81508 3.89972,-1.01182l5.0591,-0.2108l0.33727,-0.69563l-1.53881,-1.70745c-1.25072,-1.46152 -1.7215,-2.31173 -1.41233,-2.55063c0.26701,-0.32322 1.11722,0.14756 2.55063,1.41233l1.72852,1.51773c0.2108,-0.12648 0.43564,-0.23188 0.67455,-0.31619l0.2108,-5.0591c0.2108,-2.65603 0.54807,-3.95593 1.01182,-3.89972c0.4778,-0.05621 0.81508,1.24369 1.01182,3.89972l0.2108,5.0591c0.2389,0.08432 0.47078,0.18972 0.69563,0.31619c0.60428,-0.56212 1.17343,-1.06803 1.70745,-1.51773c1.44746,-1.26477 2.29767,-1.73555 2.55063,-1.41233c0.32322,0.25295 -0.14756,1.09614 -1.41233,2.52955"/></g></g></svg>