<svg version="1.1" xmlns="http://www.w3.org/2000/svg" xmlns:xlink="http://www.w3.org/1999/xlink" width="23.63069" height="23.65139" viewBox="0,0,23.63069,23.65139"><g transform="translate(-228.18466,-168.17431)"><g data-paper-data="{&quot;isPaintingLayer&quot;:true}" fill-rule="nonzero" stroke="none" stroke-width="1" stroke-linecap="butt" stroke-linejoin="miter" stroke-miterlimit="10" stroke-dasharray="" stroke-dashoffset="0" style="mix-blend-mode: normal"><path d="M231.60005,182.23449c-2.29065,-0.60428 -3.42894,-1.34909 -3.41489,-2.23443c-0.02811,-0.87129 1.11019,-1.6161 3.41489,-2.23443l1.11722,-0.27403c-0.59023,-1.91121 -0.42159,-3.33057 0.50591,-4.25807c0.91345,-0.91345 2.31875,-1.07506 4.21591,-0.48483l0.27403,-1.09614c0.63239,-2.33281 1.39125,-3.49218 2.27659,-3.47813c0.88534,0 1.63015,1.15938 2.23443,3.47813l0.25295,1.09614c1.91121,-0.59023 3.32355,-0.42862 4.23699,0.48483c0.9275,0.9275 1.08911,2.33983 0.48483,4.23699l1.1383,0.29511c2.3047,0.61833 3.46408,1.35612 3.47813,2.21335c-0.01405,0.88534 -1.17343,1.63718 -3.47813,2.25551l-1.1383,0.29511c0.60428,1.89716 0.4497,3.29544 -0.46375,4.19483c-0.91345,0.9275 -2.33281,1.08911 -4.25807,0.48483l-0.25295,1.1383c-0.61833,2.3047 -1.36315,3.46408 -2.23443,3.47813c-0.89939,-0.01405 -1.65826,-1.17343 -2.27659,-3.47813l-0.23188,-1.1383c-1.91121,0.61833 -3.33057,0.46375 -4.25807,-0.46375c-0.9275,-0.91345 -1.08911,-2.31875 -0.48483,-4.21591l-1.1383,-0.29511M234.40364,176.77488l0.46375,0.75886c-1.29288,0.66049 -1.93229,1.4826 -1.91824,2.46631c-0.02811,0.9275 0.61833,1.74258 1.93932,2.44523l-0.44267,0.71671c-0.88534,1.54584 -1.10316,2.5436 -0.65347,2.9933c0.46375,0.46375 1.46152,0.25295 2.9933,-0.63239l0.73778,-0.46375c0.6886,1.32099 1.5107,1.98851 2.46631,2.00256c0.96966,-0.01405 1.79176,-0.67455 2.46631,-1.98148l0.71671,0.44267c1.54584,0.91345 2.55063,1.12424 3.01438,0.63239c0.46375,-0.43564 0.24593,-1.42638 -0.65347,-2.97222l-0.44267,-0.73778c1.32099,-0.6886 1.97445,-1.5107 1.9604,-2.46631c0,-0.95561 -0.65347,-1.77771 -1.9604,-2.46631l0.44267,-0.73778c0.89939,-1.53178 1.12424,-2.52252 0.67455,-2.97222c-0.4778,-0.46375 -1.48962,-0.25998 -3.03546,0.61131l-0.73778,0.44267c-0.6886,-1.30693 -1.5107,-1.9604 -2.46631,-1.9604c-0.95561,0 -1.77771,0.65347 -2.46631,1.9604l-0.73778,-0.40051c-1.51773,-0.89939 -2.50847,-1.13127 -2.97222,-0.69563c-0.4497,0.4778 -0.24593,1.4826 0.61131,3.01438" fill="#ff7419"/><path d="M234.40364,176.77488c-0.85724,-1.53178 -1.06101,-2.53657 -0.61131,-3.01438c0.46375,-0.43564 1.45449,-0.20377 2.97222,0.69563l0.73778,0.40051c0.6886,-1.30693 1.5107,-1.9604 2.46631,-1.9604c0.95561,0 1.77771,0.65347 2.46631,1.9604l0.73778,-0.44267c1.54584,-0.87129 2.55765,-1.07506 3.03546,-0.61131c0.4497,0.4497 0.22485,1.44044 -0.67455,2.97222l-0.44267,0.73778c1.30693,0.6886 1.9604,1.5107 1.9604,2.46631c0.01405,0.95561 -0.63941,1.77771 -1.9604,2.46631l0.44267,0.73778c0.89939,1.54584 1.11722,2.53657 0.65347,2.97222c-0.46375,0.49186 -1.46854,0.28106 -3.01438,-0.63239l-0.71671,-0.44267c-0.67455,1.30693 -1.49665,1.96743 -2.46631,1.98148c-0.95561,-0.01405 -1.77771,-0.68157 -2.46631,-2.00256l-0.73778,0.46375c-1.53178,0.88534 -2.52955,1.09614 -2.9933,0.63239c-0.4497,-0.4497 -0.23188,-1.44746 0.65347,-2.9933l0.44267,-0.71671c-1.32099,-0.70265 -1.96743,-1.51773 -1.93932,-2.44523c-0.01405,-0.98371 0.62536,-1.80582 1.91824,-2.46631l-0.46375,-0.75886" fill="#e76916"/><path d="M235.9846,176.60624l0.08432,0.16864l-0.06324,0.2108c-0.14053,0.43564 -0.11242,0.99074 0.08432,1.66529c0.12648,0.42159 0.29511,0.8221 0.50591,1.20154l0.02108,0.12648l-0.02108,0.18972c-0.2108,0.37943 -0.36538,0.75886 -0.46375,1.1383c-0.2108,0.70265 -0.2389,1.2718 -0.08432,1.70745l0.02108,0.2108l-0.1054,0.14756l-0.75886,0.9275c-0.98371,1.22262 -1.46152,1.855 -1.43341,1.89716l1.89716,-1.41233l0.02108,-0.02108l0.9275,-0.73778l0.14756,-0.1054l0.18972,0.02108l1.70745,-0.1054c0.39349,-0.08432 0.77994,-0.22485 1.15938,-0.42159c0.05621,-0.04216 0.11242,-0.06324 0.16864,-0.06324c0.05621,0 0.11242,0.02108 0.16864,0.06324l1.11722,0.42159l0.04216,0.02108l1.70745,0.08432h0.16864l0.2108,0.08432l0.88534,0.75886l1.89716,1.41233l-1.43341,-1.87608l-0.75886,-0.9275l-0.08432,-0.16864v-0.16864c0.16864,-0.4778 0.14756,-1.06101 -0.06324,-1.7496l-0.44267,-1.11722l-0.06324,-0.18972l0.04216,-0.14756l0.48483,-1.22262v0.04216c0.19674,-0.70265 0.21782,-1.26477 0.06324,-1.68637l-0.02108,-0.2108l0.06324,-0.14756l0.77994,-0.94858l1.43341,-1.89716c-0.09837,0.01405 -0.73076,0.49186 -1.89716,1.43341l-0.88534,0.77994l-0.18972,0.04216h-0.16864l-1.72852,0.08432c-0.39349,0.11242 -0.77994,0.26701 -1.15938,0.46375l-0.18972,0.04216l-0.16864,-0.04216c-0.36538,-0.19674 -0.75184,-0.35133 -1.15938,-0.46375l-1.70745,-0.08432l-0.16864,0.02108l-0.16864,-0.06324l-0.90642,-0.77994l-1.91824,-1.41233c-0.02811,0.05621 0.45672,0.68157 1.45449,1.87608l0.75886,0.9275M245.9974,184.89051c1.36315,1.65826 1.92527,2.59981 1.68637,2.82466c-0.22485,0.22485 -1.17343,-0.33727 -2.84574,-1.68637l-1.09614,-0.90642l-2.31875,-0.1054c-0.49186,-0.12648 -0.97669,-0.32322 -1.45449,-0.59023c-0.46375,0.28106 -0.93453,0.4778 -1.41233,0.59023l-2.33983,0.08432l-1.09614,0.9275c-1.65826,1.34909 -2.60684,1.90419 -2.84574,1.66529c-0.22485,-0.22485 0.33025,-1.15938 1.66529,-2.80358l0.9275,-1.1383c-0.2108,-0.60428 -0.17566,-1.36315 0.1054,-2.27659c0.14053,-0.50591 0.33025,-0.99074 0.56915,-1.45449c-0.25295,-0.49186 -0.45672,-0.99074 -0.61131,-1.49665c-0.25295,-0.91345 -0.27403,-1.67231 -0.06324,-2.27659l-0.9275,-1.09614c-1.33504,-1.67231 -1.89013,-2.62089 -1.66529,-2.84574c0.2389,-0.22485 1.18748,0.33025 2.84574,1.66529l1.07506,0.9275l2.27659,0.08432c0.51996,0.11242 1.02587,0.30214 1.51773,0.56915c0.49186,-0.25295 0.98371,-0.44267 1.47557,-0.56915l2.27659,-0.1054l1.11722,-0.90642c1.65826,-1.33504 2.59981,-1.89013 2.82466,-1.66529c0.2389,0.2389 -0.32322,1.18748 -1.68637,2.84574l-0.9275,1.05398c0.2389,0.63239 0.23188,1.39828 -0.02108,2.29767c-0.15458,0.51996 -0.37241,1.01885 -0.65347,1.49665c0.26701,0.46375 0.46375,0.95561 0.59023,1.47557c0.28106,0.89939 0.31619,1.66529 0.1054,2.29767l0.90642,1.11722" fill="#ffcc00"/><path d="M235.9846,176.60624l-0.75886,-0.9275c-0.99777,-1.19451 -1.4826,-1.81987 -1.45449,-1.87608l1.91824,1.41233l0.90642,0.77994l0.16864,0.06324l0.16864,-0.02108l1.70745,0.08432c0.40754,0.11242 0.794,0.26701 1.15938,0.46375l0.16864,0.04216l0.18972,-0.04216c0.37943,-0.19674 0.76589,-0.35133 1.15938,-0.46375l1.72852,-0.08432h0.16864l0.18972,-0.04216l0.88534,-0.77994c1.1664,-0.94155 1.79879,-1.41936 1.89716,-1.43341l-1.43341,1.89716l-0.77994,0.94858l-0.06324,0.14756l0.02108,0.2108c0.15458,0.42159 0.1335,0.98371 -0.06324,1.68637v-0.04216l-0.48483,1.22262l-0.04216,0.14756l0.06324,0.18972l0.44267,1.11722c0.2108,0.6886 0.23188,1.2718 0.06324,1.7496v0.16864l0.08432,0.16864l0.75886,0.9275l1.43341,1.87608l-1.89716,-1.41233l-0.88534,-0.75886l-0.2108,-0.08432h-0.16864l-1.70745,-0.08432l-0.04216,-0.02108l-1.11722,-0.42159c-0.05621,-0.04216 -0.11242,-0.06324 -0.16864,-0.06324c-0.05621,0 -0.11242,0.02108 -0.16864,0.06324c-0.37943,0.19674 -0.76589,0.33727 -1.15938,0.42159l-1.70745,0.1054l-0.18972,-0.02108l-0.14756,0.1054l-0.9275,0.73778l-0.02108,0.02108l-1.89716,1.41233c-0.02811,-0.04216 0.4497,-0.67455 1.43341,-1.89716l0.75886,-0.9275l0.1054,-0.14756l-0.02108,-0.2108c-0.15458,-0.43564 -0.12648,-1.00479 0.08432,-1.70745c0.09837,-0.37943 0.25295,-0.75886 0.46375,-1.1383l0.02108,-0.18972l-0.02108,-0.12648c-0.2108,-0.37943 -0.37943,-0.77994 -0.50591,-1.20154c-0.19674,-0.67455 -0.22485,-1.22964 -0.08432,-1.66529l0.06324,-0.2108l-0.08432,-0.16864" fill="#f0c000"/><path d="M240.51671,176.20573l0.1054,3.16194l3.16194,0.1054c1.23667,0.08432 1.84095,0.25998 1.81284,0.52699c0.02811,0.26701 -0.57617,0.44267 -1.81284,0.52699l-3.16194,0.1054l-0.1054,3.16194c-0.08432,1.25072 -0.25998,1.855 -0.52699,1.81284c-0.26701,0.04216 -0.44267,-0.56212 -0.52699,-1.81284c-0.07027,-0.88534 -0.1054,-1.93932 -0.1054,-3.16194l-3.16194,-0.1054c-1.25072,-0.08432 -1.855,-0.25998 -1.81284,-0.52699c-0.04216,-0.26701 0.56212,-0.44267 1.81284,-0.52699l3.16194,-0.1054c0,-1.20856 0.03513,-2.26254 0.1054,-3.16194c0.08432,-1.23667 0.25998,-1.84095 0.52699,-1.81284c0.26701,-0.02811 0.44267,0.57617 0.52699,1.81284" fill="#ffffff"/></g></g></svg>