<svg version="1.1" xmlns="http://www.w3.org/2000/svg" xmlns:xlink="http://www.w3.org/1999/xlink" width="19.41429" height="18.71914" viewBox="0,0,19.41429,18.71914"><g transform="translate(-230.29285,-170.64043)"><g data-paper-data="{&quot;isPaintingLayer&quot;:true}" fill-rule="nonzero" stroke="none" stroke-width="1" stroke-linecap="butt" stroke-linejoin="miter" stroke-miterlimit="10" stroke-dasharray="" stroke-dashoffset="0" style="mix-blend-mode: normal"><path d="M237.6707,174.41367c-0.11242,0.29511 -0.28106,0.54104 -0.50591,0.73778c-0.25295,0.2108 -0.52699,0.33727 -0.8221,0.37943c-0.63239,0.09837 -1.18046,0.38646 -1.64421,0.86426v0.02108c-0.54807,0.53402 -0.84318,1.18046 -0.88534,1.93932l-0.23188,0.75886l-0.54807,0.59023l-0.1054,0.08432l-0.04216,0.06324c-0.60428,0.59023 -0.90642,1.31396 -0.90642,2.1712c0,0.85724 0.30917,1.59502 0.9275,2.21335c0.4778,0.4778 1.03993,0.76589 1.68637,0.86426c0.25295,0.04216 0.49186,0.14053 0.71671,0.29511c0.22485,0.15458 0.40051,0.35133 0.52699,0.59023l0.59023,0.77994c0.60428,0.60428 1.32801,0.90642 2.1712,0.90642h0.02108c0.6886,0.01405 1.29288,-0.16864 1.81284,-0.54807c0.2389,-0.16864 0.50591,-0.26701 0.80102,-0.29511l0.84318,0.1054c0.40754,0.16864 0.84318,0.25998 1.30693,0.27403h0.04216c0.82913,-0.01405 1.54584,-0.31619 2.15012,-0.90642c0.60428,-0.61833 0.90642,-1.35612 0.90642,-2.21335l-0.02108,-0.33727c-0.04216,-0.26701 -0.02108,-0.52699 0.06324,-0.77994c0.08432,-0.25295 0.22485,-0.47078 0.42159,-0.65347l0.16864,-0.16864v-0.02108c0.60428,-0.60428 0.90642,-1.33504 0.90642,-2.19228c0,-0.78697 -0.25998,-1.46854 -0.77994,-2.04472c-0.16864,-0.19674 -0.28809,-0.40754 -0.35835,-0.63239c-0.08432,-0.25295 -0.1054,-0.49888 -0.06324,-0.73778l0.04216,-0.67455c0,-0.85724 -0.29511,-1.58097 -0.88534,-2.1712c-0.60428,-0.60428 -1.34207,-0.91345 -2.21335,-0.9275h-0.02108l-0.59023,0.06324c-0.40754,0.08432 -0.78697,0.03513 -1.1383,-0.14756c-0.42159,-0.22485 -0.87832,-0.33727 -1.37017,-0.33727h-0.02108c-0.87129,0.01405 -1.60205,0.32322 -2.19228,0.9275c-0.36538,0.35133 -0.61833,0.73778 -0.75886,1.15938M246.756,187.483c-0.94155,0.94155 -2.0658,1.41233 -3.37273,1.41233c-0.70265,-0.01405 -1.35612,-0.14756 -1.9604,-0.40051c-0.81508,0.59023 -1.75663,0.87832 -2.82466,0.86426c-1.30693,0 -2.43118,-0.47078 -3.37273,-1.41233c-0.36538,-0.36538 -0.66049,-0.75886 -0.88534,-1.18046c-1.01182,-0.15458 -1.89013,-0.60428 -2.63495,-1.34909c-0.94155,-0.94155 -1.41233,-2.07282 -1.41233,-3.39381c0,-1.32099 0.46375,-2.44523 1.39125,-3.37273l0.44267,-0.37943c0.05621,-1.18046 0.51294,-2.1993 1.37017,-3.05654c0.73076,-0.74481 1.58799,-1.19451 2.57171,-1.34909c0.22485,-0.66049 0.61131,-1.26477 1.15938,-1.81284c0.9275,-0.9275 2.05877,-1.39828 3.39381,-1.41233c0.78697,0 1.5107,0.17566 2.1712,0.52699l0.96966,-0.1054c1.33504,0.01405 2.46631,0.48483 3.39381,1.41233c0.9275,0.9275 1.39125,2.05174 1.39125,3.37273l-0.06324,0.90642c0.81508,0.89939 1.22262,1.9604 1.22262,3.18302c0,1.33504 -0.47078,2.46631 -1.41233,3.39381l-0.16864,0.16864l0.04216,0.59023c0,1.32099 -0.47078,2.45226 -1.41233,3.39381M238.5982,176.43731l-0.02108,0.02108c0.07027,-0.2108 0.20377,-0.42862 0.40051,-0.65347l0.12648,-0.12648c0.36538,-0.35133 0.80805,-0.52699 1.32801,-0.52699h0.02108c0.30917,-0.01405 0.59023,0.04919 0.84318,0.18972l0.04216,0.02108c0.2108,0.09837 0.43564,0.14053 0.67455,0.12648l0.04216,-0.02108l0.40051,-0.04216h0.02108c0.50591,0 0.95561,0.17566 1.34909,0.52699l0.04216,0.04216c0.36538,0.35133 0.54807,0.80805 0.54807,1.37017v0.08432l-0.02108,0.29511l0.02108,0.52699l0.27403,0.46375v0.04216c0.32322,0.33727 0.48483,0.74481 0.48483,1.22262v0.02108c0,0.53402 -0.18972,0.99777 -0.56915,1.39125l-0.1054,0.1054v-0.02108l-0.29511,0.48483v-0.02108c-0.05621,0.15458 -0.07027,0.32322 -0.04216,0.50591l0.02108,0.18972v0.04216c-0.01405,0.57617 -0.22485,1.05398 -0.63239,1.43341c-0.33727,0.32322 -0.73076,0.49888 -1.18046,0.52699h-0.1054l-0.67455,-0.1054l-0.16864,-0.04216l-0.59023,-0.1054c-0.2108,0 -0.39349,0.07027 -0.54807,0.2108h-0.02108c-0.30917,0.25295 -0.67455,0.36538 -1.09614,0.33727h-0.04216c-0.53402,0 -0.98371,-0.18269 -1.34909,-0.54807l-0.1054,-0.12648l-0.14756,-0.18972l-0.1054,-0.16864l-0.35835,-0.40051l-0.02108,-0.02108l-0.48483,-0.2108l-0.1054,-0.02108c-0.32322,-0.07027 -0.61833,-0.22485 -0.88534,-0.46375l-0.12648,-0.1054c-0.35133,-0.37943 -0.52699,-0.82913 -0.52699,-1.34909v-0.02108c-0.01405,-0.46375 0.16161,-0.89237 0.52699,-1.28585l0.04216,-0.06324l0.02108,-0.02108l0.16864,-0.12648l0.29511,-0.35835l0.12648,-0.48483l0.02108,-0.02108c0.02811,-0.42159 0.18972,-0.80805 0.48483,-1.15938l0.06324,-0.04216c0.30917,-0.32322 0.65347,-0.49888 1.0329,-0.52699l0.54807,-0.27403l0.35835,-0.52699M243.74162,178.31339c-0.12648,-0.4778 -0.14053,-0.94858 -0.04216,-1.41233v-0.1054c0,-0.19674 -0.06324,-0.35835 -0.18972,-0.48483c-0.14053,-0.12648 -0.30214,-0.18972 -0.48483,-0.18972h-0.02108l-0.23188,0.02108c-0.6886,0.11242 -1.33504,0.00703 -1.93932,-0.31619l-0.27403,-0.04216h-0.02108c-0.19674,0 -0.36538,0.06324 -0.50591,0.18972l-0.14756,0.25295c-0.19674,0.53402 -0.51294,0.99074 -0.94858,1.37017c-0.43564,0.36538 -0.93453,0.59725 -1.49665,0.69563c-0.11242,0.01405 -0.21782,0.07027 -0.31619,0.16864c-0.11242,0.12648 -0.17566,0.26701 -0.18972,0.42159c-0.02811,0.43564 -0.14756,0.85724 -0.35835,1.26477c-0.2108,0.39349 -0.49888,0.72373 -0.86426,0.99074l-0.02108,0.02108c-0.12648,0.14053 -0.18972,0.29511 -0.18972,0.46375v0.02108c0,0.19674 0.06324,0.36538 0.18972,0.50591l0.35835,0.18972c0.4778,0.07027 0.92047,0.25295 1.32801,0.54807c0.39349,0.26701 0.70968,0.62536 0.94858,1.07506l0.14756,0.18972c0.12648,0.12648 0.28106,0.18972 0.46375,0.18972h0.04216l0.35835,-0.08432c0.4497,-0.33727 0.95561,-0.53402 1.51773,-0.59023c0.56212,-0.05621 1.09614,0.03513 1.60205,0.27403l0.29511,0.04216c0.16864,-0.01405 0.31619,-0.08432 0.44267,-0.2108c0.14053,-0.12648 0.2108,-0.28809 0.2108,-0.48483v-0.02108v-0.04216c-0.07027,-0.4778 -0.02811,-0.94155 0.12648,-1.39125c0.16864,-0.4497 0.41456,-0.84318 0.73778,-1.18046l0.12648,-0.12648c0.14053,-0.14053 0.2108,-0.30917 0.2108,-0.50591v-0.02108c0,-0.15458 -0.04919,-0.28809 -0.14756,-0.40051c-0.35133,-0.37943 -0.59023,-0.80805 -0.71671,-1.28585" fill="#e76916"/><path d="M237.6707,174.41367c0.14053,-0.42159 0.39349,-0.80805 0.75886,-1.15938c0.59023,-0.60428 1.32099,-0.91345 2.19228,-0.9275h0.02108c0.49186,0 0.94858,0.11242 1.37017,0.33727c0.35133,0.18269 0.73076,0.23188 1.1383,0.14756l0.59023,-0.06324h0.02108c0.87129,0.01405 1.60907,0.32322 2.21335,0.9275c0.59023,0.59023 0.88534,1.31396 0.88534,2.1712l-0.04216,0.67455c-0.04216,0.2389 -0.02108,0.48483 0.06324,0.73778c0.07027,0.22485 0.18972,0.43564 0.35835,0.63239c0.51996,0.57617 0.77994,1.25775 0.77994,2.04472c0,0.85724 -0.30214,1.58799 -0.90642,2.19228v0.02108l-0.16864,0.16864c-0.19674,0.18269 -0.33727,0.40051 -0.42159,0.65347c-0.08432,0.25295 -0.1054,0.51294 -0.06324,0.77994l0.02108,0.33727c0,0.85724 -0.30214,1.59502 -0.90642,2.21335c-0.60428,0.59023 -1.32099,0.89237 -2.15012,0.90642h-0.04216c-0.46375,-0.01405 -0.89939,-0.1054 -1.30693,-0.27403l-0.84318,-0.1054c-0.29511,0.02811 -0.56212,0.12648 -0.80102,0.29511c-0.51996,0.37943 -1.12424,0.56212 -1.81284,0.54807h-0.02108c-0.84318,0 -1.56691,-0.30214 -2.1712,-0.90642l-0.59023,-0.77994c-0.12648,-0.2389 -0.30214,-0.43564 -0.52699,-0.59023c-0.22485,-0.15458 -0.46375,-0.25295 -0.71671,-0.29511c-0.64644,-0.09837 -1.20856,-0.38646 -1.68637,-0.86426c-0.61833,-0.61833 -0.9275,-1.35612 -0.9275,-2.21335c0,-0.85724 0.30214,-1.58097 0.90642,-2.1712l0.04216,-0.06324l0.1054,-0.08432l0.54807,-0.59023l0.23188,-0.75886c0.04216,-0.75886 0.33727,-1.4053 0.88534,-1.93932v-0.02108c0.46375,-0.4778 1.01182,-0.76589 1.64421,-0.86426c0.29511,-0.04216 0.56915,-0.16864 0.8221,-0.37943c0.22485,-0.19674 0.39349,-0.44267 0.50591,-0.73778M238.5982,176.43731l-0.35835,0.52699l-0.54807,0.27403c-0.37943,0.02811 -0.72373,0.20377 -1.0329,0.52699l-0.06324,0.04216c-0.29511,0.35133 -0.45672,0.73778 -0.48483,1.15938l-0.02108,0.02108l-0.12648,0.48483l-0.29511,0.35835l-0.16864,0.12648l-0.02108,0.02108l-0.04216,0.06324c-0.36538,0.39349 -0.54104,0.8221 -0.52699,1.28585v0.02108c0,0.51996 0.17566,0.96966 0.52699,1.34909l0.12648,0.1054c0.26701,0.2389 0.56212,0.39349 0.88534,0.46375l0.1054,0.02108l0.48483,0.2108l0.02108,0.02108l0.35835,0.40051l0.1054,0.16864l0.14756,0.18972l0.1054,0.12648c0.36538,0.36538 0.81508,0.54807 1.34909,0.54807h0.04216c0.42159,0.02811 0.78697,-0.08432 1.09614,-0.33727h0.02108c0.15458,-0.14053 0.33727,-0.2108 0.54807,-0.2108l0.59023,0.1054l0.16864,0.04216l0.67455,0.1054h0.1054c0.4497,-0.02811 0.84318,-0.20377 1.18046,-0.52699c0.40754,-0.37943 0.61833,-0.85724 0.63239,-1.43341v-0.04216l-0.02108,-0.18972c-0.02811,-0.18269 -0.01405,-0.35133 0.04216,-0.50591v0.02108l0.29511,-0.48483v0.02108l0.1054,-0.1054c0.37943,-0.39349 0.56915,-0.85724 0.56915,-1.39125v-0.02108c0,-0.4778 -0.16161,-0.88534 -0.48483,-1.22262v-0.04216l-0.27403,-0.46375l-0.02108,-0.52699l0.02108,-0.29511v-0.08432c0,-0.56212 -0.18269,-1.01885 -0.54807,-1.37017l-0.04216,-0.04216c-0.39349,-0.35133 -0.84318,-0.52699 -1.34909,-0.52699h-0.02108l-0.40051,0.04216l-0.04216,0.02108c-0.2389,0.01405 -0.46375,-0.02811 -0.67455,-0.12648l-0.04216,-0.02108c-0.25295,-0.14053 -0.53402,-0.20377 -0.84318,-0.18972h-0.02108c-0.51996,0 -0.96263,0.17566 -1.32801,0.52699l-0.12648,0.12648c-0.19674,0.22485 -0.33025,0.44267 -0.40051,0.65347l0.02108,-0.02108" fill="#ff7419"/><path d="M240.60076,179.21981c-0.16864,0.16864 -0.37241,0.25998 -0.61131,0.27403c-0.2389,-0.01405 -0.44267,-0.1054 -0.61131,-0.27403l-3.05654,-2.8879l2.8879,3.05654c0.16864,0.16864 0.25295,0.37943 0.25295,0.63239c0,0.22485 -0.08432,0.42159 -0.25295,0.59023c-1.11019,1.11019 -2.07282,2.12904 -2.8879,3.05654l3.05654,-2.8879c0.16864,-0.16864 0.37241,-0.24593 0.61131,-0.23188c0.2389,-0.01405 0.44267,0.06324 0.61131,0.23188l3.05654,2.8879l-2.8879,-3.05654c-0.16864,-0.16864 -0.25295,-0.36538 -0.25295,-0.59023c0,-0.25295 0.08432,-0.46375 0.25295,-0.63239l2.8879,-3.05654c-0.9275,0.81508 -1.94635,1.77771 -3.05654,2.8879M244.66912,176.45839l-3.28841,3.54137c1.30693,1.30693 2.40307,2.48739 3.28841,3.54137c1.26477,1.43341 1.72852,2.27659 1.39125,2.52955c-0.25295,0.33727 -1.09614,-0.12648 -2.52955,-1.39125c-1.05398,-0.88534 -2.23443,-1.98148 -3.54137,-3.28841c-1.32099,1.32099 -2.50144,2.41712 -3.54137,3.28841c-1.44746,1.27883 -2.29065,1.74258 -2.52955,1.39125c-0.35133,-0.2389 0.11242,-1.08208 1.39125,-2.52955c0.87129,-1.03993 1.96743,-2.22038 3.28841,-3.54137c-1.32099,-1.32099 -2.41712,-2.50144 -3.28841,-3.54137c-1.27883,-1.44746 -1.74258,-2.29065 -1.39125,-2.52955c0.2389,-0.35133 1.08208,0.11242 2.52955,1.39125c1.03993,0.87129 2.22038,1.96743 3.54137,3.28841c1.30693,-1.30693 2.48739,-2.40307 3.54137,-3.28841c1.43341,-1.26477 2.27659,-1.72852 2.52955,-1.39125c0.33727,0.25295 -0.12648,1.09614 -1.39125,2.52955M245.40691,185.54368l0.12648,-0.12648h-0.12648v0.12648M245.53338,174.5823l-0.12648,-0.12648v0.12648h0.12648" fill="#ffcc00"/><path d="M240.60076,179.21981c1.11019,-1.11019 2.12904,-2.07282 3.05654,-2.8879l-2.8879,3.05654c-0.16864,0.16864 -0.25295,0.37943 -0.25295,0.63239c0,0.22485 0.08432,0.42159 0.25295,0.59023l2.8879,3.05654l-3.05654,-2.8879c-0.16864,-0.16864 -0.37241,-0.24593 -0.61131,-0.23188c-0.2389,-0.01405 -0.44267,0.06324 -0.61131,0.23188l-3.05654,2.8879c0.81508,-0.9275 1.77771,-1.94635 2.8879,-3.05654c0.16864,-0.16864 0.25295,-0.36538 0.25295,-0.59023c0,-0.25295 -0.08432,-0.46375 -0.25295,-0.63239l-2.8879,-3.05654l3.05654,2.8879c0.16864,0.16864 0.37241,0.25998 0.61131,0.27403c0.2389,-0.01405 0.44267,-0.1054 0.61131,-0.27403" fill="#f0c000"/><path d="M245.53338,174.5823h-0.12648v-0.12648l0.12648,0.12648M245.40691,185.54368v-0.12648h0.12648l-0.12648,0.12648" fill="#ecbc00"/></g></g></svg>