<svg version="1.1" xmlns="http://www.w3.org/2000/svg" xmlns:xlink="http://www.w3.org/1999/xlink" width="6.7509" height="5.0591" viewBox="0,0,6.7509,5.0591"><g transform="translate(-236.62455,-177.47045)"><g data-paper-data="{&quot;isPaintingLayer&quot;:true}" fill-rule="nonzero" stroke="none" stroke-width="1" stroke-linecap="butt" stroke-linejoin="miter" stroke-miterlimit="10" stroke-dasharray="" stroke-dashoffset="0" style="mix-blend-mode: normal"><path d="M239.15411,181.68637h1.68637c1.20856,-0.04216 1.77068,-0.60428 1.68637,-1.68637c0.08432,-1.08208 -0.4778,-1.64421 -1.68637,-1.68637l-1.68637,0l0,-0.84318h1.70745c0.87129,0.02811 1.50368,0.25998 1.89716,0.69563c0.4497,0.40754 0.65347,0.99777 0.61131,1.77068v0.04216v0.08432c0.04216,0.77292 -0.16161,1.36315 -0.61131,1.77068c-0.39349,0.43564 -1.02587,0.66752 -1.89716,0.69563h-1.70745l0,-0.84318" fill="#9a3127"/><path d="M239.15411,181.68637l0,0.84318h-1.68637c-0.2389,0 -0.44267,-0.07729 -0.61131,-0.23188c-0.15458,-0.16864 -0.23188,-0.37241 -0.23188,-0.61131v-3.37273c0,-0.2389 0.07729,-0.43564 0.23188,-0.59023c0.16864,-0.16864 0.37241,-0.25295 0.61131,-0.25295h1.68637l0,0.84318h-1.68637l0,3.37273h1.68637" fill="#6b8183"/><path d="M239.15411,181.68637l0,-3.37273h1.68637l0,3.37273h-1.68637" fill="#e74c3c"/><path d="M240.84048,178.31364c1.20856,0.04216 1.77068,0.60428 1.68637,1.68637c0.08432,1.08208 -0.4778,1.64421 -1.68637,1.68637l0,-3.37273" fill="#d04435"/><path d="M239.15411,181.68637h-1.68637l0,-3.37273l1.68637,0l0,3.37273" fill="#89a4a6"/></g></g></svg>