<svg version="1.1" xmlns="http://www.w3.org/2000/svg" xmlns:xlink="http://www.w3.org/1999/xlink" width="11.2536" height="11.2536" viewBox="0,0,11.2536,11.2536"><g transform="translate(-234.3732,-174.3732)"><g data-paper-data="{&quot;isPaintingLayer&quot;:true}" fill-rule="nonzero" stroke="none" stroke-width="1" stroke-linecap="butt" stroke-linejoin="miter" stroke-miterlimit="10" stroke-dasharray="" stroke-dashoffset="0" style="mix-blend-mode: normal"><path d="M234.9984,177.21786v5.57991c0,1.46922 0.73982,2.20383 2.21946,2.20383h5.56428c1.47964,0 2.21946,-0.73461 2.21946,-2.20383v-5.57991c0,-1.47964 -0.73982,-2.21946 -2.21946,-2.21946h-5.56428c-1.47964,0 -2.21946,0.73982 -2.21946,2.21946M234.3732,177.21786c0,-1.89644 0.94822,-2.84466 2.84466,-2.84466h5.56428c1.89644,0 2.84466,0.94822 2.84466,2.84466v5.57991c0,0.9378 -0.24487,1.63594 -0.73461,2.09442c-0.4689,0.48974 -1.17225,0.73461 -2.11005,0.73461h-5.56428c-0.9378,0 -1.64115,-0.24487 -2.11005,-0.73461c-0.48974,-0.45848 -0.73461,-1.15662 -0.73461,-2.09442v-5.57991" fill="#999999"/><path d="M234.9984,177.21786c0,-1.47964 0.73982,-2.21946 2.21946,-2.21946h5.56428c1.47964,0 2.21946,0.73982 2.21946,2.21946v5.57991c0,1.46922 -0.73982,2.20383 -2.21946,2.20383h-5.56428c-1.47964,0 -2.21946,-0.73461 -2.21946,-2.20383v-5.57991M235.6236,182.79777c0,1.05242 0.53142,1.57863 1.59426,1.57863h5.56428c1.06284,0 1.59426,-0.52621 1.59426,-1.57863v-5.57991c0,-1.06284 -0.53142,-1.59426 -1.59426,-1.59426h-5.56428c-1.06284,0 -1.59426,0.53142 -1.59426,1.59426v5.57991" fill="#ffffff"/><path d="M235.6236,182.79777v-5.57991c0,-1.06284 0.53142,-1.59426 1.59426,-1.59426h5.56428c1.06284,0 1.59426,0.53142 1.59426,1.59426v5.57991c0,1.05242 -0.53142,1.57863 -1.59426,1.57863h-5.56428c-1.06284,0 -1.59426,-0.52621 -1.59426,-1.57863" fill="#eeeeee"/><path d="M236.88963,179.48421l0.04689,-0.06252l1.70367,-0.95343l0.09378,-0.01563l0.06252,0.04689l0.71898,1.03158l2.04753,-2.62584l0.07815,-0.03126l0.06252,0.01563l1.70367,1.12536l0.04689,0.06252l-0.01563,0.07815l-3.86061,4.92345l-0.04689,0.04689l-0.06252,-0.01563l-0.06252,-0.03126l-2.5008,-3.51675l-0.01563,-0.07815" fill="#e86a17"/></g></g></svg>