<svg version="1.1" xmlns="http://www.w3.org/2000/svg" xmlns:xlink="http://www.w3.org/1999/xlink" width="26.98185" height="26.98185" viewBox="0,0,26.98185,26.98185"><g transform="translate(-226.50908,-166.50907)"><g data-paper-data="{&quot;isPaintingLayer&quot;:true}" fill-rule="nonzero" stroke="none" stroke-width="1" stroke-linecap="butt" stroke-linejoin="miter" stroke-miterlimit="10" stroke-dasharray="" stroke-dashoffset="0" style="mix-blend-mode: normal"><path d="M231.39954,170.21908l-1.01182,-1.34909l1.34909,-1.01182l1.01182,1.34909l-1.34909,1.01182M247.58865,171.56818v-1.68637h1.68637v1.68637h-1.68637M250.28683,174.98307l0.65347,-1.55989l1.55989,0.65347l-0.65347,1.55989l-1.55989,-0.65347M242.57171,175.97381l0.63239,1.53881l-1.55989,0.63239l-0.63239,-1.53881l1.55989,-0.63239M245.79689,191.48838l-2.52955,-0.2108l0.2108,-2.50847l2.52955,0.2108l-0.2108,2.50847M250.91922,181.03291l-0.96966,2.31875l-2.31875,-0.99074l0.96966,-2.31875l2.31875,0.99074M236.01596,174.28745l-2.48739,-0.37943l0.37943,-2.50847l2.48739,0.37943l-0.37943,2.50847M230.02937,189.59121l-0.88534,-1.43341l1.43341,-0.88534l0.88534,1.43341l-1.43341,0.88534M233.59181,189.04314l1.60205,0.56915l-0.56915,1.58097l-1.60205,-0.56915l0.56915,-1.58097" fill="#35b66b"/><path d="M233.59181,189.04314l-0.56915,1.58097l1.60205,0.56915l0.56915,-1.58097l-1.60205,-0.56915M231.39954,170.21908l1.34909,-1.01182l-1.01182,-1.34909l-1.34909,1.01182l1.01182,1.34909M253.49092,166.50908v26.98185h-26.98185v-26.98185h26.98185M250.28683,174.98307l1.55989,0.65347l0.65347,-1.55989l-1.55989,-0.65347l-0.65347,1.55989M247.58865,171.56818h1.68637v-1.68637h-1.68637v1.68637M251.46729,188.51616l-1.68637,-0.14756l-0.14756,1.68637l1.68637,0.14756l0.14756,-1.68637M250.91922,181.03291l-2.31875,-0.99074l-0.96966,2.31875l2.31875,0.99074l0.96966,-2.31875M245.79689,191.48838l0.2108,-2.50847l-2.52955,-0.2108l-0.2108,2.50847l2.52955,0.2108M242.57171,175.97381l-1.55989,0.63239l0.63239,1.53881l1.55989,-0.63239l-0.63239,-1.53881M239.68381,170.49312l0.9275,1.39125l1.41233,-0.9275l-0.9275,-1.39125l-1.41233,0.9275M236.01596,174.28745l0.37943,-2.50847l-2.48739,-0.37943l-0.37943,2.50847l2.48739,0.37943M228.95431,179.34654l1.9604,1.60205l1.60205,-1.9604l-1.9604,-1.60205l-1.60205,1.9604M228.5538,176.54295l1.26477,-1.11722l-1.1383,-1.24369l-1.26477,1.11722l1.1383,1.24369M230.02937,189.59121l1.43341,-0.88534l-0.88534,-1.43341l-1.43341,0.88534l0.88534,1.43341M240.73779,183.43598l-2.36091,0.88534l0.88534,2.38199l2.36091,-0.88534l-0.88534,-2.38199" fill="#39c272"/><path d="M240.73779,183.43598l0.88534,2.38199l-2.36091,0.88534l-0.88534,-2.38199l2.36091,-0.88534M251.46729,188.51616l-0.14756,1.68637l-1.68637,-0.14756l0.14756,-1.68637l1.68637,0.14756M239.6838,170.49312l1.41233,-0.9275l0.9275,1.39125l-1.41233,0.9275l-0.9275,-1.39125M228.5538,176.54295l-1.1383,-1.24369l1.26477,-1.11722l1.1383,1.24369l-1.26477,1.11722M228.95431,179.34654l1.60205,-1.9604l1.9604,1.60205l-1.60205,1.9604l-1.9604,-1.60205" fill="#43cd7d"/></g></g></svg>