<svg version="1.1" xmlns="http://www.w3.org/2000/svg" xmlns:xlink="http://www.w3.org/1999/xlink" width="21.09363" height="21.07699" viewBox="0,0,21.09363,21.07699"><g transform="translate(-229.45318,-169.4615)"><g data-paper-data="{&quot;isPaintingLayer&quot;:true}" fill-rule="nonzero" stroke="none" stroke-width="1" stroke-linecap="butt" stroke-linejoin="miter" stroke-miterlimit="10" stroke-dasharray="" stroke-dashoffset="0" style="mix-blend-mode: normal"><path d="M234.42093,170.98873l0.02108,-0.02108c0.28106,-0.30917 0.59725,-0.47078 0.94858,-0.48483l-0.04216,0.02108c0.74481,-0.09837 1.25775,0.09134 1.53881,0.56915l0.02108,0.04216c0.15458,0.2389 0.25998,0.5551 0.31619,0.94858v0.08432l-0.02108,0.67455v0.02108l0.02108,0.25295c0.15458,0.11242 0.37241,0.19674 0.65347,0.25295h0.02108l0.44267,0.02108l0.35835,-0.12648l0.04216,-0.04216l0.02108,-0.02108l0.02108,-0.12648l0.02108,-0.1054l-0.02108,-0.25295l-0.1054,-0.73778v-0.02108c-0.01405,-0.64644 0.11945,-1.18046 0.40051,-1.60205l0.02108,-0.02108c0.18269,-0.32322 0.42862,-0.54807 0.73778,-0.67455h-0.02108c0.37943,-0.18269 0.74481,-0.22485 1.09614,-0.12648l0.02108,0.02108c0.2389,0.05621 0.45672,0.15458 0.65347,0.29511h0.02108l0.27403,0.25295l0.1054,0.12648c0.2108,0.32322 0.40051,0.52699 0.56915,0.61131l0.14756,0.04216c0.39349,0.14053 0.63941,0.41456 0.73778,0.8221v0.02108c0.05621,0.22485 0.04216,0.54104 -0.04216,0.94858l-0.04216,0.27403l0.02108,0.02108l0.02108,0.08432l0.1054,0.04216l0.06324,0.02108l0.14756,-0.04216l0.02108,-0.02108l0.12648,-0.08432l0.06324,-0.1054l0.16864,-0.23188l0.25295,-0.52699c0.14053,-0.22485 0.29511,-0.38646 0.46375,-0.48483l-0.02108,0.02108c0.25295,-0.18269 0.51996,-0.27403 0.80102,-0.27403l0.16864,0.02108c0.2389,0.04216 0.47078,0.14053 0.69563,0.29511l0.06324,0.04216c0.26701,0.2108 0.4497,0.47078 0.54807,0.77994v0.04216c0.07027,0.25295 0.05621,0.52699 -0.04216,0.8221l-0.04216,0.1054l-0.35835,0.52699l0.04216,-0.06324l-0.46375,0.37943l0.12648,0.18972l0.02108,0.02108c0.19674,0.28106 0.31619,0.54104 0.35835,0.77994l0.02108,0.16864c0.01405,0.28106 -0.08432,0.59023 -0.29511,0.9275l-0.06324,0.08432l-0.23188,0.29511l-0.02108,0.02108l-0.1054,0.08432l0.2108,0.14756h0.04216l0.77994,0.27403l1.0329,0.16864l0.14756,0.02108h0.50591c0.4778,0.02811 0.85021,0.14053 1.11722,0.33727c0.33727,0.18269 0.5551,0.49888 0.65347,0.94858c0.11242,0.53402 0,0.96263 -0.33727,1.28585c-0.02811,0 -0.04919,0.01405 -0.06324,0.04216c-0.2389,0.22485 -0.54807,0.32322 -0.9275,0.29511h-0.06324l-0.56915,-0.12648h-0.02108l-0.35835,-0.16864h-0.06324v0.04216l0.1054,0.65347c0,0.4778 -0.19674,0.85724 -0.59023,1.1383l-0.04216,0.04216c-0.36538,0.25295 -0.72373,0.32322 -1.07506,0.2108l0.1054,0.16864l0.46375,0.69563c0.25295,0.42159 0.32322,0.86426 0.2108,1.32801c-0.07027,0.30917 -0.22485,0.56915 -0.46375,0.77994c-0.33727,0.28106 -0.70265,0.35835 -1.09614,0.23188l-0.02108,-0.02108h-0.04216l-0.69563,-0.29511l-0.12648,-0.06324l-0.02108,0.1054v0.04216l0.06324,0.54807l0.23188,0.59023l0.16864,0.25295l0.02108,0.04216c0.18269,0.28106 0.28106,0.54104 0.29511,0.77994v-0.04216c0.09837,0.61833 -0.11945,1.12424 -0.65347,1.51773l0.02108,-0.02108c-0.59023,0.4497 -1.15235,0.49186 -1.68637,0.12648h-0.02108c-0.56212,-0.30917 -0.8221,-0.94155 -0.77994,-1.89716v-0.04216v-0.04216l-0.44267,-0.46375l-0.42159,-0.52699v0.02108l0.08432,0.59023v-0.04216l0.02108,0.88534l-0.02108,0.04216l-0.18972,0.54807l-0.04216,0.06324c-0.2389,0.30917 -0.49888,0.4778 -0.77994,0.50591h-0.06324l0.04216,0.37943c0.01405,0.56212 -0.2389,1.00479 -0.75886,1.32801c-0.50591,0.28106 -0.99074,0.31619 -1.45449,0.1054h-0.02108c-0.30917,-0.12648 -0.54807,-0.33727 -0.71671,-0.63239c-0.16864,-0.28106 -0.25295,-0.5832 -0.25295,-0.90642c0,-0.25295 0.04919,-0.5832 0.14756,-0.99074l0.02108,-0.02108l0.14756,-0.67455l-0.04216,-0.16864l-0.2108,-0.27403h0.02108c-0.2108,-0.18269 -0.43564,-0.33025 -0.67455,-0.44267l-0.69563,-0.18972l-0.04216,0.14756l-0.02108,0.02108l-0.35835,0.80102l-0.61131,0.54807l-0.04216,0.02108l-0.94858,0.06324c-0.29511,-0.07027 -0.54104,-0.26701 -0.73778,-0.59023v-0.02108c-0.14053,-0.22485 -0.2108,-0.47078 -0.2108,-0.73778l0.02108,-0.1054c0.04216,-0.50591 0.33727,-0.96966 0.88534,-1.39125l0.02108,-0.02108l0.35835,-0.23188l-0.02108,-0.02108v-0.04216l-0.14756,-0.29511c-0.25295,-0.42159 -0.56915,-0.73778 -0.94858,-0.94858l-0.02108,-0.02108c-0.16864,0.07027 -0.40754,0.18972 -0.71671,0.35835h-0.02108l-1.01182,0.42159l-0.96966,-0.02108h0.02108c-0.35133,-0.11242 -0.62536,-0.30917 -0.8221,-0.59023l-0.02108,-0.02108c-0.28106,-0.37943 -0.39349,-0.81508 -0.33727,-1.30693c0.05621,-0.57617 0.30214,-0.99777 0.73778,-1.26477l0.06324,-0.04216c0.2389,-0.14053 0.56212,-0.22485 0.96966,-0.25295h-0.04216l0.65347,-0.04216l0.54807,-0.08432l0.04216,-0.02108l0.35835,-0.23188l0.02108,-0.02108c0.28106,-0.25295 0.45672,-0.51996 0.52699,-0.80102v-0.02108l0.02108,-0.06324l-0.25295,-0.06324l-0.80102,-0.16864l-0.04216,-0.02108l-0.63239,-0.33727l0.02108,0.02108c-0.33727,-0.2389 -0.56212,-0.52699 -0.67455,-0.86426v-0.04216c-0.14053,-0.4497 -0.09837,-0.88534 0.12648,-1.30693c0.19674,-0.4778 0.51996,-0.794 0.96966,-0.94858c0.4497,-0.2108 0.93453,-0.15458 1.45449,0.16864l-0.06324,-0.04216l0.50591,0.37943l0.25295,0.29511l0.27403,0.2108l0.16864,-0.65347l-0.02108,0.02108v-0.80102v-0.02108c-0.02811,-0.56212 -0.16161,-1.12424 -0.40051,-1.68637v-0.04216l-0.2108,-0.54807v-0.04216c-0.09837,-0.30917 -0.1335,-0.59023 -0.1054,-0.84318l0.02108,-0.12648c0.08432,-0.30917 0.2389,-0.5832 0.46375,-0.8221M239.79622,170.75686c-0.19674,0.30917 -0.28809,0.70265 -0.27403,1.18046l0.08432,0.59023l0.02108,0.59023l-0.14756,0.48483l-0.33727,0.33727l-0.67455,0.25295l-0.71671,-0.02108c-0.4778,-0.07027 -0.85021,-0.22485 -1.11722,-0.46375c-0.2108,-0.19674 -0.30214,-0.50591 -0.27403,-0.9275l0.02108,-0.63239l-0.18972,-0.59023c-0.14053,-0.19674 -0.38646,-0.27403 -0.73778,-0.23188c-0.15458,0.01405 -0.29511,0.09134 -0.42159,0.23188c-0.12648,0.12648 -0.2108,0.27403 -0.25295,0.44267l0.06324,0.54807l0.18972,0.52699c0.28106,0.67455 0.43564,1.33504 0.46375,1.98148v0.94858l-0.25295,0.9275l-0.33727,0.37943l-0.46375,0.1054c-0.30917,-0.05621 -0.59023,-0.22485 -0.84318,-0.50591l-0.23188,-0.27403l-0.27403,-0.2108c-0.25295,-0.15458 -0.48483,-0.18972 -0.69563,-0.1054c-0.2389,0.08432 -0.41456,0.25295 -0.52699,0.50591c-0.12648,0.2389 -0.15458,0.48483 -0.08432,0.73778c0.05621,0.16864 0.16864,0.30917 0.33727,0.42159l0.48483,0.25295l0.61131,0.12648l0.61131,0.16864c0.15458,0.09837 0.25998,0.24593 0.31619,0.44267c0.05621,0.18269 0.06324,0.36538 0.02108,0.54807c-0.09837,0.4497 -0.35835,0.86426 -0.77994,1.24369l-0.69563,0.44267l-0.80102,0.14756l-0.61131,0.04216c-0.25295,0.01405 -0.45672,0.06324 -0.61131,0.14756c-0.2108,0.14053 -0.33025,0.35835 -0.35835,0.65347c-0.02811,0.28106 0.03513,0.52699 0.18972,0.73778l0.40051,0.29511c0.15458,0.05621 0.30917,0.05621 0.46375,0l0.86426,-0.35835l0.84318,-0.40051l0.35835,-0.04216l0.35835,0.12648c0.49186,0.28106 0.90642,0.69563 1.24369,1.24369l0.23188,0.50591c0.07027,0.2108 0.08432,0.40051 0.04216,0.56915l-0.29511,0.35835l-0.40051,0.29511c-0.33727,0.25295 -0.52699,0.52699 -0.56915,0.8221l0.08432,0.31619l0.25295,0.2108l0.37943,-0.02108l0.27403,-0.25295l0.27403,-0.61131l0.25295,-0.61131c0.05621,-0.08432 0.14756,-0.1335 0.27403,-0.14756h0.31619c0.36538,0.02811 0.71671,0.11945 1.05398,0.27403c0.33727,0.15458 0.63941,0.35835 0.90642,0.61131l0.37943,0.52699c0.09837,0.2108 0.14053,0.41456 0.12648,0.61131l-0.18972,0.80102c-0.08432,0.33727 -0.12648,0.60428 -0.12648,0.80102c0,0.16864 0.04216,0.32322 0.12648,0.46375l0.33727,0.29511l0.69563,-0.06324c0.2389,-0.14053 0.35835,-0.33727 0.35835,-0.59023l-0.16864,-0.59023l-0.16864,-0.59023l0.06324,-0.16864c0.04216,-0.04216 0.08432,-0.06324 0.12648,-0.06324l0.44267,0.08432l0.42159,0.1054l0.23188,-0.16864l0.1054,-0.29511l-0.02108,-0.59023l-0.08432,-0.61131l0.02108,-0.61131c0.01405,-0.2389 0.07027,-0.43564 0.16864,-0.59023c0.07027,-0.12648 0.17566,-0.22485 0.31619,-0.29511c0.14053,-0.05621 0.27403,-0.05621 0.40051,0l0.35835,0.37943l0.25295,0.46375l0.35835,0.50591l0.42159,0.42159l0.2108,0.31619l0.04216,0.37943c-0.02811,0.59023 0.1054,0.98371 0.40051,1.18046c0.22485,0.14053 0.46375,0.11242 0.71671,-0.08432c0.25295,-0.18269 0.35835,-0.41456 0.31619,-0.69563l-0.16864,-0.42159l-0.23188,-0.35835l-0.29511,-0.75886c-0.07027,-0.26701 -0.09837,-0.53402 -0.08432,-0.80102l0.1054,-0.48483l0.27403,-0.37943c0.14053,-0.11242 0.26701,-0.16161 0.37943,-0.14756c0.16864,0.01405 0.37241,0.08432 0.61131,0.2108l0.61131,0.25295l0.31619,-0.06324l0.18972,-0.31619c0.05621,-0.25295 0.01405,-0.49888 -0.12648,-0.73778c-0.14053,-0.25295 -0.33727,-0.40754 -0.59023,-0.46375l-0.42159,0.08432l-0.42159,0.08432l-0.16864,-0.16864l-0.06324,-0.25295c-0.05621,-0.56212 0.01405,-1.08208 0.2108,-1.55989l0.27403,-0.42159c0.14053,-0.11242 0.28809,-0.16161 0.44267,-0.14756c0.18269,0.01405 0.36538,0.11242 0.54807,0.29511l0.46375,0.42159l0.50591,-0.06324c0.16864,-0.11242 0.25295,-0.26701 0.25295,-0.46375l-0.08432,-0.46375l-0.1054,-0.44267c-0.01405,-0.14053 0.00703,-0.27403 0.06324,-0.40051c0.05621,-0.14053 0.14756,-0.22485 0.27403,-0.25295l0.65347,0.02108l0.63239,0.2108l0.37943,0.08432l0.37943,-0.1054c0.12648,-0.12648 0.16864,-0.29511 0.12648,-0.50591c-0.04216,-0.19674 -0.14053,-0.33727 -0.29511,-0.42159c-0.16864,-0.11242 -0.40051,-0.17566 -0.69563,-0.18972l-0.73778,-0.04216l-1.05398,-0.16864c-0.39349,-0.08432 -0.73076,-0.19674 -1.01182,-0.33727c-0.35133,-0.15458 -0.5832,-0.35835 -0.69563,-0.61131c-0.08432,-0.2389 -0.00703,-0.52699 0.23188,-0.86426l0.29511,-0.37943l0.16864,-0.46375l-0.23188,-0.46375l-0.29511,-0.42159l-0.12648,-0.35835c-0.02811,-0.15458 0,-0.27403 0.08432,-0.35835l0.33727,-0.23188l0.35835,-0.25295l0.2108,-0.29511l0.02108,-0.35835l-0.25295,-0.35835l-0.40051,-0.16864c-0.11242,0 -0.21782,0.03513 -0.31619,0.1054l-0.23188,0.25295l-0.2108,0.44267l-0.27403,0.40051l-0.48483,0.42159l-0.63239,0.1054c-0.2108,-0.01405 -0.40754,-0.09837 -0.59023,-0.25295c-0.16864,-0.15458 -0.27403,-0.3443 -0.31619,-0.56915c-0.02811,-0.14053 -0.01405,-0.3443 0.04216,-0.61131l0.04216,-0.61131c-0.02811,-0.11242 -0.09837,-0.18972 -0.2108,-0.23188c-0.37943,-0.07027 -0.75886,-0.40051 -1.1383,-0.99074l-0.14756,-0.12648l-0.42159,-0.18972l-0.52699,0.06324c-0.15458,0.07027 -0.28106,0.18972 -0.37943,0.35835M240.21781,188.12642l-0.02108,0.02108v0.02108l0.02108,-0.04216" fill="#383428"/><path d="M235.51707,172.06379l0.08432,0.06324l-0.06324,0.04216l-0.02108,-0.1054M236.0019,177.29153l0.27403,-0.84318c0.16864,-0.87129 0.70968,-1.34207 1.62313,-1.41233h0.67455h0.04216c0.36538,-0.07027 0.69563,-0.19674 0.99074,-0.37943c0.25295,-0.14053 0.45672,-0.35835 0.61131,-0.65347v0.04216l0.25295,-0.63239l0.33727,-1.26477c0.2108,-0.6886 0.43564,-0.56915 0.67455,0.35835c0.22485,0.91345 0.49186,1.5107 0.80102,1.79176l0.02108,0.02108c0.33727,0.28106 0.70265,0.42862 1.09614,0.44267h-0.06324h0.40051c0.95561,0.12648 1.19451,0.63941 0.71671,1.53881c-0.19674,0.42159 -0.2108,0.80805 -0.04216,1.15938l0.02108,0.04216c0.16864,0.42159 0.52699,0.76589 1.07506,1.0329l0.04216,0.02108l0.25295,0.1054c0.82913,0.36538 0.72373,0.67455 -0.31619,0.9275c-0.28106,0.09837 -0.56915,0.26701 -0.86426,0.50591l-0.06324,0.06324c-0.19674,0.18269 -0.35133,0.41456 -0.46375,0.69563c-0.25295,0.60428 -0.3443,1.25775 -0.27403,1.9604l0.02108,0.02108v0.12648c-0.09837,1.12424 -0.67455,1.42638 -1.72852,0.90642l-0.06324,-0.04216h-0.04216l-1.05398,-0.02108l-0.06324,0.02108c-0.29511,0.15458 -0.51996,0.37241 -0.67455,0.65347c-0.15458,0.22485 -0.24593,0.42862 -0.27403,0.61131l-0.25295,0.86426c-0.14053,0.37943 -0.46375,0.2389 -0.96966,-0.42159l-0.02108,-0.02108l-0.90642,-0.67455l-0.99074,-0.44267c-0.39349,-0.15458 -0.73076,-0.46375 -1.01182,-0.9275c-0.28106,-0.4778 -0.5832,-0.86426 -0.90642,-1.15938c-0.4778,-0.49186 -0.54104,-1.08911 -0.18972,-1.79176l0.29511,-0.80102c0.07027,-0.33727 0.05621,-0.66752 -0.04216,-0.99074l0.02108,0.02108l0.06324,-0.46375l0.18972,-0.16864l0.16864,-0.1054c0.25295,-0.16864 0.4497,-0.39349 0.59023,-0.67455l0.02108,-0.04216M242.53657,175.79488l-0.12648,-0.29511c-0.07027,-0.08432 -0.16864,-0.12648 -0.29511,-0.12648c-0.11242,0 -0.2108,0.04216 -0.29511,0.12648c-0.08432,0.08432 -0.12648,0.18269 -0.12648,0.29511c0,0.12648 0.04216,0.22485 0.12648,0.29511l0.29511,0.12648l0.29511,-0.12648l0.12648,-0.29511M238.32065,182.11875l-0.12648,-0.29511c-0.07027,-0.08432 -0.16864,-0.12648 -0.29511,-0.12648c-0.11242,0 -0.2108,0.04216 -0.29511,0.12648c-0.08432,0.08432 -0.12648,0.18269 -0.12648,0.29511c0,0.12648 0.04216,0.22485 0.12648,0.29511c0.08432,0.08432 0.18269,0.12648 0.29511,0.12648c0.12648,0 0.22485,-0.04216 0.29511,-0.12648l0.12648,-0.29511M237.47747,180.43238c0,-0.2389 -0.08432,-0.44267 -0.25295,-0.61131c-0.15458,-0.15458 -0.35133,-0.23188 -0.59023,-0.23188c-0.2389,0 -0.44267,0.07729 -0.61131,0.23188c-0.15458,0.16864 -0.23188,0.37241 -0.23188,0.61131c0,0.2389 0.07729,0.43564 0.23188,0.59023c0.16864,0.16864 0.37241,0.25295 0.61131,0.25295c0.2389,0 0.43564,-0.08432 0.59023,-0.25295c0.16864,-0.15458 0.25295,-0.35133 0.25295,-0.59023" fill="#403c2f"/><path d="M237.47747,180.43238c0,0.2389 -0.08432,0.43564 -0.25295,0.59023c-0.15458,0.16864 -0.35133,0.25295 -0.59023,0.25295c-0.2389,0 -0.44267,-0.08432 -0.61131,-0.25295c-0.15458,-0.15458 -0.23188,-0.35133 -0.23188,-0.59023c0,-0.2389 0.07729,-0.44267 0.23188,-0.61131c0.16864,-0.15458 0.37241,-0.23188 0.61131,-0.23188c0.2389,0 0.43564,0.07729 0.59023,0.23188c0.16864,0.16864 0.25295,0.37241 0.25295,0.61131M239.79622,170.75686c0.09837,-0.16864 0.22485,-0.28809 0.37943,-0.35835l0.52699,-0.06324l0.42159,0.18972l0.14756,0.12648c0.37943,0.59023 0.75886,0.92047 1.1383,0.99074c0.11242,0.04216 0.18269,0.11945 0.2108,0.23188l-0.04216,0.61131c-0.05621,0.26701 -0.07027,0.47078 -0.04216,0.61131c0.04216,0.22485 0.14756,0.41456 0.31619,0.56915c0.18269,0.15458 0.37943,0.2389 0.59023,0.25295l0.63239,-0.1054l0.48483,-0.42159l0.27403,-0.40051l0.2108,-0.44267l0.23188,-0.25295c0.09837,-0.07027 0.20377,-0.1054 0.31619,-0.1054l0.40051,0.16864l0.25295,0.35835l-0.02108,0.35835l-0.2108,0.29511l-0.35835,0.25295l-0.33727,0.23188c-0.08432,0.08432 -0.11242,0.20377 -0.08432,0.35835l0.12648,0.35835l0.29511,0.42159l0.23188,0.46375l-0.16864,0.46375l-0.29511,0.37943c-0.2389,0.33727 -0.31619,0.62536 -0.23188,0.86426c0.11242,0.25295 0.3443,0.45672 0.69563,0.61131c0.28106,0.14053 0.61833,0.25295 1.01182,0.33727l1.05398,0.16864l0.73778,0.04216c0.29511,0.01405 0.52699,0.07729 0.69563,0.18972c0.15458,0.08432 0.25295,0.22485 0.29511,0.42159c0.04216,0.2108 0,0.37943 -0.12648,0.50591l-0.37943,0.1054l-0.37943,-0.08432l-0.63239,-0.2108l-0.65347,-0.02108c-0.12648,0.02811 -0.21782,0.11242 -0.27403,0.25295c-0.05621,0.12648 -0.07729,0.25998 -0.06324,0.40051l0.1054,0.44267l0.08432,0.46375c0,0.19674 -0.08432,0.35133 -0.25295,0.46375l-0.50591,0.06324l-0.46375,-0.42159c-0.18269,-0.18269 -0.36538,-0.28106 -0.54807,-0.29511c-0.15458,-0.01405 -0.30214,0.03513 -0.44267,0.14756l-0.27403,0.42159c-0.19674,0.4778 -0.26701,0.99777 -0.2108,1.55989l0.06324,0.25295l0.16864,0.16864l0.42159,-0.08432l0.42159,-0.08432c0.25295,0.05621 0.4497,0.2108 0.59023,0.46375c0.14053,0.2389 0.18269,0.48483 0.12648,0.73778l-0.18972,0.31619l-0.31619,0.06324l-0.61131,-0.25295c-0.2389,-0.12648 -0.44267,-0.19674 -0.61131,-0.2108c-0.11242,-0.01405 -0.2389,0.03513 -0.37943,0.14756l-0.27403,0.37943l-0.1054,0.48483c-0.01405,0.26701 0.01405,0.53402 0.08432,0.80102l0.29511,0.75886l0.23188,0.35835l0.16864,0.42159c0.04216,0.28106 -0.06324,0.51294 -0.31619,0.69563c-0.25295,0.19674 -0.49186,0.22485 -0.71671,0.08432c-0.29511,-0.19674 -0.42862,-0.59023 -0.40051,-1.18046l-0.04216,-0.37943l-0.2108,-0.31619l-0.42159,-0.42159l-0.35835,-0.50591l-0.25295,-0.46375l-0.35835,-0.37943c-0.12648,-0.05621 -0.25998,-0.05621 -0.40051,0c-0.14053,0.07027 -0.24593,0.16864 -0.31619,0.29511c-0.09837,0.15458 -0.15458,0.35133 -0.16864,0.59023l-0.02108,0.61131l0.08432,0.61131l0.02108,0.59023l-0.1054,0.29511l-0.23188,0.16864l-0.42159,-0.1054l-0.44267,-0.08432c-0.04216,0 -0.08432,0.02108 -0.12648,0.06324l-0.06324,0.16864l0.16864,0.59023l0.16864,0.59023c0,0.25295 -0.11945,0.4497 -0.35835,0.59023l-0.69563,0.06324l-0.33727,-0.29511c-0.08432,-0.14053 -0.12648,-0.29511 -0.12648,-0.46375c0,-0.19674 0.04216,-0.46375 0.12648,-0.80102l0.18972,-0.80102c0.01405,-0.19674 -0.02811,-0.40051 -0.12648,-0.61131l-0.37943,-0.52699c-0.26701,-0.25295 -0.56915,-0.45672 -0.90642,-0.61131c-0.33727,-0.15458 -0.6886,-0.24593 -1.05398,-0.27403h-0.31619c-0.12648,0.01405 -0.21782,0.06324 -0.27403,0.14756l-0.25295,0.61131l-0.27403,0.61131l-0.27403,0.25295l-0.37943,0.02108l-0.25295,-0.2108l-0.08432,-0.31619c0.04216,-0.29511 0.23188,-0.56915 0.56915,-0.8221l0.40051,-0.29511l0.29511,-0.35835c0.04216,-0.16864 0.02811,-0.35835 -0.04216,-0.56915l-0.23188,-0.50591c-0.33727,-0.54807 -0.75184,-0.96263 -1.24369,-1.24369l-0.35835,-0.12648l-0.35835,0.04216l-0.84318,0.40051l-0.86426,0.35835c-0.15458,0.05621 -0.30917,0.05621 -0.46375,0l-0.40051,-0.29511c-0.15458,-0.2108 -0.21782,-0.45672 -0.18972,-0.73778c0.02811,-0.29511 0.14756,-0.51294 0.35835,-0.65347c0.15458,-0.08432 0.35835,-0.1335 0.61131,-0.14756l0.61131,-0.04216l0.80102,-0.14756l0.69563,-0.44267c0.42159,-0.37943 0.68157,-0.794 0.77994,-1.24369c0.04216,-0.18269 0.03513,-0.36538 -0.02108,-0.54807c-0.05621,-0.19674 -0.16161,-0.3443 -0.31619,-0.44267l-0.61131,-0.16864l-0.61131,-0.12648l-0.48483,-0.25295c-0.16864,-0.11242 -0.28106,-0.25295 -0.33727,-0.42159c-0.07027,-0.25295 -0.04216,-0.49888 0.08432,-0.73778c0.11242,-0.25295 0.28809,-0.42159 0.52699,-0.50591c0.2108,-0.08432 0.44267,-0.04919 0.69563,0.1054l0.27403,0.2108l0.23188,0.27403c0.25295,0.28106 0.53402,0.4497 0.84318,0.50591l0.46375,-0.1054l0.33727,-0.37943l0.25295,-0.9275v-0.94858c-0.02811,-0.64644 -0.18269,-1.30693 -0.46375,-1.98148l-0.18972,-0.52699l-0.06324,-0.54807c0.04216,-0.16864 0.12648,-0.31619 0.25295,-0.44267c0.12648,-0.14053 0.26701,-0.21782 0.42159,-0.23188c0.35133,-0.04216 0.59725,0.03513 0.73778,0.23188l0.18972,0.59023l-0.02108,0.63239c-0.02811,0.42159 0.06324,0.73076 0.27403,0.9275c0.26701,0.2389 0.63941,0.39349 1.11722,0.46375l0.71671,0.02108l0.67455,-0.25295l0.33727,-0.33727l0.14756,-0.48483l-0.02108,-0.59023l-0.08432,-0.59023c-0.01405,-0.4778 0.07729,-0.87129 0.27403,-1.18046M235.51707,172.06379l0.02108,0.1054l0.06324,-0.04216l-0.08432,-0.06324M236.0019,177.29153l-0.02108,0.04216c-0.14053,0.28106 -0.33727,0.50591 -0.59023,0.67455l-0.16864,0.1054l-0.18972,0.16864l-0.06324,0.46375l-0.02108,-0.02108c0.09837,0.32322 0.11242,0.65347 0.04216,0.99074l-0.29511,0.80102c-0.35133,0.70265 -0.28809,1.29991 0.18972,1.79176c0.32322,0.29511 0.62536,0.68157 0.90642,1.15938c0.28106,0.46375 0.61833,0.77292 1.01182,0.9275l0.99074,0.44267l0.90642,0.67455l0.02108,0.02108c0.50591,0.66049 0.82913,0.80102 0.96966,0.42159l0.25295,-0.86426c0.02811,-0.18269 0.11945,-0.38646 0.27403,-0.61131c0.15458,-0.28106 0.37943,-0.49888 0.67455,-0.65347l0.06324,-0.02108l1.05398,0.02108h0.04216l0.06324,0.04216c1.05398,0.51996 1.63015,0.21782 1.72852,-0.90642v-0.12648l-0.02108,-0.02108c-0.07027,-0.70265 0.02108,-1.35612 0.27403,-1.9604c0.11242,-0.28106 0.26701,-0.51294 0.46375,-0.69563l0.06324,-0.06324c0.29511,-0.2389 0.5832,-0.40754 0.86426,-0.50591c1.03993,-0.25295 1.14532,-0.56212 0.31619,-0.9275l-0.25295,-0.1054l-0.04216,-0.02108c-0.54807,-0.26701 -0.90642,-0.61131 -1.07506,-1.0329l-0.02108,-0.04216c-0.16864,-0.35133 -0.15458,-0.73778 0.04216,-1.15938c0.4778,-0.89939 0.2389,-1.41233 -0.71671,-1.53881h-0.40051h0.06324c-0.39349,-0.01405 -0.75886,-0.16161 -1.09614,-0.44267l-0.02108,-0.02108c-0.30917,-0.28106 -0.57617,-0.87832 -0.80102,-1.79176c-0.2389,-0.9275 -0.46375,-1.04695 -0.67455,-0.35835l-0.33727,1.26477l-0.25295,0.63239v-0.04216c-0.15458,0.29511 -0.35835,0.51294 -0.61131,0.65347c-0.29511,0.18269 -0.62536,0.30917 -0.99074,0.37943h-0.04216h-0.67455c-0.91345,0.07027 -1.45449,0.54104 -1.62313,1.41233l-0.27403,0.84318M238.32065,182.11875l-0.12648,0.29511c-0.07027,0.08432 -0.16864,0.12648 -0.29511,0.12648c-0.11242,0 -0.2108,-0.04216 -0.29511,-0.12648c-0.08432,-0.07027 -0.12648,-0.16864 -0.12648,-0.29511c0,-0.11242 0.04216,-0.2108 0.12648,-0.29511c0.08432,-0.08432 0.18269,-0.12648 0.29511,-0.12648c0.12648,0 0.22485,0.04216 0.29511,0.12648l0.12648,0.29511M242.53657,175.79488l-0.12648,0.29511l-0.29511,0.12648l-0.29511,-0.12648c-0.08432,-0.07027 -0.12648,-0.16864 -0.12648,-0.29511c0,-0.11242 0.04216,-0.2108 0.12648,-0.29511c0.08432,-0.08432 0.18269,-0.12648 0.29511,-0.12648c0.12648,0 0.22485,0.04216 0.29511,0.12648l0.12648,0.29511" fill="#484436"/></g></g></svg>