<svg version="1.1" xmlns="http://www.w3.org/2000/svg" xmlns:xlink="http://www.w3.org/1999/xlink" width="59.39403" height="15.31741" viewBox="0,0,59.39403,15.31741"><g transform="translate(-210.30298,-172.34129)"><g data-paper-data="{&quot;isPaintingLayer&quot;:true}" fill-rule="nonzero" stroke="none" stroke-width="1" stroke-linecap="butt" stroke-linejoin="miter" stroke-miterlimit="10" stroke-dasharray="" stroke-dashoffset="0" style="mix-blend-mode: normal"><path d="M211.88162,174.0606v0.01563l-0.01563,0.14067v10.31581c0,0.2084 0.1042,0.3126 0.3126,0.3126h55.64283c0.2084,0 0.3126,-0.1042 0.3126,-0.3126v-10.31581v-0.14067l-0.01563,-0.01563c-0.04168,-0.1042 -0.14067,-0.1563 -0.29697,-0.1563h-55.64283c-0.1563,0 -0.25529,0.0521 -0.29697,0.1563M210.95945,173.91993c0.08336,-0.63562 0.48974,-0.95343 1.21914,-0.95343h55.64283c0.7294,0 1.14099,0.31781 1.23477,0.95343l0.01563,0.29697v10.31581c0,0.8336 -0.4168,1.2504 -1.2504,1.2504h-55.64283c-0.8336,0 -1.2504,-0.4168 -1.2504,-1.2504v-10.31581l0.03126,-0.29697" fill="#e86a17"/><path d="M211.88162,174.0606c0.04168,-0.1042 0.14067,-0.1563 0.29697,-0.1563h55.64283c0.1563,0 0.25529,0.0521 0.29697,0.1563l0.01563,0.01563v0.14067v10.31581c0,0.2084 -0.1042,0.3126 -0.3126,0.3126h-55.64283c-0.2084,0 -0.3126,-0.1042 -0.3126,-0.3126v-10.31581l0.01563,-0.14067v-0.01563" fill="#eeeeee"/><path d="M210.95945,173.91993l-0.03126,0.29697v10.31581c0,0.8336 0.4168,1.2504 1.2504,1.2504h55.64283c0.8336,0 1.2504,-0.4168 1.2504,-1.2504v-10.31581l-0.01563,-0.29697c-0.09378,-0.63562 -0.50537,-0.95343 -1.23477,-0.95343h-55.64283c-0.7294,0 -1.13578,0.31781 -1.21914,0.95343M210.30298,184.61086v-10.39396c0,-1.20872 0.58873,-1.83392 1.76619,-1.8756h55.87728c1.16704,0.04168 1.75056,0.66688 1.75056,1.8756v10.39396c-0.03126,1.1983 -0.65646,1.79745 -1.8756,1.79745h-55.64283c-1.21914,0 -1.84434,-0.59915 -1.8756,-1.79745" fill="#d5d5d5"/><path d="M210.30298,184.61086c0.03126,1.1983 0.65646,1.79745 1.8756,1.79745h55.64283c1.21914,0 1.84434,-0.59915 1.8756,-1.79745v1.17225c0,1.2504 -0.6252,1.8756 -1.8756,1.8756h-55.64283c-1.2504,0 -1.8756,-0.6252 -1.8756,-1.8756v-1.17225" fill="#aaaaaa"/></g></g></svg>