<svg version="1.1" xmlns="http://www.w3.org/2000/svg" xmlns:xlink="http://www.w3.org/1999/xlink" width="59.39403" height="15.31741" viewBox="0,0,59.39403,15.31741"><g transform="translate(-210.30298,-172.34129)"><g data-paper-data="{&quot;isPaintingLayer&quot;:true}" fill-rule="nonzero" stroke="none" stroke-width="1" stroke-linecap="butt" stroke-linejoin="miter" stroke-miterlimit="10" stroke-dasharray="" stroke-dashoffset="0" style="mix-blend-mode: normal"><path d="M210.92819,174.2169l0.03126,-0.29697l0.09378,-0.32823c0.1563,-0.4168 0.53142,-0.6252 1.12536,-0.6252h55.64283c0.59394,0 0.97948,0.2084 1.15662,0.6252l0.07815,0.32823l0.01563,0.29697v10.31581c0,0.8336 -0.4168,1.2504 -1.2504,1.2504h-55.64283c-0.8336,0 -1.2504,-0.4168 -1.2504,-1.2504v-10.31581M211.58465,174.02935l-0.01563,0.03126l-0.01563,0.1563v10.31581c0,0.4168 0.2084,0.6252 0.6252,0.6252h55.64283c0.4168,0 0.6252,-0.2084 0.6252,-0.6252v-10.31581l-0.01563,-0.21882l0.01563,0.03126l-0.04689,-0.18756c-0.1042,-0.16672 -0.29697,-0.25008 -0.57831,-0.25008h-55.64283c-0.27092,0 -0.44806,0.07294 -0.53142,0.21882l-0.01563,0.03126l-0.04689,0.18756" fill="#fa8132"/><path d="M210.92819,174.21691v10.31581c0,0.8336 0.4168,1.2504 1.2504,1.2504h55.64283c0.8336,0 1.2504,-0.4168 1.2504,-1.2504v-10.31581l-0.01563,-0.29697l-0.07815,-0.32823c-0.17714,-0.4168 -0.56268,-0.6252 -1.15662,-0.6252h-55.64283c-0.59394,0 -0.96906,0.2084 -1.12536,0.6252l-0.09378,0.32823l-0.03126,0.29697M210.30299,184.61086v-10.39396l0.06252,-0.6252c0.18756,-0.8336 0.79192,-1.2504 1.81308,-1.2504h55.64283c1.02116,0 1.62552,0.4168 1.81308,1.2504l0.06252,0.6252v10.39396c-0.03126,1.1983 -0.65646,1.79745 -1.8756,1.79745h-55.64283c-1.21914,0 -1.84434,-0.59915 -1.8756,-1.79745" fill="#cd5d12"/><path d="M211.58465,174.02935l0.04689,-0.18756l0.01563,-0.03126c0.08336,-0.14588 0.2605,-0.21882 0.53142,-0.21882h55.64283c0.28134,0 0.47411,0.08336 0.57831,0.25008l0.04689,0.18756l-0.01563,-0.03126l0.01563,0.21882v10.31581c0,0.4168 -0.2084,0.6252 -0.6252,0.6252h-55.64283c-0.4168,0 -0.6252,-0.2084 -0.6252,-0.6252v-10.31581l0.01563,-0.1563l0.01563,-0.03126" fill="#e86a17"/><path d="M269.69701,184.61086v1.17225c0,1.13578 -0.51579,1.75577 -1.54737,1.85997l-0.32823,0.01563h-55.64283l-0.32823,-0.01563c-1.03158,-0.1042 -1.54737,-0.72419 -1.54737,-1.85997v-1.17225c0.03126,1.1983 0.65646,1.79745 1.8756,1.79745h55.64283c1.21914,0 1.84434,-0.59915 1.8756,-1.79745" fill="#aa4e11"/></g></g></svg>