<svg version="1.1" xmlns="http://www.w3.org/2000/svg" xmlns:xlink="http://www.w3.org/1999/xlink" width="8.7528" height="13.1292" viewBox="0,0,8.7528,13.1292"><g transform="translate(-235.6236,-173.4354)"><g data-paper-data="{&quot;isPaintingLayer&quot;:true}" fill-rule="nonzero" stroke="none" stroke-width="1" stroke-linecap="butt" stroke-linejoin="miter" stroke-miterlimit="10" stroke-dasharray="" stroke-dashoffset="0" style="mix-blend-mode: normal"><path d="M236.43636,174.23253c0.11462,-0.11462 0.2605,-0.17193 0.43764,-0.17193h6.252c0.17714,0 0.32823,0.05731 0.45327,0.17193l0.1563,0.29697l0.01563,0.1563v6.53334l-0.04689,0.25008l-0.12504,0.18756l-3.126,3.15726c-0.12504,0.12504 -0.27613,0.18756 -0.45327,0.18756c-0.17714,0 -0.32302,-0.06252 -0.43764,-0.18756l-3.126,-3.15726l-0.12504,-0.17193l-0.06252,-0.26571v-6.53334l0.01563,-0.1563c0.03126,-0.11462 0.08857,-0.21361 0.17193,-0.29697M236.874,181.21914l3.126,3.15726l3.126,-3.15726v-6.53334h-6.252v6.53334" fill="#fa8132"/><path d="M236.43636,174.23253c-0.08336,0.08336 -0.14067,0.18235 -0.17193,0.29697l-0.01563,0.1563v6.53334l0.06252,0.26571l0.12504,0.17193l3.126,3.15726c0.11462,0.12504 0.2605,0.18756 0.43764,0.18756c0.17714,0 0.32823,-0.06252 0.45327,-0.18756l3.126,-3.15726l0.12504,-0.18756l0.04689,-0.25008v-6.53334l-0.01563,-0.1563l-0.1563,-0.29697c-0.12504,-0.11462 -0.27613,-0.17193 -0.45327,-0.17193h-6.252c-0.17714,0 -0.32302,0.05731 -0.43764,0.17193M235.6236,181.2504v-6.59586c0.01042,-0.33344 0.13025,-0.61999 0.35949,-0.85965h0.01563c0.23966,-0.23966 0.53142,-0.35949 0.87528,-0.35949h6.252c0.34386,0 0.64083,0.11983 0.89091,0.35949c0.22924,0.23966 0.34907,0.52621 0.35949,0.85965v6.59586c-0.01042,0.33344 -0.13025,0.61478 -0.35949,0.84402l-3.126,3.15726c-0.25008,0.25008 -0.54705,0.37512 -0.89091,0.37512c-0.34386,0 -0.64083,-0.12504 -0.89091,-0.37512l-3.126,-3.15726c-0.22924,-0.22924 -0.34907,-0.51058 -0.35949,-0.84402" fill="#cd5d12"/><path d="M235.6236,181.2504c0.01042,0.33344 0.13025,0.61478 0.35949,0.84402l3.126,3.15726c0.25008,0.25008 0.54705,0.37512 0.89091,0.37512c0.34386,0 0.64083,-0.12504 0.89091,-0.37512l3.126,-3.15726c0.22924,-0.22924 0.34907,-0.51058 0.35949,-0.84402v0.90654c0,0.34386 -0.11983,0.63562 -0.35949,0.87528l-3.126,3.15726c-0.25008,0.25008 -0.54705,0.37512 -0.89091,0.37512c-0.34386,0 -0.64083,-0.12504 -0.89091,-0.37512l-3.126,-3.15726c-0.23966,-0.23966 -0.35949,-0.53142 -0.35949,-0.87528v-0.90654" fill-opacity="0.10196" fill="#000000"/><path d="M236.874,181.21914v-6.53334h6.252v6.53334l-3.126,3.15726l-3.126,-3.15726" fill="#e86a17"/></g></g></svg>