<svg version="1.1" xmlns="http://www.w3.org/2000/svg" xmlns:xlink="http://www.w3.org/1999/xlink" width="19.39321" height="16.02048" viewBox="0,0,19.39321,16.02048"><g transform="translate(-230.3034,-171.98976)"><g data-paper-data="{&quot;isPaintingLayer&quot;:true}" fill-rule="nonzero" stroke="none" stroke-width="1" stroke-linecap="butt" stroke-linejoin="miter" stroke-miterlimit="10" stroke-dasharray="" stroke-dashoffset="0" style="mix-blend-mode: normal"><path d="M231.14658,186.32388c-0.2389,0 -0.43564,-0.08432 -0.59023,-0.25295c-0.16864,-0.15458 -0.25295,-0.35133 -0.25295,-0.59023v-10.96138c0,-0.2389 0.08432,-0.44267 0.25295,-0.61131c0.15458,-0.15458 0.35133,-0.23188 0.59023,-0.23188v0.84318v1.68637l0,1.68637l0,1.68637v0.84318v1.68637v1.68637l0,1.68637l0,0.84318M246.32386,174.16096l0.61131,0.59023c0.15458,0.16864 0.23188,0.37241 0.23188,0.61131v1.26477h-0.84318v-0.42159v-0.84318v-1.20154M247.16705,183.37274v1.26477c0,0.2389 -0.07729,0.43564 -0.23188,0.59023l-0.61131,0.61131l0,-1.20154v-0.84318l0,-0.42159h0.84318" fill="#9a3127"/><path d="M231.14658,173.67613l0,-0.04216c0,-0.2108 0.08432,-0.40051 0.25295,-0.56915l0.84318,-0.84318c0.15458,-0.15458 0.35133,-0.23188 0.59023,-0.23188l11.80456,0c0.2389,0 0.44267,0.07729 0.61131,0.23188l0.84318,0.84318c0.15458,0.16864 0.23188,0.35835 0.23188,0.56915v0.52699v1.20154l-0.84318,-0.84318l0,-0.84318l-0.84318,-0.84318h-0.84318h-10.11819l-0.84318,0l-0.84318,0.84318l0,0.84318l-0.84318,0l0,-0.84318M246.32386,185.83905v0.48483c0,0.2389 -0.07729,0.43564 -0.23188,0.59023l-0.84318,0.84318c-0.16864,0.16864 -0.37241,0.25295 -0.61131,0.25295l-11.80456,0c-0.2389,0 -0.43564,-0.08432 -0.59023,-0.25295l-0.84318,-0.84318c-0.16864,-0.15458 -0.25295,-0.35133 -0.25295,-0.59023l0,-0.84318l0.84318,0l0,0.84318l0.84318,0.84318l0.84318,0h10.11819h0.84318l0.84318,-0.84318v-0.84318l0.84318,-0.84318v1.20154" fill="#2e2b22"/><path d="M231.14658,185.48069l0,-1.68637l15.17729,0l0,0.84318l-0.84318,0.84318h-1.68637l-10.11819,0l-1.68637,0l-0.84318,0M231.14658,176.20568l0,-1.68637l0.84318,0l1.68637,0l10.11819,0h1.68637l0.84318,0.84318l0,0.84318l-15.17729,0" fill="#d04435"/><path d="M233.67612,187.16706h-0.84318l-0.84318,-0.84318v-0.84318l1.68637,0v1.68637M245.48069,185.48069v0.84318l-0.84318,0.84318h-0.84318v-1.68637h1.68637M231.98976,174.51932l0,-0.84318l0.84318,-0.84318l0.84318,0l0,1.68637h-1.68637M243.79432,172.83295l0.84318,0l0.84318,0.84318v0.84318l-1.68637,0v-1.68637" fill="#464133"/><path d="M243.79432,172.83295l0,1.68637l-10.11819,0l0,-1.68637l10.11819,0M233.67613,187.16706l0,-1.68637l10.11819,0l0,1.68637l-10.11819,0" fill="#403c2f"/><path d="M231.14658,183.79433v-1.68637h5.0591l0,-1.68637h-5.0591l0,-0.84318l5.0591,0v-1.68637l-5.0591,0l0,-1.68637l15.17729,0v0.42159l-0.84318,0c-0.2389,0 -0.43564,0.07729 -0.59023,0.23188l-0.61131,0.61131l-6.38711,0c-0.2389,0 -0.43564,0.07729 -0.59023,0.23188c-0.16864,0.16864 -0.25295,0.37241 -0.25295,0.61131v3.37273c0,0.2389 0.08432,0.43564 0.25295,0.59023c0.15458,0.16864 0.35133,0.25295 0.59023,0.25295h6.38711l0.61131,0.59023c0.15458,0.16864 0.35133,0.25295 0.59023,0.25295l0.84318,0v0.42159h-15.17729" fill="#e74c3c"/><path d="M231.14658,182.10796v-1.68637h5.0591l0,1.68637h-5.0591M231.14658,179.57841l0,-1.68637l5.0591,0v1.68637l-5.0591,0M244.63751,181.68637v-3.37273l0.84318,-0.84318l3.37273,0v5.0591h-3.37273l-0.84318,-0.84318" fill="#c23f31"/><path d="M244.6375,181.68637l0.84318,0.84318h3.37273l0,-5.0591l-3.37273,0l-0.84318,0.84318l-6.74546,0l0,3.37273h6.74546M247.16705,176.62727h1.68637c0.2389,0 0.44267,0.07729 0.61131,0.23188c0.15458,0.16864 0.23188,0.37241 0.23188,0.61131v5.0591c0,0.2389 -0.07729,0.43564 -0.23188,0.59023c-0.16864,0.16864 -0.37241,0.25295 -0.61131,0.25295h-1.68637h-0.84318l-0.84318,0c-0.2389,0 -0.43564,-0.08432 -0.59023,-0.25295l-0.61131,-0.59023l-6.38711,0c-0.2389,0 -0.43564,-0.08432 -0.59023,-0.25295c-0.16864,-0.15458 -0.25295,-0.35133 -0.25295,-0.59023v-3.37273c0,-0.2389 0.08432,-0.44267 0.25295,-0.61131c0.15458,-0.15458 0.35133,-0.23188 0.59023,-0.23188h6.38711l0.61131,-0.61131c0.15458,-0.15458 0.35133,-0.23188 0.59023,-0.23188l0.84318,0h0.84318" fill="#8c2c23"/><path d="M244.6375,181.68637l-6.74546,0l0,-3.37273h6.74546l0,3.37273" fill="#b43a2d"/></g></g></svg>