<svg version="1.1" xmlns="http://www.w3.org/2000/svg" xmlns:xlink="http://www.w3.org/1999/xlink" width="19.39321" height="17.70684" viewBox="0,0,19.39321,17.70684"><g transform="translate(-230.30339,-171.14658)"><g data-paper-data="{&quot;isPaintingLayer&quot;:true}" fill-rule="nonzero" stroke="none" stroke-width="1" stroke-linecap="butt" stroke-linejoin="miter" stroke-miterlimit="10" stroke-dasharray="" stroke-dashoffset="0" style="mix-blend-mode: normal"><path d="M246.32387,186.32388v0.84318c0,0.2389 -0.07729,0.43564 -0.23188,0.59023l-0.84318,0.84318c-0.16864,0.16864 -0.37241,0.25295 -0.61131,0.25295l-11.80456,0c-0.2389,0 -0.43564,-0.08432 -0.59023,-0.25295l-0.84318,-0.84318c-0.16864,-0.15458 -0.25295,-0.35133 -0.25295,-0.59023v-0.84318v-0.84318l0.84318,0l0,1.68637l0.84318,0.84318h0.84318l10.11819,0l0.84318,0l0.84318,-0.84318v-1.68637l0.84318,0v0.84318M231.14658,173.67613v-0.88534c0,-0.2108 0.08432,-0.40051 0.25295,-0.56915l0.84318,-0.84318c0.15458,-0.15458 0.35133,-0.23188 0.59023,-0.23188l11.80456,0c0.2389,0 0.44267,0.07729 0.61131,0.23188l0.84318,0.84318c0.15458,0.16864 0.23188,0.35835 0.23188,0.56915l0,0.88534l0,0.84318h-0.84318v-1.68637l-0.84318,-0.84318l-0.84318,0h-10.11819l-0.84318,0l-0.84318,0.84318v1.68637h-0.84318l0,-0.84318" fill="#2e2b22"/><path d="M231.14658,173.67613v0.84318v1.68637v7.58865v1.68637v0.84318c-0.2389,0 -0.43564,-0.08432 -0.59023,-0.25295c-0.16864,-0.15458 -0.25295,-0.35133 -0.25295,-0.59023l0,-10.96138c0,-0.2389 0.08432,-0.44267 0.25295,-0.61131c0.15458,-0.15458 0.35133,-0.23188 0.59023,-0.23188M246.32387,173.67613c0.2389,0 0.44267,0.07729 0.61131,0.23188c0.15458,0.16864 0.23188,0.37241 0.23188,0.61131v0.84318c0.2389,0 0.44267,0.07729 0.61131,0.23188c0.15458,0.16864 0.23188,0.37241 0.23188,0.61131v1.26477h-0.84318v-1.26477l-0.84318,0v-1.68637v-0.84318M248.01024,182.52955v1.26477c0,0.2389 -0.07729,0.43564 -0.23188,0.59023c-0.16864,0.16864 -0.37241,0.25295 -0.61131,0.25295v0.84318c0,0.2389 -0.07729,0.43564 -0.23188,0.59023c-0.16864,0.16864 -0.37241,0.25295 -0.61131,0.25295v-0.84318v-1.68637h0.84318v-1.26477l0.84318,0" fill="#2c6f9a"/><path d="M246.32387,185.48069l-0.84318,0h-1.68637v0.84318l-2.52955,0l0,-0.84318l-5.0591,0l0,0.84318h-2.52955l0,-0.84318l-1.68637,0l-0.84318,0l0,-1.68637h15.17729l0,1.68637M231.14658,174.51932l0.84318,0h1.68637v-0.84318l2.52955,0v0.84318l5.0591,0l0,-0.84318h2.52955v0.84318h1.68637h0.84318l0,1.68637l-15.17729,0v-1.68637" fill="#3b92cb"/><path d="M245.48069,185.48069l0,1.68637l-0.84318,0.84318h-0.84318l0,-1.68637l0,-0.84318l1.68637,0M233.67613,188.01024l-0.84318,0l-0.84318,-0.84318v-1.68637h1.68637l0,0.84318v1.68637M231.98976,174.51932v-1.68637l0.84318,-0.84318l0.84318,0l0,1.68637v0.84318l-1.68637,0M243.79432,171.98977h0.84318l0.84318,0.84318v1.68637l-1.68637,0v-0.84318v-1.68637" fill="#464133"/><path d="M243.79432,171.98977l0,1.68637l-2.52955,0v0.84318l-5.0591,0v-0.84318l-2.52955,0l0,-1.68637l10.11819,0M243.79432,188.01024l-10.11819,0v-1.68637l2.52955,0v-0.84318l5.0591,0l0,0.84318h2.52955l0,1.68637" fill="#403c2f"/><path d="M247.16705,177.47046h-1.68637c-0.2389,0 -0.43564,0.07729 -0.59023,0.23188l-0.61131,0.61131l-6.38711,0c-0.2389,0 -0.43564,0.07729 -0.59023,0.23188c-0.16864,0.16864 -0.25295,0.37241 -0.25295,0.61131l0,1.68637c0,0.2389 0.08432,0.43564 0.25295,0.59023c0.15458,0.16864 0.35133,0.25295 0.59023,0.25295l6.38711,0l0.61131,0.59023c0.15458,0.16864 0.35133,0.25295 0.59023,0.25295l1.68637,0v1.26477l-0.84318,0h-15.17729v-7.58865l15.17729,0h0.84318v1.26477M235.3625,182.10796l0,-4.21591l-2.52955,0v4.21591l2.52955,0" fill="#419fdd"/><path d="M248.01024,177.47046h0.84318c0.2389,0 0.44267,0.07729 0.61131,0.23188c0.15458,0.16864 0.23188,0.37241 0.23188,0.61131v3.37273c0,0.2389 -0.07729,0.43564 -0.23188,0.59023c-0.16864,0.16864 -0.37241,0.25295 -0.61131,0.25295h-0.84318l-0.84318,0l-1.68637,0c-0.2389,0 -0.43564,-0.08432 -0.59023,-0.25295l-0.61131,-0.59023h-6.38711c-0.2389,0 -0.43564,-0.08432 -0.59023,-0.25295c-0.16864,-0.15458 -0.25295,-0.35133 -0.25295,-0.59023v-1.68637c0,-0.2389 0.08432,-0.44267 0.25295,-0.61131c0.15458,-0.15458 0.35133,-0.23188 0.59023,-0.23188l6.38711,0l0.61131,-0.61131c0.15458,-0.15458 0.35133,-0.23188 0.59023,-0.23188l1.68637,0h0.84318M244.6375,180.84319l0.84318,0.84318h3.37273l0,-3.37273h-3.37273l-0.84318,0.84318h-6.74546l0,1.68637h6.74546" fill="#266187"/><path d="M244.63751,180.84319v-1.68637l0.84318,-0.84318l3.37273,0v3.37273l-3.37273,0l-0.84318,-0.84318M235.3625,182.10796h-2.52955l0,-4.21591h2.52955l0,4.21591" fill="#3788bd"/><path d="M244.6375,179.15682v1.68637h-6.74546l0,-1.68637h6.74546" fill="#317aaa"/></g></g></svg>