<svg version="1.1" xmlns="http://www.w3.org/2000/svg" xmlns:xlink="http://www.w3.org/1999/xlink" width="11.80456" height="11.80456" viewBox="0,0,11.80456,11.80456"><g transform="translate(-234.09772,-174.09772)"><g data-paper-data="{&quot;isPaintingLayer&quot;:true}" fill-rule="nonzero" stroke="none" stroke-width="1" stroke-linecap="butt" stroke-linejoin="miter" stroke-miterlimit="10" stroke-dasharray="" stroke-dashoffset="0" style="mix-blend-mode: normal"><path d="M234.9409,174.09772h10.11819c0.2389,0 0.44267,0.08432 0.61131,0.25295c0.15458,0.15458 0.23188,0.35133 0.23188,0.59023v10.11819c0,0.2389 -0.07729,0.44267 -0.23188,0.61131c-0.16864,0.15458 -0.37241,0.23188 -0.61131,0.23188h-10.11819c-0.2389,0 -0.43564,-0.07729 -0.59023,-0.23188c-0.16864,-0.16864 -0.25295,-0.37241 -0.25295,-0.61131v-10.11819c0,-0.2389 0.08432,-0.43564 0.25295,-0.59023c0.15458,-0.16864 0.35133,-0.25295 0.59023,-0.25295M239.99999,178.31363l-0.84318,-0.84318l-0.84318,-0.84318h3.37273l-1.68637,1.68637M237.47045,179.15682l0.84318,0.84318l-1.68637,1.68637v-3.37273l0.84318,0.84318M241.68636,180l1.68637,-1.68637v3.37273l-0.84318,-0.84318l-0.84318,-0.84318M240.84318,182.52955l0.84318,0.84318h-3.37273l1.68637,-1.68637l0.84318,0.84318M234.9409,174.9409v10.11819h10.11819v-10.11819h-10.11819" fill="#4d5c5d"/><path d="M239.15681,177.47045l0.84318,0.84318l-1.68637,1.68637l-0.84318,-0.84318l1.68637,-1.68637M236.62726,178.31363v-1.68637h1.68637l-1.68637,1.68637M241.68636,180l0.84318,0.84318l-1.68637,1.68637l-0.84318,-0.84318l1.68637,-1.68637M241.68636,183.37273l1.68637,-1.68637v1.68637h-1.68637M238.31363,183.37273h-1.68637v-1.68637l1.68637,1.68637M243.37272,178.31363l-1.68637,-1.68637h1.68637v1.68637" fill="#697e80"/><path d="M243.37272,178.31363l-1.68637,1.68637l-1.68637,1.68637l-1.68637,1.68637l-1.68637,-1.68637l1.68637,-1.68637l1.68637,-1.68637l1.68637,-1.68637h-3.37273l0.84318,0.84318l-1.68637,1.68637l-0.84318,-0.84318l1.68637,-1.68637h-1.68637v1.68637v3.37273v1.68637h1.68637h3.37273l-0.84318,-0.84318l1.68637,-1.68637l0.84318,0.84318v-3.37273v-1.68637h-1.68637l1.68637,1.68637M241.68636,183.37273h1.68637v-1.68637l-1.68637,1.68637M234.9409,174.9409h10.11819v10.11819h-10.11819v-10.11819" fill="#778f91"/></g></g></svg>