<svg version="1.1" xmlns="http://www.w3.org/2000/svg" xmlns:xlink="http://www.w3.org/1999/xlink" width="24.55743" height="24.71082" viewBox="0,0,24.55743,24.71082"><g transform="translate(-227.72128,-167.64459)"><g data-paper-data="{&quot;isPaintingLayer&quot;:true}" fill-rule="nonzero" stroke="none" stroke-width="0.35082" stroke-linecap="butt" stroke-linejoin="miter" stroke-miterlimit="10" stroke-dasharray="" stroke-dashoffset="0" style="mix-blend-mode: normal"><path d="M252.27854,167.64459c-0.0145,2.54393 -0.0174,5.74933 -0.0174,8.3977l-4.08702,-4.0344l-4.10457,4.0344l-4.06947,-4.0344l-4.10457,4.0344l-4.10456,-4.0344l-0.50869,0.50869l-3.56079,3.52572c0.00007,-2.47556 -0.0001,-6.10292 -0.0001,-8.32427M252.27868,186.56681l-4.08702,-4.0344l-4.10457,4.0344l-4.06947,-4.0344l-4.10456,4.0344l-4.10457,-4.0344l-0.50869,0.50868l-3.56079,3.52572h-0.0175v-5.26226l4.08702,-4.0344l4.10457,4.0344l4.10456,-4.0344l4.06947,4.0344l4.10457,-4.0344l4.08702,4.0344v5.26226M231.82606,187.79467l4.10457,4.0344l4.10456,-4.0344l4.06948,4.0344l4.10456,-4.0344l3.47309,3.43801l-0.43852,0.45606c-0.56131,0.44437 -1.3448,0.66655 -2.35048,0.66655c-7.05731,0.00008 -14.11463,-0.00016 -21.17194,0.00011v-0.52635" fill="#c99869"/><path d="M227.72128,191.82906c0.0056,-0.57673 0.02347,-1.8067 0.00008,-2.68374v-2.57851h0.0175l3.56079,-3.52572l0.50869,-0.50869l4.10457,4.0344l4.10456,-4.0344l4.06947,4.0344l4.10457,-4.0344l4.08702,4.0344v2.57851c-0.0234,0.86535 -0.2222,1.56114 -0.59639,2.08736l-3.47309,-3.43801l-4.10456,4.0344l-4.06948,-4.0344l-4.10456,4.0344l-4.10457,-4.0344M227.72132,176.04229l3.56079,-3.52572l0.50869,-0.50868l4.10456,4.0344l4.10457,-4.0344l4.06947,4.0344l4.10457,-4.0344l4.08702,4.0344v-4.64833l0.0175,0.14033v9.77027l-4.08702,-4.0344l-4.10457,4.0344l-4.06947,-4.0344l-4.10456,4.0344l-4.10457,-4.0344l-4.08702,4.0344v-5.26226" fill="#c58f5c"/></g></g></svg>