<svg version="1.1" xmlns="http://www.w3.org/2000/svg" xmlns:xlink="http://www.w3.org/1999/xlink" width="24.55731" height="24.55723" viewBox="0,0,24.55731,24.55723"><g transform="translate(-227.72134,-167.72139)"><g data-paper-data="{&quot;isPaintingLayer&quot;:true}" fill-rule="nonzero" stroke="none" stroke-width="0.35082" stroke-linecap="butt" stroke-linejoin="miter" stroke-miterlimit="10" stroke-dasharray="" stroke-dashoffset="0" style="mix-blend-mode: normal"><path d="M252.27862,171.633v4.3326l-4.08702,-4.0344l-4.10457,4.0344l-4.06948,-4.0344l-4.10457,4.0344l-4.10456,-4.0344l-4.08703,4.0344v-7.54258h21.17184c2.19846,0 3.32692,1.06999 3.38539,3.20998" fill="#80be1f"/><path d="M252.27862,171.633c-0.05847,-2.13999 -1.18693,-3.20998 -3.38539,-3.20998h-21.17184v-0.70164h21.17184c2.25693,0 3.38539,1.12846 3.38539,3.38539v0.52623" fill="#93db24"/><path d="M252.27862,175.9656v1.75409l-4.08702,-4.0344l-4.10457,4.0344l-4.06948,-4.0344l-4.10457,4.0344l-4.10456,-4.0344l-4.08703,4.0344v-1.75409l4.08703,-4.0344l4.10456,4.0344l4.10457,-4.0344l4.06948,4.0344l4.10457,-4.0344l4.08702,4.0344" fill="#bb8044"/><path d="M252.27862,177.71969v3.50818l-4.08702,-4.0344l-4.10457,4.0344l-4.06948,-4.0344l-4.10457,4.0344l-4.10456,-4.0344l-4.08703,4.0344v-3.50818l4.08703,-4.0344l4.10456,4.0344l4.10457,-4.0344l4.06948,4.0344l4.10457,-4.0344l4.08702,4.0344M252.27862,186.49012v2.57851c-0.0234,0.86535 -0.2222,1.56114 -0.59639,2.08736l-3.47309,-3.43801l-4.10457,4.0344l-4.06948,-4.0344l-4.10457,4.0344l-4.10456,-4.0344l-3.49064,3.45555l0.0175,0.01754l-0.63147,0.63147v-5.33243h0.0175l3.5608,-3.52572l0.50869,-0.50869l4.10456,4.0344l4.10457,-4.0344l4.06948,4.0344l4.10457,-4.0344l4.08702,4.0344" fill="#c58f5c"/><path d="M252.27862,186.49012l-4.08702,-4.0344l-4.10457,4.0344l-4.06948,-4.0344l-4.10457,4.0344l-4.10456,-4.0344l-0.50869,0.50869l-3.5608,3.52572h-0.0175v-5.26226l4.08703,-4.0344l4.10456,4.0344l4.10457,-4.0344l4.06948,4.0344l4.10457,-4.0344l4.08702,4.0344v5.26226M251.68227,191.156l-0.43852,0.45606c-0.56131,0.44437 -1.3448,0.66655 -2.35048,0.66655h-21.17184v-0.45606l0.63147,-0.63147l-0.0175,-0.01754l3.49064,-3.45555l4.10456,4.0344l4.10457,-4.0344l4.06948,4.0344l4.10457,-4.0344l3.47309,3.43801" fill="#c99869"/></g></g></svg>