<svg version="1.1" xmlns="http://www.w3.org/2000/svg" xmlns:xlink="http://www.w3.org/1999/xlink" width="24.55723" height="24.55723" viewBox="0,0,24.55723,24.55723"><g transform="translate(-227.72139,-167.72139)"><g data-paper-data="{&quot;isPaintingLayer&quot;:true}" fill-rule="nonzero" stroke="none" stroke-width="0.35082" stroke-linecap="butt" stroke-linejoin="miter" stroke-miterlimit="10" stroke-dasharray="" stroke-dashoffset="0" style="mix-blend-mode: normal"><path d="M227.72139,171.633v-0.52623c0,-2.25693 1.12846,-3.38539 3.38539,-3.38539h17.78645c2.25693,0 3.38539,1.12846 3.38539,3.38539v0.52623c-0.05847,-2.13999 -1.18693,-3.20998 -3.38539,-3.20998h-17.78645c-2.19846,0 -3.32692,1.06999 -3.38539,3.20998" fill="#93db24"/><path d="M227.72139,171.633c0.05847,-2.13999 1.18693,-3.20998 3.38539,-3.20998h17.78645c2.19846,0 3.32692,1.06999 3.38539,3.20998v4.3326l-4.08702,-4.0344l-4.10457,4.0344l-4.06948,-4.0344l-4.10456,4.0344l-4.10457,-4.0344l-4.08702,4.0344v-4.3326" fill="#80be1f"/><path d="M252.27861,177.71969v3.50818l-4.08702,-4.0344l-4.10457,4.0344l-4.06948,-4.0344l-4.10456,4.0344l-4.10457,-4.0344l-4.08702,4.0344v-3.50818l4.08702,-4.0344l4.10457,4.0344l4.10456,-4.0344l4.06948,4.0344l4.10457,-4.0344l4.08702,4.0344M252.27861,186.49012v2.57851c-0.02339,0.86535 -0.22218,1.56114 -0.59639,2.08736l-3.47309,-3.43801l-4.10457,4.0344l-4.06948,-4.0344l-4.10456,4.0344l-4.10457,-4.0344l-3.49063,3.45555c-0.3859,-0.52623 -0.59054,-1.22786 -0.61393,-2.10491v-2.57851h0.01754l3.5608,-3.52572l0.50868,-0.50869l4.10457,4.0344l4.10456,-4.0344l4.06948,4.0344l4.10457,-4.0344l4.08702,4.0344" fill="#c58f5c"/><path d="M252.27861,186.49012l-4.08702,-4.0344l-4.10457,4.0344l-4.06948,-4.0344l-4.10456,4.0344l-4.10457,-4.0344l-0.50868,0.50869l-3.5608,3.52572h-0.01754v-5.26226l4.08702,-4.0344l4.10457,4.0344l4.10456,-4.0344l4.06948,4.0344l4.10457,-4.0344l4.08702,4.0344v5.26226M251.68223,191.156l-0.43852,0.45606c-0.56131,0.44437 -1.3448,0.66655 -2.35048,0.66655h-17.78645c-1.00568,0 -1.78917,-0.22218 -2.35048,-0.66655l-0.42098,-0.43852l3.49063,-3.45555l4.10457,4.0344l4.10456,-4.0344l4.06948,4.0344l4.10457,-4.0344l3.47309,3.43801" fill="#c99869"/><path d="M252.27861,175.9656v1.75409l-4.08702,-4.0344l-4.10457,4.0344l-4.06948,-4.0344l-4.10456,4.0344l-4.10457,-4.0344l-4.08702,4.0344v-1.75409l4.08702,-4.0344l4.10457,4.0344l4.10456,-4.0344l4.06948,4.0344l4.10457,-4.0344l4.08702,4.0344" fill="#bb8044"/></g></g></svg>