<svg version="1.1" xmlns="http://www.w3.org/2000/svg" xmlns:xlink="http://www.w3.org/1999/xlink" width="24.55738" height="24.71071" viewBox="0,0,24.55738,24.71071"><g transform="translate(-227.72131,-167.64464)"><g data-paper-data="{&quot;isPaintingLayer&quot;:true}" fill-rule="nonzero" stroke="none" stroke-width="0.35082" stroke-linecap="butt" stroke-linejoin="miter" stroke-miterlimit="10" stroke-dasharray="" stroke-dashoffset="0" style="mix-blend-mode: normal"><path d="M252.27861,167.64465c-0.0145,2.54393 -0.0175,5.74932 -0.0175,8.39769l-4.08702,-4.0344l-4.10456,4.0344l-4.06948,-4.0344l-4.10457,4.0344l-4.10456,-4.0344l-0.50869,0.50869l-3.56079,3.52571c0.00007,-2.47556 -0.00013,-6.17634 -0.00013,-8.39769M252.27865,186.56687l-4.08702,-4.0344l-4.10456,4.0344l-4.06947,-4.0344l-4.10456,4.0344l-4.10457,-4.0344l-0.50869,0.50869l-3.56079,3.52572h-0.0175v-5.26226l4.08702,-4.0344l4.10457,4.0344l4.10456,-4.0344l4.06947,4.0344l4.10456,-4.0344l4.08702,4.0344v5.26226M228.33542,191.25028l3.49063,-3.45555l4.10456,4.0344l4.10457,-4.0344l4.06947,4.0344l4.10456,-4.0344l4.06941,4.0344v0.52623h-21.17178c-1.00568,0 -1.78917,-0.22218 -2.35048,-0.66655l-0.42098,-0.43852" fill="#c99869"/><path d="M228.33537,191.25028c-0.3859,-0.52623 -0.59054,-1.22786 -0.61393,-2.10491v-2.57851h0.0175l3.56079,-3.52572l0.50869,-0.50869l4.10457,4.0344l4.10456,-4.0344l4.06948,4.0344l4.10456,-4.0344l4.08702,4.0344v2.57851c-0.0234,0.86535 -0.006,2.04124 0,2.68375l-4.06948,-4.0344l-4.10456,4.0344l-4.06948,-4.0344l-4.10456,4.0344l-4.10457,-4.0344l-3.49063,3.45555M227.7214,176.04234l3.56079,-3.52571l0.50869,-0.50869l4.10456,4.0344l4.10457,-4.0344l4.06948,4.0344l4.10456,-4.0344l4.08702,4.0344v-4.64833l0.0175,0.14032v9.77027l-4.08702,-4.0344l-4.10458,4.0344l-4.06947,-4.0344l-4.10456,4.0344l-4.10457,-4.0344l-4.08702,4.0344v-5.26227" fill="#c58f5c"/></g></g></svg>