<svg version="1.1" xmlns="http://www.w3.org/2000/svg" xmlns:xlink="http://www.w3.org/1999/xlink" width="24.55731" height="24.55723" viewBox="0,0,24.55731,24.55723"><g transform="translate(-227.72134,-167.72139)"><g data-paper-data="{&quot;isPaintingLayer&quot;:true}" fill-rule="nonzero" stroke="none" stroke-width="0.35082" stroke-linecap="butt" stroke-linejoin="miter" stroke-miterlimit="10" stroke-dasharray="" stroke-dashoffset="0" style="mix-blend-mode: normal"><path d="M227.72138,168.42302v-0.70164h24.55723v0.70164h-24.55723" fill="#93db24"/><path d="M252.27862,175.9656v1.75409l-4.08703,-4.0344l-4.10456,4.0344l-4.06949,-4.0344l-4.10456,4.0344l-4.10457,-4.0344l-4.08702,4.0344v-1.75409l4.08702,-4.0344l4.10457,4.0344l4.10456,-4.0344l4.06949,4.0344l4.10456,-4.0344l4.08703,4.0344" fill="#bb8044"/><path d="M252.27862,177.71969v3.50818l-4.08703,-4.0344l-4.10456,4.0344l-4.06949,-4.0344l-4.10456,4.0344l-4.10457,-4.0344l-4.08702,4.0344v-3.50818l4.08702,-4.0344l4.10457,4.0344l4.10456,-4.0344l4.06949,4.0344l4.10456,-4.0344l4.08703,4.0344M252.27862,186.49012v5.29735l-0.61393,-0.61393l0.0175,-0.01754l-3.4731,-3.43801l-4.10456,4.0344l-4.06949,-4.0344l-4.10457,4.0344l-4.10457,-4.0344l-3.49063,3.45555l0.01754,0.01754l-0.63147,0.63147v-5.33243h0.01754l3.5608,-3.52572l0.50868,-0.50869l4.10457,4.0344l4.10456,-4.0344l4.06949,4.0344l4.10456,-4.0344l4.08703,4.0344" fill="#c58f5c"/><path d="M252.27862,186.49012l-4.08703,-4.0344l-4.10456,4.0344l-4.06949,-4.0344l-4.10456,4.0344l-4.10457,-4.0344l-0.50868,0.50869l-3.5608,3.52572h-0.01754v-5.26226l4.08702,-4.0344l4.10457,4.0344l4.10456,-4.0344l4.06949,4.0344l4.10456,-4.0344l4.08703,4.0344v5.26226M252.27862,191.78747v0.49114h-24.55723v-0.45606l0.63147,-0.63147l-0.01754,-0.01754l3.49063,-3.45555l4.10457,4.0344l4.10457,-4.0344l4.06949,4.0344l4.10456,-4.0344l3.4731,3.43801l-0.0175,0.01754l0.61393,0.61393" fill="#c99869"/><path d="M252.27862,168.42302v7.54258l-4.08703,-4.0344l-4.10456,4.0344l-4.06949,-4.0344l-4.10456,4.0344l-4.10457,-4.0344l-4.08702,4.0344v-7.54258h24.55723" fill="#80be1f"/></g></g></svg>