<svg version="1.1" xmlns="http://www.w3.org/2000/svg" xmlns:xlink="http://www.w3.org/1999/xlink" width="24.55734" height="24.71071" viewBox="0,0,24.55734,24.71071"><g transform="translate(-227.72133,-167.64464)"><g data-paper-data="{&quot;isPaintingLayer&quot;:true}" fill-rule="nonzero" stroke="none" stroke-width="0.35082" stroke-linecap="butt" stroke-linejoin="miter" stroke-miterlimit="10" stroke-dasharray="" stroke-dashoffset="0" style="mix-blend-mode: normal"><path d="M252.27859,167.64464c-0.0145,2.54393 -0.0175,5.74933 -0.0175,8.3977l-4.08702,-4.0344l-4.10457,4.0344l-4.06948,-4.0344l-4.10457,4.0344l-4.10456,-4.0344l-0.50869,0.50869l-3.56079,3.52572c0.00007,-2.47556 -0.00006,-6.17635 -0.00006,-8.3977M252.27863,186.56687l-4.08702,-4.0344l-4.10457,4.0344l-4.06948,-4.0344l-4.10456,4.0344l-4.10457,-4.0344l-0.50869,0.50868l-3.56079,3.52572h-0.0175v-5.26226l4.08702,-4.0344l4.10457,4.0344l4.10456,-4.0344l4.06948,4.0344l4.10457,-4.0344l4.08702,4.0344v5.26226M228.33538,191.25028l3.49063,-3.45555l4.10457,4.0344l4.10456,-4.0344l4.06949,4.0344l4.10456,-4.0344l3.47309,3.43801l-0.43852,0.45606c-0.56131,0.44437 -1.3448,0.66655 -2.35048,0.66655h-17.78644c-1.00568,0 -1.78917,-0.22218 -2.35048,-0.66655l-0.42098,-0.43852" fill="#c99869"/><path d="M228.33534,191.25028c-0.3859,-0.52623 -0.59054,-1.22786 -0.61393,-2.10491v-2.57851h0.0175l3.56079,-3.52572l0.50869,-0.50869l4.10457,4.0344l4.10456,-4.0344l4.06948,4.0344l4.10457,-4.0344l4.08702,4.0344v2.57851c-0.0234,0.86535 -0.2222,1.56114 -0.59639,2.08736l-3.47309,-3.43801l-4.10456,4.0344l-4.06949,-4.0344l-4.10456,4.0344l-4.10457,-4.0344l-3.49063,3.45555M227.72137,176.04234l3.56079,-3.52572l0.50869,-0.50868l4.10456,4.0344l4.10457,-4.0344l4.06948,4.0344l4.10457,-4.0344l4.08702,4.0344v-4.64833l0.0175,0.14033v9.77027l-4.08702,-4.0344l-4.10457,4.0344l-4.06948,-4.0344l-4.10456,4.0344l-4.10457,-4.0344l-4.08702,4.0344v-5.26226" fill="#c58f5c"/></g></g></svg>