<svg version="1.1" xmlns="http://www.w3.org/2000/svg" xmlns:xlink="http://www.w3.org/1999/xlink" width="24.55726" height="24.55723" viewBox="0,0,24.55726,24.55723"><g transform="translate(-227.72137,-167.72139)"><g data-paper-data="{&quot;isPaintingLayer&quot;:true}" fill-rule="nonzero" stroke="none" stroke-width="0.35082" stroke-linecap="butt" stroke-linejoin="miter" stroke-miterlimit="10" stroke-dasharray="" stroke-dashoffset="0" style="mix-blend-mode: normal"><path d="M227.72137,171.633v-0.52623c0,-2.25693 1.12846,-3.38539 3.38539,-3.38539h17.78644c2.25693,0 3.38539,1.12846 3.38539,3.38539v0.52623c-0.05847,-2.13999 -1.18693,-3.20998 -3.38539,-3.20998h-17.78644c-2.19846,0 -3.32692,1.06999 -3.38539,3.20998" fill="#93db24"/><path d="M227.72137,171.633c0.05847,-2.13999 1.18693,-3.20998 3.38539,-3.20998h17.78644c2.19846,0 3.32692,1.06999 3.38539,3.20998v4.3326l-4.08702,-4.0344l-4.10457,4.0344l-4.06948,-4.0344l-4.10456,4.0344l-4.10457,-4.0344l-4.08702,4.0344v-4.3326" fill="#80be1f"/><path d="M252.27859,175.9656v1.75409l-4.08702,-4.0344l-4.10457,4.0344l-4.06948,-4.0344l-4.10456,4.0344l-4.10457,-4.0344l-4.08702,4.0344v-1.75409l4.08702,-4.0344l4.10457,4.0344l4.10456,-4.0344l4.06948,4.0344l4.10457,-4.0344l4.08702,4.0344" fill="#bb8044"/><path d="M252.27859,181.22786v5.26226l-4.08702,-4.0344l-4.10457,4.0344l-4.06948,-4.0344l-4.10456,4.0344l-4.10457,-4.0344l-0.50869,0.50869l-3.56079,3.52572h-0.0175v-5.26226l4.08702,-4.0344l4.10457,4.0344l4.10456,-4.0344l4.06948,4.0344l4.10457,-4.0344l4.08702,4.0344M227.72137,192.27861l0.00004,-0.5346l4.10456,-4.02603l4.10457,4.0344l4.10456,-4.0344l4.06949,4.0344l4.10456,-4.0344l4.06948,4.02603v0.5346" fill="#c99869"/><path d="M248.20911,187.71799l-4.10456,4.0344l-4.06949,-4.0344l-4.10456,4.0344l-4.10457,-4.0344c-1.44228,1.41519 -3.7105,3.63955 -4.10452,4.02603l-0.00004,-5.25389h0.0175l3.56079,-3.52572l0.50869,-0.50869l4.10457,4.0344l4.10456,-4.0344l4.06948,4.0344l4.10457,-4.0344l4.08702,4.0344l0.00008,5.25389M252.27859,177.71969v3.50818l-4.08702,-4.0344l-4.10457,4.0344l-4.06948,-4.0344l-4.10456,4.0344l-4.10457,-4.0344l-4.08702,4.0344v-3.50818l4.08702,-4.0344l4.10457,4.0344l4.10456,-4.0344l4.06948,4.0344l4.10457,-4.0344l4.08702,4.0344" fill="#c58f5c"/></g></g></svg>