<svg version="1.1" xmlns="http://www.w3.org/2000/svg" xmlns:xlink="http://www.w3.org/1999/xlink" width="24.55739" height="24.55723" viewBox="0,0,24.55739,24.55723"><g transform="translate(-227.72131,-167.72138)"><g data-paper-data="{&quot;isPaintingLayer&quot;:true}" fill-rule="nonzero" stroke="none" stroke-width="0.35082" stroke-linecap="butt" stroke-linejoin="miter" stroke-miterlimit="10" stroke-dasharray="" stroke-dashoffset="0" style="mix-blend-mode: normal"><path d="M227.72131,175.89544v-8.17405h24.55723v8.17405l-4.08703,-4.0344l-4.10456,4.0344l-4.06949,-4.0344l-4.10456,4.0344l-4.10457,-4.0344l-0.50868,0.50868l-3.5608,3.52572h-0.0175M252.27858,181.22787v5.26226l-4.08703,-4.0344l-4.10456,4.0344l-4.06949,-4.0344l-4.10456,4.0344l-4.10457,-4.0344l-0.50868,0.50868l-3.5608,3.52572h-0.0175v-5.26226l4.08702,-4.0344l4.10457,4.0344l4.10456,-4.0344l4.06949,4.0344l4.10456,-4.0344l4.08703,4.0344M252.27862,191.78748v0.49114h-24.55723v-0.45606l0.63147,-0.63147l-0.0175,-0.0175l3.49063,-3.45555l4.10457,4.0344l4.10457,-4.0344l4.06948,4.0344l4.10456,-4.0344l3.4731,3.43801l-0.0175,0.0175l0.61393,0.61394" fill="#c99869"/><path d="M252.27869,191.78749l-0.61393,-0.61394l0.0175,-0.0175l-3.4731,-3.43801l-4.10456,4.0344l-4.06948,-4.0344l-4.10457,4.0344l-4.10457,-4.0344l-3.49063,3.45555l0.0175,0.0175l-0.63147,0.63147v-5.33243h0.0175l3.5608,-3.52572l0.50868,-0.50868l4.10457,4.0344l4.10456,-4.0344l4.06949,4.0344l4.10456,-4.0344l4.08703,4.0344v5.29735M252.27858,175.89543v5.33243l-4.08703,-4.0344l-4.10456,4.0344l-4.06949,-4.0344l-4.10456,4.0344l-4.10457,-4.0344l-4.08702,4.0344v-5.33243h0.0175l3.5608,-3.52572l0.50868,-0.50868l4.10457,4.0344l4.10456,-4.0344l4.06949,4.0344l4.10456,-4.0344l4.08703,4.0344" fill="#c58f5c"/></g></g></svg>