<svg version="1.1" xmlns="http://www.w3.org/2000/svg" xmlns:xlink="http://www.w3.org/1999/xlink" width="190" height="49" viewBox="0,0,190,49"><g transform="translate(-145,-155.5)"><g data-paper-data="{&quot;isPaintingLayer&quot;:true}" fill-rule="nonzero" stroke="none" stroke-width="1" stroke-linecap="butt" stroke-linejoin="miter" stroke-miterlimit="10" stroke-dasharray="" stroke-dashoffset="0" style="mix-blend-mode: normal"><path d="M331,161.5l-0.05,-0.7l0.05,0.05c-0.23333,-0.9 -0.9,-1.35 -2,-1.35h-178c-1.1,0 -1.73333,0.43333 -1.9,1.3l-0.05,0.2l-0.05,0.5v33c0,1.33333 0.66667,2 2,2h178c1.33333,0 2,-0.66667 2,-2v-33M329,157.5c2.33333,0 3.65,1.01667 3.95,3.05l0.05,0.95v33c0,2.66667 -1.33333,4 -4,4h-178c-2.66667,0 -4,-1.33333 -4,-4v-33l0.1,-0.95c0.26667,-2.03333 1.56667,-3.05 3.9,-3.05h178" fill="#88e060"/><path d="M329,157.5h-178c-2.33333,0 -3.63333,1.01667 -3.9,3.05l-0.1,0.95v33c0,2.66667 1.33333,4 4,4h178c2.66667,0 4,-1.33333 4,-4v-33l-0.05,-0.95c-0.3,-2.03333 -1.61667,-3.05 -3.95,-3.05M145,194.75v-33.25c0,-4 2,-6 6,-6h178c4,0 6,2 6,6v33.25c-0.1,3.83333 -2.1,5.75 -6,5.75h-178c-3.9,0 -5.9,-1.91667 -6,-5.75" fill="#5fb13a"/><path d="M331,161.5v33c0,1.33333 -0.66667,2 -2,2h-178c-1.33333,0 -2,-0.66667 -2,-2v-33l0.05,-0.5l0.05,-0.2c0.16667,-0.86667 0.8,-1.3 1.9,-1.3h178c1.1,0 1.76667,0.45 2,1.35l-0.05,-0.05l0.05,0.7" fill="#73cd4b"/><path d="M335,194.75v3.75c0,4 -2,6 -6,6h-178c-4,0 -6,-2 -6,-6v-3.75c0.1,3.83333 2.1,5.75 6,5.75h178c3.9,0 5.9,-1.91667 6,-5.75" fill="#47832c"/></g></g></svg>