<svg version="1.1" xmlns="http://www.w3.org/2000/svg" xmlns:xlink="http://www.w3.org/1999/xlink" width="100" height="100" viewBox="0,0,100,100"><g transform="translate(-190,-130)"><g data-paper-data="{&quot;isPaintingLayer&quot;:true}" fill-rule="nonzero" stroke="none" stroke-width="1" stroke-linecap="butt" stroke-linejoin="miter" stroke-miterlimit="10" stroke-dasharray="" stroke-dashoffset="0" style="mix-blend-mode: normal"><path d="M288,137.05c0,-3.36667 -1.7,-5.05 -5.1,-5.05h-85.85c-3.36667,0 -5.05,1.68333 -5.05,5.05v85.9c0,3.36667 1.68333,5.05 5.05,5.05h85.85c3.4,0 5.1,-1.68333 5.1,-5.05v-85.9M290,137.05v85.9c0,2.33333 -0.61667,4.06667 -1.85,5.2c-1.13333,1.23333 -2.88333,1.85 -5.25,1.85h-85.85c-4.7,0 -7.05,-2.35 -7.05,-7.05v-85.9c0,-4.7 2.35,-7.05 7.05,-7.05h85.85c2.36667,0 4.11667,0.61667 5.25,1.85c1.23333,1.13333 1.85,2.86667 1.85,5.2" fill="#5fb13a"/><path d="M282.9,134c2.06667,0 3.1,1.01667 3.1,3.05v85.9c0,2.03333 -1.03333,3.05 -3.1,3.05h-85.85c-2.03333,0 -3.05,-1.01667 -3.05,-3.05v-85.9c0,-2.03333 1.01667,-3.05 3.05,-3.05h85.85" fill="#73cd4b"/><path d="M282.9,134h-85.85c-2.03333,0 -3.05,1.01667 -3.05,3.05v85.9c0,2.03333 1.01667,3.05 3.05,3.05h85.85c2.06667,0 3.1,-1.01667 3.1,-3.05v-85.9c0,-2.03333 -1.03333,-3.05 -3.1,-3.05M288,137.05v85.9c0,3.36667 -1.7,5.05 -5.1,5.05h-85.85c-3.36667,0 -5.05,-1.68333 -5.05,-5.05v-85.9c0,-3.36667 1.68333,-5.05 5.05,-5.05h85.85c3.4,0 5.1,1.68333 5.1,5.05" fill="#88e060"/></g></g></svg>