<svg version="1.1" xmlns="http://www.w3.org/2000/svg" xmlns:xlink="http://www.w3.org/1999/xlink" width="190" height="49" viewBox="0,0,190,49"><g transform="translate(-145,-155.5)"><g data-paper-data="{&quot;isPaintingLayer&quot;:true}" fill-rule="nonzero" stroke="none" stroke-width="1" stroke-linecap="butt" stroke-linejoin="miter" stroke-miterlimit="10" stroke-dasharray="" stroke-dashoffset="0" style="mix-blend-mode: normal"><path d="M147,161.5l0.1,-0.95l0.3,-1.05c0.5,-1.33333 1.7,-2 3.6,-2h178c1.9,0 3.13333,0.66667 3.7,2l0.25,1.05l0.05,0.95v33c0,2.66667 -1.33333,4 -4,4h-178c-2.66667,0 -4,-1.33333 -4,-4v-33M149.1,160.9l-0.05,0.1l-0.05,0.5v33c0,1.33333 0.66667,2 2,2h178c1.33333,0 2,-0.66667 2,-2v-33l-0.05,-0.7l0.05,0.1l-0.15,-0.6c-0.33333,-0.53333 -0.95,-0.8 -1.85,-0.8h-178c-0.86667,0 -1.43333,0.23333 -1.7,0.7l-0.05,0.1l-0.15,0.6" fill="#fa8132"/><path d="M147,161.5v33c0,2.66667 1.33333,4 4,4h178c2.66667,0 4,-1.33333 4,-4v-33l-0.05,-0.95l-0.25,-1.05c-0.56667,-1.33333 -1.8,-2 -3.7,-2h-178c-1.9,0 -3.1,0.66667 -3.6,2l-0.3,1.05l-0.1,0.95M145,194.75v-33.25l0.2,-2c0.6,-2.66667 2.53333,-4 5.8,-4h178c3.26667,0 5.2,1.33333 5.8,4l0.2,2v33.25c-0.1,3.83333 -2.1,5.75 -6,5.75h-178c-3.9,0 -5.9,-1.91667 -6,-5.75" fill="#cd5d12"/><path d="M149.1,160.9l0.15,-0.6l0.05,-0.1c0.26667,-0.46667 0.83333,-0.7 1.7,-0.7h178c0.9,0 1.51667,0.26667 1.85,0.8l0.15,0.6l-0.05,-0.1l0.05,0.7v33c0,1.33333 -0.66667,2 -2,2h-178c-1.33333,0 -2,-0.66667 -2,-2v-33l0.05,-0.5l0.05,-0.1" fill="#e86a17"/><path d="M335,194.75v3.75c0,3.63333 -1.65,5.61667 -4.95,5.95l-1.05,0.05h-178l-1.05,-0.05c-3.3,-0.33333 -4.95,-2.31667 -4.95,-5.95v-3.75c0.1,3.83333 2.1,5.75 6,5.75h178c3.9,0 5.9,-1.91667 6,-5.75" fill="#aa4e11"/></g></g></svg>