<svg version="1.1" xmlns="http://www.w3.org/2000/svg" xmlns:xlink="http://www.w3.org/1999/xlink" width="28" height="42" viewBox="0,0,28,42"><g transform="translate(-226,-159)"><g data-paper-data="{&quot;isPaintingLayer&quot;:true}" fill-rule="nonzero" stroke="none" stroke-width="1" stroke-linecap="butt" stroke-linejoin="miter" stroke-miterlimit="10" stroke-dasharray="" stroke-dashoffset="0" style="mix-blend-mode: normal"><path d="M228.05,162.5c0.1,-0.36667 0.28333,-0.68333 0.55,-0.95c0.36667,-0.36667 0.83333,-0.55 1.4,-0.55h20c0.56667,0 1.05,0.18333 1.45,0.55l0.5,0.95l0.05,0.5v20.9l-0.15,0.8l-0.4,0.6l-10,10.1c-0.4,0.4 -0.88333,0.6 -1.45,0.6c-0.56667,0 -1.03333,-0.2 -1.4,-0.6l-10,-10.1l-0.4,-0.55l-0.2,-0.85v-20.9l0.05,-0.5M230,183.9l10,10.1l10,-10.1v-20.9h-20v20.9" fill="#88e060"/><path d="M226,184v-21.1c0.03333,-1.06667 0.41667,-1.98333 1.15,-2.75h0.05c0.76667,-0.76667 1.7,-1.15 2.8,-1.15h20c1.1,0 2.05,0.38333 2.85,1.15c0.73333,0.76667 1.11667,1.68333 1.15,2.75v21.1c-0.03333,1.06667 -0.41667,1.96667 -1.15,2.7l-10,10.1c-0.8,0.8 -1.75,1.2 -2.85,1.2c-1.1,0 -2.05,-0.4 -2.85,-1.2l-10,-10.1c-0.73333,-0.73333 -1.11667,-1.63333 -1.15,-2.7M228.05,162.5l-0.05,0.5v20.9l0.2,0.85l0.4,0.55l10,10.1c0.36667,0.4 0.83333,0.6 1.4,0.6c0.56667,0 1.05,-0.2 1.45,-0.6l10,-10.1l0.4,-0.6l0.15,-0.8v-20.9l-0.05,-0.5l-0.5,-0.95c-0.4,-0.36667 -0.88333,-0.55 -1.45,-0.55h-20c-0.56667,0 -1.03333,0.18333 -1.4,0.55c-0.26667,0.26667 -0.45,0.58333 -0.55,0.95" fill="#5fb13a"/><path d="M226,184c0.03333,1.06667 0.41667,1.96667 1.15,2.7l10,10.1c0.8,0.8 1.75,1.2 2.85,1.2c1.1,0 2.05,-0.4 2.85,-1.2l10,-10.1c0.73333,-0.73333 1.11667,-1.63333 1.15,-2.7v2.9c0,1.1 -0.38333,2.03333 -1.15,2.8l-10,10.1c-0.8,0.8 -1.75,1.2 -2.85,1.2c-1.1,0 -2.05,-0.4 -2.85,-1.2l-10,-10.1c-0.76667,-0.76667 -1.15,-1.7 -1.15,-2.8v-2.9" fill-opacity="0.10196" fill="#000000"/><path d="M230,183.9v-20.9h20v20.9l-10,10.1l-10,-10.1" fill="#73cd4b"/></g></g></svg>